<?xml version="1.0" encoding="UTF-8" standalone="no"?><!DOCTYPE svg PUBLIC "-//W3C//DTD SVG 1.1//EN" "http://www.w3.org/Graphics/SVG/1.1/DTD/svg11.dtd"><svg width="100%" height="100%" viewBox="0 0 217 206" version="1.1" xmlns="http://www.w3.org/2000/svg" xmlns:xlink="http://www.w3.org/1999/xlink" xml:space="preserve" xmlns:serif="http://www.serif.com/" style="fill-rule:evenodd;clip-rule:evenodd;stroke-linecap:round;stroke-linejoin:round;stroke-miterlimit:1.5;"><g id="Placeholder"><path d="M215.776,54.528l0,96.598l-107.331,53.665l0,-96.598l107.331,-53.665Z" style="fill:#66b36a;"/><clipPath id="_clip1"><path d="M215.776,54.528l0,96.598l-107.331,53.665l0,-96.598l107.331,-53.665Z"/></clipPath><g clip-path="url(#_clip1)"><path d="M108.445,54.528l53.665,-26.833l-53.665,-26.833l-53.666,26.833l107.331,53.665l0,48.299l-53.665,26.833l-53.666,-26.833l0,-48.299l53.666,-26.832Z" style="fill:#297e2c;stroke:#000;stroke-width:1px;"/></g><path d="M215.776,54.528l0,96.598l-107.331,53.665l0,-96.598l107.331,-53.665Z" style="fill:none;stroke:#000;stroke-width:1px;"/><path d="M1.113,54.528l107.332,53.665l0,96.598l-107.332,-53.665l0,-96.598" style="fill:#66b36a;"/><clipPath id="_clip2"><path d="M1.113,54.528l107.332,53.665l0,96.598l-107.332,-53.665l0,-96.598"/></clipPath><g clip-path="url(#_clip2)"><path d="M108.445,54.528l53.665,-26.833l-53.665,-26.833l-53.666,26.833l107.331,53.665l0,48.299l-53.665,26.833l-53.666,-26.833l0,-48.299l53.666,-26.832Z" style="fill:#297e2c;stroke:#000;stroke-width:1px;"/></g><path d="M1.113,54.528l107.332,53.665l0,96.598l-107.332,-53.665l0,-96.598" style="fill:none;stroke:#000;stroke-width:1px;"/><path d="M215.776,54.528l-107.331,53.665l-107.332,-53.665l107.332,-53.666l107.331,53.666Z" style="fill:#66b36a;"/><clipPath id="_clip3"><path d="M215.776,54.528l-107.331,53.665l-107.332,-53.665l107.332,-53.666l107.331,53.666Z"/></clipPath><g clip-path="url(#_clip3)"><path d="M108.445,54.528l53.665,-26.833l-53.665,-26.833l-53.666,26.833l107.331,53.665l0,48.299l-53.665,26.833l-53.666,-26.833l0,-48.299l53.666,-26.832Z" style="fill:#297e2c;stroke:#000;stroke-width:1px;"/></g><path d="M215.776,54.528l-107.331,53.665l-107.332,-53.665l107.332,-53.666l107.331,53.666Z" style="fill:none;stroke:#000;stroke-width:1px;"/><path d="M215.776,102.827l0,48.299l-53.666,26.832l0,-48.299l53.666,-26.832Z" style="fill:#297e2c;stroke:#000;stroke-width:1px;"/><path d="M54.779,129.659l0,48.299l-53.666,-26.832l0,-48.299l53.666,26.832Z" style="fill:#297e2c;stroke:#000;stroke-width:1px;"/></g></svg>