<?xml version="1.0" encoding="UTF-8" standalone="no"?><!DOCTYPE svg PUBLIC "-//W3C//DTD SVG 1.1//EN" "http://www.w3.org/Graphics/SVG/1.1/DTD/svg11.dtd"><svg width="100%" height="100%" viewBox="0 0 99 202" version="1.1" xmlns="http://www.w3.org/2000/svg" xmlns:xlink="http://www.w3.org/1999/xlink" xml:space="preserve" xmlns:serif="http://www.serif.com/" style="fill-rule:evenodd;clip-rule:evenodd;stroke-linecap:round;stroke-linejoin:round;stroke-miterlimit:1.5;"><g id="Tree_cube11"><g><path d="M65.589,138.897l0,53.666l-16.1,8.05l0,-53.666l16.1,-8.05Z" style="fill:#9c7c46;stroke:#000;stroke-width:1px;"/><path d="M49.489,146.947l0,53.666l-16.1,-8.05l0,-53.666l16.1,8.05Z" style="fill:#5d4a29;stroke:#000;stroke-width:1px;"/></g><g><path d="M47.317,81.462l48.299,13.417l-42.932,21.466l-48.299,-13.416l42.932,-21.467Z" style="fill:#96e257;stroke:#000;stroke-width:1px;"/><path d="M95.616,94.879l0,32.199l-42.932,21.466l0,-32.199l42.932,-21.466Z" style="fill:#82e965;stroke:#000;stroke-width:1px;"/><path d="M52.684,116.345l0,32.199l-48.299,-13.416l0,-32.199l48.299,13.416Z" style="fill:#4dab3f;stroke:#000;stroke-width:1px;"/></g><g><path d="M49.489,36.487l42.933,21.467l-42.933,21.466l-42.932,-21.466l42.932,-21.467Z" style="fill:#96e257;stroke:#000;stroke-width:1px;"/><path d="M92.422,57.954l0,32.199l-42.933,21.466l0,-32.199l42.933,-21.466Z" style="fill:#82e965;stroke:#000;stroke-width:1px;"/><path d="M49.489,79.42l0,32.199l-42.932,-21.466l0,-32.199l42.932,21.466Z" style="fill:#4dab3f;stroke:#000;stroke-width:1px;"/></g><g><path d="M54.856,1.439l42.932,21.466l-53.665,16.1l-42.933,-21.466l53.666,-16.1Z" style="fill:#96e257;stroke:#000;stroke-width:1px;"/><path d="M97.788,22.905l0,32.2l-53.665,16.099l0,-32.199l53.665,-16.1Z" style="fill:#82e965;stroke:#000;stroke-width:1px;"/><path d="M44.123,39.005l0,32.199l-42.933,-21.466l0,-32.199l42.933,21.466Z" style="fill:#4dab3f;stroke:#000;stroke-width:1px;"/></g></g></svg>