<?xml version="1.0" encoding="UTF-8" standalone="no"?><!DOCTYPE svg PUBLIC "-//W3C//DTD SVG 1.1//EN" "http://www.w3.org/Graphics/SVG/1.1/DTD/svg11.dtd"><svg width="100%" height="100%" viewBox="0 0 169 185" version="1.1" xmlns="http://www.w3.org/2000/svg" xmlns:xlink="http://www.w3.org/1999/xlink" xml:space="preserve" xmlns:serif="http://www.serif.com/" style="fill-rule:evenodd;clip-rule:evenodd;stroke-linecap:round;stroke-linejoin:round;stroke-miterlimit:1.5;"><g id="Tree_cube08"><g><path d="M108.647,121.994l0,53.665l-16.1,8.05l0,-53.665l16.1,-8.05Z" style="fill:#a97252;stroke:#000;stroke-width:1px;"/><path d="M92.547,130.044l0,53.665l-16.099,-8.05l0,-53.665l16.099,8.05Z" style="fill:#532c19;stroke:#000;stroke-width:1px;"/></g><g><path d="M92.547,1.246l42.933,21.466l-42.933,21.467l-42.932,-21.467l42.932,-21.466Z" style="fill:#dea052;stroke:#000;stroke-width:1px;"/><path d="M135.48,22.712l0,85.865l-42.933,21.467l0,-85.865l42.933,-21.467Z" style="fill:#d57344;stroke:#000;stroke-width:1px;"/><path d="M92.547,44.179l0,85.865l-42.932,-21.467l0,-85.865l42.932,21.467Z" style="fill:#983b11;stroke:#000;stroke-width:1px;"/></g><g><path d="M114.014,103.211l37.566,-18.783l0,-10.733l-48.3,24.149l10.734,5.367Z" style="fill:#532c19;stroke:#000;stroke-width:1px;"/><path d="M103.28,87.111l37.566,-18.783l10.734,5.367l-48.3,24.149l0,-10.733Z" style="fill:#a97252;stroke:#000;stroke-width:1px;"/></g><g><path d="M1.316,63.456l0,-15.605l15.605,7.803l0,15.605l-15.605,-7.803Z" style="fill:#983b11;stroke:#000;stroke-width:1px;"/><path d="M1.316,47.851l15.605,-7.803l15.605,7.803l-15.605,7.803l-15.605,-7.803Z" style="fill:#dea052;stroke:#000;stroke-width:1px;"/><path d="M16.921,71.259l15.605,-7.803l0,-15.605l-15.605,7.803l0,15.605Z" style="fill:#d57344;stroke:#000;stroke-width:1px;"/></g><g><path d="M58.878,64.91l-40.249,-20.125l0,-5.366l45.616,22.808l-5.367,2.683Z" style="fill:#532c19;stroke:#000;stroke-width:1px;"/><path d="M64.245,56.86l-40.25,-20.124l-5.366,2.683l45.616,22.808l0,-5.367Z" style="fill:#a97252;stroke:#000;stroke-width:1px;"/></g><g><path d="M126.556,79.936l0,-20.562l20.561,10.281l0,20.561l-20.561,-10.28Z" style="fill:#983b11;stroke:#000;stroke-width:1px;"/><path d="M126.556,59.374l20.561,-10.281l20.562,10.281l-20.562,10.281l-20.561,-10.281Z" style="fill:#dea052;stroke:#000;stroke-width:1px;"/><path d="M147.117,90.216l20.562,-10.28l0,-20.562l-20.562,10.281l0,20.561Z" style="fill:#d57344;stroke:#000;stroke-width:1px;"/></g><g><path d="M12.049,39.039l0,-11.364l11.364,5.682l0,11.365l-11.364,-5.683Z" style="fill:#983b11;stroke:#000;stroke-width:1px;"/><path d="M12.049,27.675l11.364,-5.683l11.365,5.683l-11.365,5.682l-11.364,-5.682Z" style="fill:#dea052;stroke:#000;stroke-width:1px;"/><path d="M23.413,44.722l11.365,-5.683l0,-11.364l-11.365,5.682l0,11.365Z" style="fill:#d57344;stroke:#000;stroke-width:1px;"/></g></g></svg>