<?xml version="1.0" encoding="UTF-8" standalone="no"?><!DOCTYPE svg PUBLIC "-//W3C//DTD SVG 1.1//EN" "http://www.w3.org/Graphics/SVG/1.1/DTD/svg11.dtd"><svg width="100%" height="100%" viewBox="0 0 88 163" version="1.1" xmlns="http://www.w3.org/2000/svg" xmlns:xlink="http://www.w3.org/1999/xlink" xml:space="preserve" xmlns:serif="http://www.serif.com/" style="fill-rule:evenodd;clip-rule:evenodd;stroke-linecap:round;stroke-linejoin:round;stroke-miterlimit:1.5;"><g id="Tree_cube09"><g><path d="M60.396,100.331l0,53.666l-16.1,8.05l0,-53.666l16.1,-8.05Z" style="fill:#a97252;stroke:#000;stroke-width:1px;"/><path d="M44.296,108.381l0,53.666l-16.1,-8.05l0,-53.666l16.1,8.05Z" style="fill:#532c19;stroke:#000;stroke-width:1px;"/></g><g><path d="M43.625,46.696l42.933,21.466l-42.933,21.467l-42.932,-21.467l42.932,-21.466Z" style="fill:#dea052;stroke:#000;stroke-width:1px;"/><path d="M86.558,68.162l0,32.2l-42.933,21.466l0,-32.199l42.933,-21.467Z" style="fill:#d57344;stroke:#000;stroke-width:1px;"/><path d="M43.625,89.629l0,32.199l-42.932,-21.466l0,-32.2l42.932,21.467Z" style="fill:#983b11;stroke:#000;stroke-width:1px;"/></g><g><path d="M44.296,4.376l32.199,15.823l-32.199,16.099l-32.199,-16.099l32.199,-15.823Z" style="fill:#dea052;stroke:#000;stroke-width:1px;"/><path d="M76.495,20.199l-0.277,48.437l-31.922,15.961l0,-48.299l32.199,-16.099Z" style="fill:#d57344;stroke:#000;stroke-width:1px;"/><path d="M44.296,36.298l0,48.299l-31.922,-15.961l-0.277,-48.437l32.199,16.099Z" style="fill:#983b11;stroke:#000;stroke-width:1px;"/></g><g><path d="M44.296,1.05l17.075,8.538l-17.075,8.537l-17.075,-8.537l17.075,-8.538Z" style="fill:#dea052;stroke:#000;stroke-width:1px;"/><path d="M61.371,9.588l0,12.806l-17.075,8.538l0,-12.807l17.075,-8.537Z" style="fill:#d57344;stroke:#000;stroke-width:1px;"/><path d="M44.296,18.125l0,12.807l-17.075,-8.538l0,-12.806l17.075,8.537Z" style="fill:#983b11;stroke:#000;stroke-width:1px;"/></g></g></svg>