<?xml version="1.0" encoding="UTF-8" standalone="no"?><!DOCTYPE svg PUBLIC "-//W3C//DTD SVG 1.1//EN" "http://www.w3.org/Graphics/SVG/1.1/DTD/svg11.dtd"><svg width="100%" height="100%" viewBox="0 0 99 185" version="1.1" xmlns="http://www.w3.org/2000/svg" xmlns:xlink="http://www.w3.org/1999/xlink" xml:space="preserve" xmlns:serif="http://www.serif.com/" style="fill-rule:evenodd;clip-rule:evenodd;stroke-linecap:round;stroke-linejoin:round;stroke-miterlimit:1.5;"><g id="Tree_cube01"><g><path d="M65.984,121.798l0,53.665l-16.099,8.05l0,-53.666l16.099,-8.049Z" style="fill:#a97252;stroke:#000;stroke-width:1px;"/><path d="M49.885,129.847l0,53.666l-16.1,-8.05l0,-53.665l16.1,8.049Z" style="fill:#532c19;stroke:#000;stroke-width:1px;"/></g><g><g><path d="M49.885,1.05l42.932,21.466l-42.932,21.466l-42.933,-21.466l42.933,-21.466Z" style="fill:#dea052;stroke:#000;stroke-width:1px;"/><path d="M92.817,22.516l0,85.865l-42.932,21.466l0,-85.865l42.932,-21.466Z" style="fill:#d57344;stroke:#000;stroke-width:1px;"/><path d="M49.885,43.982l0,85.865l-42.933,-21.466l0,-85.865l42.933,21.466Z" style="fill:#983b11;stroke:#000;stroke-width:1px;"/></g><g><path d="M60.618,61.088l11.739,-5.869l11.74,5.869l-11.74,5.87l-11.739,-5.87Z" style="fill:#dea052;stroke:#000;stroke-width:1px;"/><path d="M84.097,84.567l-11.74,5.87l0,-23.479l11.74,-5.87l0,23.479" style="fill:#d57344;stroke:#000;stroke-width:1px;"/><path d="M72.357,66.958l0,23.479l-11.739,-5.87l0,-23.479l11.739,5.87" style="fill:#983b11;stroke:#000;stroke-width:1px;"/></g><g><path d="M88.561,33.249l7.865,3.933l0,10.486l-10.486,5.243l-7.865,-3.932l0,-10.487l10.486,-5.243Z" style="fill:#dea052;stroke:#000;stroke-width:1px;"/><path d="M85.94,42.425l0,10.486l-7.865,-3.932l0,-10.487l7.865,3.933" style="fill:#983b11;stroke:#000;stroke-width:1px;"/><path d="M85.94,42.425l0,10.486l10.486,-5.243l0,-10.486l-10.486,5.243Z" style="fill:#d57344;stroke:#000;stroke-width:1px;"/></g><g><path d="M91.119,98.497l7.065,3.532l0,9.42l-9.42,4.71l-7.065,-3.532l0,-9.42l9.42,-4.71Z" style="fill:#dea052;stroke:#000;stroke-width:1px;"/><path d="M88.764,106.739l0,9.42l-7.065,-3.532l0,-9.42l7.065,3.532" style="fill:#983b11;stroke:#000;stroke-width:1px;"/><path d="M88.764,106.739l0,9.42l9.42,-4.71l0,-9.42l-9.42,4.71Z" style="fill:#d57344;stroke:#000;stroke-width:1px;"/></g><g><path d="M39.152,92.281l10.822,5.412l5.277,-2.728l5.367,2.683l0,16.1l-10.733,5.366l-16.1,-8.05l0,-16.099l5.367,-2.684Z" style="fill:#dea052;stroke:#000;stroke-width:1px;"/><path d="M49.885,103.015l0,16.099l-16.1,-8.05l0,-16.099l16.1,8.05Z" style="fill:#983b11;stroke:#000;stroke-width:1px;"/><path d="M49.885,103.015l0,16.099l10.733,-5.366l0,-16.1l-10.733,5.367Z" style="fill:#d57344;stroke:#000;stroke-width:1px;"/></g><g><path d="M7.452,65.699l15.6,7.799l0,12.48l-6.24,3.12l-15.6,-7.8l0,-12.479l6.24,-3.12Z" style="fill:#dea052;stroke:#000;stroke-width:1px;"/><path d="M16.812,76.618l0,12.48l-15.6,-7.8l0,-12.479l15.6,7.799Z" style="fill:#983b11;stroke:#000;stroke-width:1px;"/><path d="M16.812,76.618l0,12.48l6.24,-3.12l0,-12.48l-6.24,3.12Z" style="fill:#d57344;stroke:#000;stroke-width:1px;"/></g><g><path d="M21.936,40.741l17.216,8.608l0,13.773l-6.887,3.443l-17.215,-8.608l0,-13.773l6.886,-3.443Z" style="fill:#dea052;stroke:#000;stroke-width:1px;"/><path d="M32.265,52.792l0,13.773l-17.215,-8.608l0,-13.773l17.215,8.608Z" style="fill:#983b11;stroke:#000;stroke-width:1px;"/><path d="M32.265,52.792l0,13.773l6.887,-3.443l0,-13.773l-6.887,3.443Z" style="fill:#d57344;stroke:#000;stroke-width:1px;"/></g></g></g></svg>