<?xml version="1.0" encoding="UTF-8" standalone="no"?><!DOCTYPE svg PUBLIC "-//W3C//DTD SVG 1.1//EN" "http://www.w3.org/Graphics/SVG/1.1/DTD/svg11.dtd"><svg width="100%" height="100%" viewBox="0 0 170 185" version="1.1" xmlns="http://www.w3.org/2000/svg" xmlns:xlink="http://www.w3.org/1999/xlink" xml:space="preserve" xmlns:serif="http://www.serif.com/" style="fill-rule:evenodd;clip-rule:evenodd;stroke-linecap:round;stroke-linejoin:round;stroke-miterlimit:1.5;"><g id="Tree_cube07"><g><path d="M107.377,121.994l0,53.665l-16.1,8.05l0,-53.665l16.1,-8.05Z" style="fill:#9c6546;stroke:#000;stroke-width:1px;"/><path d="M91.277,130.044l0,53.665l-16.099,-8.05l0,-53.665l16.099,8.05Z" style="fill:#5d2929;stroke:#000;stroke-width:1px;"/></g><g><path d="M91.277,1.246l42.933,21.466l-42.933,21.467l-42.932,-21.467l42.932,-21.466Z" style="fill:#d87bba;stroke:#000;stroke-width:1px;"/><path d="M134.21,22.712l0,85.865l-42.933,21.467l0,-85.865l42.933,-21.467Z" style="fill:#b135be;stroke:#000;stroke-width:1px;"/><path d="M91.277,44.179l0,85.865l-42.932,-21.467l0,-85.865l42.932,21.467Z" style="fill:#513996;stroke:#000;stroke-width:1px;"/></g><g><path d="M107.377,105.894l37.566,-18.783l0,-10.733l-48.299,24.15l10.733,5.366Z" style="fill:#5d2929;stroke:#000;stroke-width:1px;"/><path d="M96.644,89.794l37.566,-18.783l10.733,5.367l-48.299,24.15l0,-10.734Z" style="fill:#9c6546;stroke:#000;stroke-width:1px;"/></g><g><path d="M123.477,85.17l0,-18.042l18.041,9.021l0,18.041l-18.041,-9.02Z" style="fill:#513996;stroke:#000;stroke-width:1px;"/><path d="M123.477,67.128l18.041,-9.02l18.041,9.02l-18.041,9.021l-18.041,-9.021Z" style="fill:#d87bba;stroke:#000;stroke-width:1px;"/><path d="M141.518,94.19l18.041,-9.02l0,-18.042l-18.041,9.021l0,18.041Z" style="fill:#b135be;stroke:#000;stroke-width:1px;"/></g><g><path d="M158.359,115.286l-40.249,-20.125l0,-5.367l45.616,22.808l-5.367,2.684Z" style="fill:#5d2929;stroke:#000;stroke-width:1px;"/><path d="M163.726,107.236l-40.249,-20.125l-5.367,2.683l45.616,22.808l0,-5.366Z" style="fill:#9c6546;stroke:#000;stroke-width:1px;"/></g><g><path d="M66.845,112.744l-61.433,-30.717l0,-8.191l69.624,34.812l-8.191,4.096Z" style="fill:#5d2929;stroke:#000;stroke-width:1px;"/><path d="M75.036,100.457l-61.433,-30.717l-8.191,4.096l69.624,34.812l0,-8.191Z" style="fill:#9c6546;stroke:#000;stroke-width:1px;"/></g><g><path d="M144.943,109.904l0,-12.06l12.06,6.03l0,12.06l-12.06,-6.03Z" style="fill:#513996;stroke:#000;stroke-width:1px;"/><path d="M144.943,97.844l12.06,-6.03l12.059,6.03l-12.059,6.03l-12.06,-6.03Z" style="fill:#d87bba;stroke:#000;stroke-width:1px;"/><path d="M157.003,115.934l12.059,-6.03l0,-12.06l-12.059,6.03l0,12.06Z" style="fill:#b135be;stroke:#000;stroke-width:1px;"/></g><g><path d="M112.744,95.161l0,-8.05l8.049,4.025l0,8.05l-8.049,-4.025Z" style="fill:#513996;stroke:#000;stroke-width:1px;"/><path d="M112.744,87.111l8.049,-4.025l8.05,4.025l-8.05,4.025l-8.049,-4.025Z" style="fill:#d87bba;stroke:#000;stroke-width:1px;"/><path d="M120.793,99.186l8.05,-4.025l0,-8.05l-8.05,4.025l0,8.05Z" style="fill:#b135be;stroke:#000;stroke-width:1px;"/></g><g><path d="M1.433,80.358l0,-18.09l18.089,9.045l0,18.089l-18.089,-9.044Z" style="fill:#513996;stroke:#000;stroke-width:1px;"/><path d="M1.433,62.268l18.089,-9.045l18.09,9.045l-18.09,9.045l-18.089,-9.045Z" style="fill:#d87bba;stroke:#000;stroke-width:1px;"/><path d="M19.522,89.402l18.09,-9.044l0,-18.09l-18.09,9.045l0,18.089Z" style="fill:#b135be;stroke:#000;stroke-width:1px;"/></g><g><path d="M3.176,98.962l0,-17.217l17.218,8.608l0,17.218l-17.218,-8.609Z" style="fill:#513996;stroke:#000;stroke-width:1px;"/><path d="M3.176,81.745l17.218,-8.609l17.218,8.609l-17.218,8.608l-17.218,-8.608Z" style="fill:#d87bba;stroke:#000;stroke-width:1px;"/><path d="M20.394,107.571l17.218,-8.609l0,-17.217l-17.218,8.608l0,17.218Z" style="fill:#b135be;stroke:#000;stroke-width:1px;"/></g></g></svg>