<?xml version="1.0" encoding="UTF-8" standalone="no"?><!DOCTYPE svg PUBLIC "-//W3C//DTD SVG 1.1//EN" "http://www.w3.org/Graphics/SVG/1.1/DTD/svg11.dtd"><svg width="100%" height="100%" viewBox="0 0 100 190" version="1.1" xmlns="http://www.w3.org/2000/svg" xmlns:xlink="http://www.w3.org/1999/xlink" xml:space="preserve" xmlns:serif="http://www.serif.com/" style="fill-rule:evenodd;clip-rule:evenodd;stroke-linecap:round;stroke-linejoin:round;stroke-miterlimit:1.5;"><g id="Tree_cube03"><g><path d="M64.978,126.798l0,53.665l-16.099,8.05l0,-53.666l16.099,-8.049Z" style="fill:#9c6546;stroke:#000;stroke-width:1px;"/><path d="M48.879,134.847l0,53.666l-16.1,-8.05l0,-53.665l16.1,8.049Z" style="fill:#5d2929;stroke:#000;stroke-width:1px;"/></g><g><g><path d="M48.879,6.05l42.932,21.466l-42.932,21.466l-42.933,-21.466l42.933,-21.466Z" style="fill:#d87bba;stroke:#000;stroke-width:1px;"/><path d="M91.811,27.516l0,85.865l-42.932,21.466l0,-85.865l42.932,-21.466Z" style="fill:#b135be;stroke:#000;stroke-width:1px;"/><path d="M48.879,48.982l0,85.865l-42.933,-21.466l0,-85.865l42.933,21.466Z" style="fill:#513996;stroke:#000;stroke-width:1px;"/></g><g><path d="M85.678,33.916l11.5,5.75l0,15.333l-15.333,7.667l-11.5,-5.75l0,-15.333l15.333,-7.667Z" style="fill:#d87bba;stroke:#000;stroke-width:1px;"/><path d="M81.845,47.333l0,15.333l-11.5,-5.75l0,-15.333l11.5,5.75" style="fill:#513996;stroke:#000;stroke-width:1px;"/><path d="M81.845,47.333l0,15.333l15.333,-7.667l0,-15.333l-15.333,7.667Z" style="fill:#b135be;stroke:#000;stroke-width:1px;"/></g><g><path d="M66.093,72.574l8.887,4.443l0,11.849l-11.849,5.924l-8.886,-4.443l0,-11.849l11.848,-5.924Z" style="fill:#d87bba;stroke:#000;stroke-width:1px;"/><path d="M63.131,82.942l0,11.848l-8.886,-4.443l0,-11.849l8.886,4.444" style="fill:#513996;stroke:#000;stroke-width:1px;"/><path d="M63.131,82.942l0,11.848l11.849,-5.924l0,-11.849l-11.849,5.925Z" style="fill:#b135be;stroke:#000;stroke-width:1px;"/></g><g><path d="M50.332,1.41l22.368,11.184l0,14.912l-29.824,14.911l-22.367,-11.183l0,-14.912l29.823,-14.912Z" style="fill:#d87bba;stroke:#000;stroke-width:1px;"/><path d="M42.876,27.506l0,14.911l-22.367,-11.183l0,-14.912l22.367,11.184Z" style="fill:#513996;stroke:#000;stroke-width:1px;"/><path d="M42.876,27.506l0,14.911l29.824,-14.911l0,-14.912l-29.824,14.912Z" style="fill:#b135be;stroke:#000;stroke-width:1px;"/></g><g><path d="M83.471,93.112l15.277,7.638l0,20.369l-20.369,10.185l-15.277,-7.639l0,-20.369l20.369,-10.184Z" style="fill:#d87bba;stroke:#000;stroke-width:1px;"/><path d="M78.379,110.935l0,20.369l-15.277,-7.639l0,-20.369l15.277,7.639" style="fill:#513996;stroke:#000;stroke-width:1px;"/><path d="M78.379,110.935l0,20.369l20.369,-10.185l0,-20.369l-20.369,10.185Z" style="fill:#b135be;stroke:#000;stroke-width:1px;"/></g><g><path d="M26.924,81.426l18.295,9.148l0,14.636l-7.318,3.659l-18.295,-9.148l0,-14.636l7.318,-3.659Z" style="fill:#d87bba;stroke:#000;stroke-width:1px;"/><path d="M37.901,94.233l0,14.636l-18.295,-9.148l0,-14.636l18.295,9.148Z" style="fill:#513996;stroke:#000;stroke-width:1px;"/><path d="M37.901,94.233l0,14.636l7.318,-3.659l0,-14.636l-7.318,3.659Z" style="fill:#b135be;stroke:#000;stroke-width:1px;"/></g><g><path d="M6.819,40.777l15.6,7.8l0,12.48l-6.24,3.12l-15.599,-7.8l0,-12.48l6.239,-3.12Z" style="fill:#d87bba;stroke:#000;stroke-width:1px;"/><path d="M16.179,51.697l0,12.48l-15.599,-7.8l0,-12.48l15.599,7.8Z" style="fill:#513996;stroke:#000;stroke-width:1px;"/><path d="M16.179,51.697l0,12.48l6.24,-3.12l0,-12.48l-6.24,3.12Z" style="fill:#b135be;stroke:#000;stroke-width:1px;"/></g></g></g></svg>