<?xml version="1.0" encoding="UTF-8" standalone="no"?><!DOCTYPE svg PUBLIC "-//W3C//DTD SVG 1.1//EN" "http://www.w3.org/Graphics/SVG/1.1/DTD/svg11.dtd"><svg width="100%" height="100%" viewBox="0 0 178 185" version="1.1" xmlns="http://www.w3.org/2000/svg" xmlns:xlink="http://www.w3.org/1999/xlink" xml:space="preserve" xmlns:serif="http://www.serif.com/" style="fill-rule:evenodd;clip-rule:evenodd;stroke-linecap:round;stroke-linejoin:round;stroke-miterlimit:1.5;"><g id="Tree_cube06"><g><path d="M114.917,121.994l0,53.665l-16.1,8.05l0,-53.665l16.1,-8.05Z" style="fill:#9c7c46;stroke:#000;stroke-width:1px;"/><path d="M98.817,130.044l0,53.665l-16.099,-8.05l0,-53.665l16.099,8.05Z" style="fill:#5d4a29;stroke:#000;stroke-width:1px;"/></g><g><path d="M98.817,1.246l42.933,21.466l-42.933,21.467l-42.932,-21.467l42.932,-21.466Z" style="fill:#7bd884;stroke:#000;stroke-width:1px;"/><path d="M141.75,22.712l0,85.865l-42.933,21.467l0,-85.865l42.933,-21.467Z" style="fill:#35be84;stroke:#000;stroke-width:1px;"/><path d="M98.817,44.179l0,85.865l-42.932,-21.467l0,-85.865l42.932,21.467Z" style="fill:#2d937a;stroke:#000;stroke-width:1px;"/></g><g><path d="M120.284,73.695l37.565,-18.783l0,-10.733l-48.299,24.149l10.734,5.367Z" style="fill:#5d4a29;stroke:#000;stroke-width:1px;"/><path d="M109.55,57.595l37.566,-18.783l10.733,5.367l-48.299,24.149l0,-10.733Z" style="fill:#9c7c46;stroke:#000;stroke-width:1px;"/></g><g><path d="M141.75,51.981l0,-11.951l11.951,5.976l0,11.951l-11.951,-5.976Z" style="fill:#2d937a;stroke:#000;stroke-width:1px;"/><path d="M141.75,40.03l11.951,-5.975l11.951,5.975l-11.951,5.976l-11.951,-5.976Z" style="fill:#7bd884;stroke:#000;stroke-width:1px;"/><path d="M153.701,57.957l11.951,-5.976l0,-11.951l-11.951,5.976l0,11.951Z" style="fill:#35be84;stroke:#000;stroke-width:1px;"/></g><g><path d="M171.266,83.086l-40.249,-20.124l0,-5.367l45.615,22.808l-5.366,2.683Z" style="fill:#5d4a29;stroke:#000;stroke-width:1px;"/><path d="M176.632,75.036l-40.249,-20.124l-5.366,2.683l45.615,22.808l0,-5.367Z" style="fill:#9c7c46;stroke:#000;stroke-width:1px;"/></g><g><path d="M74.385,112.744l-61.433,-30.717l0,-8.191l69.624,34.812l-8.191,4.096Z" style="fill:#5d4a29;stroke:#000;stroke-width:1px;"/><path d="M82.576,100.457l-61.433,-30.717l-8.191,4.096l69.624,34.812l0,-8.191Z" style="fill:#9c7c46;stroke:#000;stroke-width:1px;"/></g><g><path d="M147.116,76.348l0,-12.06l12.06,6.03l0,12.06l-12.06,-6.03Z" style="fill:#2d937a;stroke:#000;stroke-width:1px;"/><path d="M147.116,64.288l12.06,-6.03l12.06,6.03l-12.06,6.03l-12.06,-6.03Z" style="fill:#7bd884;stroke:#000;stroke-width:1px;"/><path d="M159.176,82.378l12.06,-6.03l0,-12.06l-12.06,6.03l0,12.06Z" style="fill:#35be84;stroke:#000;stroke-width:1px;"/></g><g><path d="M109.55,58.937l0,-9.392l9.392,4.696l0,9.391l-9.392,-4.695Z" style="fill:#2d937a;stroke:#000;stroke-width:1px;"/><path d="M109.55,49.545l9.392,-4.696l9.391,4.696l-9.391,4.696l-9.392,-4.696Z" style="fill:#7bd884;stroke:#000;stroke-width:1px;"/><path d="M118.942,63.632l9.391,-4.695l0,-9.392l-9.391,4.696l0,9.391Z" style="fill:#35be84;stroke:#000;stroke-width:1px;"/></g><g><path d="M155.166,120.652l-40.249,-20.124l0,-5.367l45.616,22.808l-5.367,2.683Z" style="fill:#5d4a29;stroke:#000;stroke-width:1px;"/><path d="M160.533,112.602l-40.249,-20.124l-5.367,2.683l45.616,22.808l0,-5.367Z" style="fill:#9c7c46;stroke:#000;stroke-width:1px;"/></g><g><path d="M128.122,129.019l0,-13.628l13.628,6.814l0,13.627l-13.628,-6.813Z" style="fill:#2d937a;stroke:#000;stroke-width:1px;"/><path d="M128.122,115.391l13.628,-6.814l13.627,6.814l-13.627,6.814l-13.628,-6.814Z" style="fill:#7bd884;stroke:#000;stroke-width:1px;"/><path d="M141.75,135.832l13.627,-6.813l0,-13.628l-13.627,6.814l0,13.627Z" style="fill:#35be84;stroke:#000;stroke-width:1px;"/></g><g><path d="M110.862,103.867l0,-14.789l14.788,7.394l0,14.789l-14.788,-7.394Z" style="fill:#2d937a;stroke:#000;stroke-width:1px;"/><path d="M110.862,89.078l14.788,-7.394l14.788,7.394l-14.788,7.394l-14.788,-7.394Z" style="fill:#7bd884;stroke:#000;stroke-width:1px;"/><path d="M125.65,111.261l14.788,-7.394l0,-14.789l-14.788,7.394l0,14.789Z" style="fill:#35be84;stroke:#000;stroke-width:1px;"/></g><g><path d="M29.052,79.061l0,-18.17l18.17,9.085l0,18.17l-18.17,-9.085Z" style="fill:#2d937a;stroke:#000;stroke-width:1px;"/><path d="M29.052,60.891l18.17,-9.085l18.17,9.085l-18.17,9.085l-18.17,-9.085Z" style="fill:#7bd884;stroke:#000;stroke-width:1px;"/><path d="M47.222,88.146l18.17,-9.085l0,-18.17l-18.17,9.085l0,18.17Z" style="fill:#35be84;stroke:#000;stroke-width:1px;"/></g><g><path d="M0.531,84.277l0,-12.421l12.421,6.21l0,12.422l-12.421,-6.211Z" style="fill:#2d937a;stroke:#000;stroke-width:1px;"/><path d="M0.531,71.856l12.421,-6.211l12.422,6.211l-12.422,6.21l-12.421,-6.21Z" style="fill:#7bd884;stroke:#000;stroke-width:1px;"/><path d="M12.952,90.488l12.422,-6.211l0,-12.421l-12.422,6.21l0,12.422Z" style="fill:#35be84;stroke:#000;stroke-width:1px;"/></g><g><path d="M37.549,107.515l0,-11.739l11.739,5.87l0,11.739l-11.739,-5.87Z" style="fill:#2d937a;stroke:#000;stroke-width:1px;"/><path d="M37.549,95.776l11.739,-5.87l11.74,5.87l-11.74,5.87l-11.739,-5.87Z" style="fill:#7bd884;stroke:#000;stroke-width:1px;"/><path d="M49.288,113.385l11.74,-5.87l0,-11.739l-11.74,5.87l0,11.739Z" style="fill:#35be84;stroke:#000;stroke-width:1px;"/></g><g><path d="M88.084,65.645l10.823,5.411l5.277,-2.728l5.366,2.683l0,16.1l-10.733,5.367l-16.099,-8.05l0,-16.1l5.366,-2.683Z" style="fill:#7bd884;stroke:#000;stroke-width:1px;"/><path d="M98.817,76.378l0,16.1l-16.099,-8.05l0,-16.1l16.099,8.05Z" style="fill:#2d937a;stroke:#000;stroke-width:1px;"/><path d="M98.817,76.378l0,16.1l10.733,-5.367l0,-16.1l-10.733,5.367Z" style="fill:#35be84;stroke:#000;stroke-width:1px;"/></g><g><path d="M98.817,6.613l16.1,8.05l0,10.733l-21.466,10.733l-16.1,-8.05l0,-10.733l21.466,-10.733Z" style="fill:#7bd884;stroke:#000;stroke-width:1px;"/><path d="M93.451,25.396l0,10.733l-16.1,-8.05l0,-10.733l16.1,8.05Z" style="fill:#2d937a;stroke:#000;stroke-width:1px;"/><path d="M93.451,25.396l0,10.733l21.466,-10.733l0,-10.733l-21.466,10.733Z" style="fill:#35be84;stroke:#000;stroke-width:1px;"/></g></g></svg>