<?xml version="1.0" encoding="UTF-8" standalone="no"?><!DOCTYPE svg PUBLIC "-//W3C//DTD SVG 1.1//EN" "http://www.w3.org/Graphics/SVG/1.1/DTD/svg11.dtd"><svg width="100%" height="100%" viewBox="0 0 118 185" version="1.1" xmlns="http://www.w3.org/2000/svg" xmlns:xlink="http://www.w3.org/1999/xlink" xml:space="preserve" xmlns:serif="http://www.serif.com/" style="fill-rule:evenodd;clip-rule:evenodd;stroke-linecap:round;stroke-linejoin:round;stroke-miterlimit:1.5;"><g id="Tree_pyramid02"><g><path d="M49.615,103.407l0,75.132l10.733,5.367l0,-75.132l-10.733,-5.367Z" style="fill:#186046;stroke:#000;stroke-width:1px;"/><path d="M71.081,103.407l0,75.132l-10.733,5.367l0,-75.132l10.733,-5.367Z" style="fill:#836e4b;stroke:#000;stroke-width:1px;"/></g><g><path d="M60.348,1.442l-21.466,32.2l21.466,10.733l0,-42.933Z" style="fill:#207691;stroke:#000;stroke-width:1px;"/><path d="M60.348,1.442l21.466,32.2l-21.466,10.733l0,-42.933Z" style="fill:#3acdd7;stroke:#000;stroke-width:1px;"/><path d="M44.248,36.325l-21.466,32.199l37.566,18.783l0,-42.932l-16.1,-8.05" style="fill:#207691;stroke:#000;stroke-width:1px;"/><path d="M76.448,36.325l21.466,32.199l-37.566,18.783l0,-42.932l16.1,-8.05Z" style="fill:#3acdd7;stroke:#000;stroke-width:1px;"/><path d="M28.149,71.208l-21.467,32.199l53.666,26.833l0,-42.933l-32.199,-16.099" style="fill:#207691;stroke:#000;stroke-width:1px;"/><path d="M92.547,71.208l21.467,32.199l-53.666,26.833l0,-42.933l32.199,-16.099Z" style="fill:#3acdd7;stroke:#000;stroke-width:1px;"/></g><g><path d="M117.366,123.029l-2.746,1.038l-21.621,-10.153l3.069,-1.534l21.298,10.649Z" style="fill:#186046;stroke:#000;stroke-width:1px;"/><path d="M101.392,109.718l15.974,7.986l0,5.325l-21.298,-10.649l5.324,-2.662Z" style="fill:#836e4b;stroke:#000;stroke-width:1px;"/></g><g><path d="M78.899,45.833l-2.637,1.318l-10.548,-5.274l2.637,-1.318l10.548,5.274Z" style="fill:#186046;stroke:#000;stroke-width:1px;"/><path d="M70.988,39.24l7.911,3.956l0,2.637l-10.548,-5.274l2.637,-1.319Z" style="fill:#836e4b;stroke:#000;stroke-width:1px;"/></g><path d="M44.248,79.258l-16.099,8.049l-21.467,0l-5.366,2.684l26.833,2.683l21.466,-10.733l-5.367,-2.683Z" style="fill:#836e4b;stroke:#000;stroke-width:1px;"/><path d="M49.615,81.941l3.129,1.564l-23.253,11.593l-22.809,-2.424l-5.366,-2.683l26.833,2.683l21.466,-10.733Z" style="fill:#186046;stroke:#000;stroke-width:1px;"/></g></svg>