<?xml version="1.0" encoding="UTF-8" standalone="no"?><!DOCTYPE svg PUBLIC "-//W3C//DTD SVG 1.1//EN" "http://www.w3.org/Graphics/SVG/1.1/DTD/svg11.dtd"><svg width="100%" height="100%" viewBox="0 0 109 185" version="1.1" xmlns="http://www.w3.org/2000/svg" xmlns:xlink="http://www.w3.org/1999/xlink" xml:space="preserve" xmlns:serif="http://www.serif.com/" style="fill-rule:evenodd;clip-rule:evenodd;stroke-linecap:round;stroke-linejoin:round;stroke-miterlimit:1.5;"><g id="Tree_pyramid04"><g><path d="M43.679,103.407l0,75.132l10.733,5.367l0,-75.132l-10.733,-5.367Z" style="fill:#186046;stroke:#000;stroke-width:1px;"/><path d="M65.145,103.407l0,75.132l-10.733,5.367l0,-75.132l10.733,-5.367Z" style="fill:#836e4b;stroke:#000;stroke-width:1px;"/></g><g><path d="M54.412,1.442l-21.466,32.2l21.466,10.733l0,-42.933Z" style="fill:#207691;stroke:#000;stroke-width:1px;"/><path d="M54.412,1.442l21.467,32.2l-21.467,10.733l0,-42.933Z" style="fill:#3acdd7;stroke:#000;stroke-width:1px;"/><path d="M38.313,36.325l-21.467,32.199l37.566,18.783l0,-42.932l-16.099,-8.05" style="fill:#207691;stroke:#000;stroke-width:1px;"/><path d="M70.512,36.325l21.466,32.199l-37.566,18.783l0,-42.932l16.1,-8.05Z" style="fill:#3acdd7;stroke:#000;stroke-width:1px;"/><path d="M22.213,71.208l-21.466,32.199l53.665,26.833l0,-42.933l-32.199,-16.099" style="fill:#207691;stroke:#000;stroke-width:1px;"/><path d="M86.612,71.208l21.466,32.199l-53.666,26.833l0,-42.933l32.2,-16.099Z" style="fill:#3acdd7;stroke:#000;stroke-width:1px;"/></g></g></svg>