<?xml version="1.0" encoding="UTF-8" standalone="no"?><!DOCTYPE svg PUBLIC "-//W3C//DTD SVG 1.1//EN" "http://www.w3.org/Graphics/SVG/1.1/DTD/svg11.dtd"><svg width="100%" height="100%" viewBox="0 0 39 53" version="1.1" xmlns="http://www.w3.org/2000/svg" xmlns:xlink="http://www.w3.org/1999/xlink" xml:space="preserve" xmlns:serif="http://www.serif.com/" style="fill-rule:evenodd;clip-rule:evenodd;stroke-linecap:round;stroke-linejoin:round;stroke-miterlimit:1.5;"><g id="crystal12"><path d="M38.082,25.57l0,16.1l-10.733,0l10.733,-16.1Z" style="fill:#c5f08a;stroke:#000;stroke-width:1px;"/><path d="M21.982,1.421l-21.466,21.466l5.367,13.416l5.366,-8.05l0,-5.366l10.733,-21.466Z" style="fill:#2da42e;stroke:#000;stroke-width:1px;"/><path d="M21.982,1.421l-10.733,21.466l5.367,2.683l5.366,-8.05l5.367,8.05l-5.367,-24.149Z" style="fill:#98ed50;stroke:#000;stroke-width:1px;"/><path d="M21.982,17.52l10.733,16.1l-10.733,0l-5.366,-8.05l5.366,-8.05l0,-16.099l5.367,24.149" style="fill:#c5f08a;stroke:#000;stroke-width:1px;"/><path d="M11.249,22.887l5.367,2.683l5.366,8.05l0,5.367l-5.366,8.049l-5.367,-2.683l-5.366,-8.05l5.366,-8.05l0,-5.366" style="fill:#2da42e;stroke:#000;stroke-width:1px;"/><path d="M0.516,22.887l0,21.466l10.733,0l-5.366,-8.05l-5.367,-13.416" style="fill:#135c2e;stroke:#000;stroke-width:1px;"/><path d="M21.982,33.62l0,5.367l-5.366,8.049l10.733,-5.366l5.366,-8.05l-10.733,0Z" style="fill:#98ed50;stroke:#000;stroke-width:1px;"/><path d="M38.082,41.67l-10.733,10.733l-10.733,0l0,-5.367l10.733,-5.366l10.733,0" style="fill:#2da42e;stroke:#000;stroke-width:1px;"/><path d="M0.516,44.353l10.733,0l5.367,2.683l0,5.367l-16.1,-8.05" style="fill:#135c2e;stroke:#000;stroke-width:1px;"/><path d="M21.982,1.421l16.1,24.149l-5.367,8.05l-5.366,-8.05l-5.367,-24.149Z" style="fill:#d2ffce;stroke:#000;stroke-width:1px;"/></g></svg>