<?xml version="1.0" encoding="UTF-8" standalone="no"?><!DOCTYPE svg PUBLIC "-//W3C//DTD SVG 1.1//EN" "http://www.w3.org/Graphics/SVG/1.1/DTD/svg11.dtd"><svg width="100%" height="100%" viewBox="0 0 72 91" version="1.1" xmlns="http://www.w3.org/2000/svg" xmlns:xlink="http://www.w3.org/1999/xlink" xml:space="preserve" xmlns:serif="http://www.serif.com/" style="fill-rule:evenodd;clip-rule:evenodd;stroke-linecap:round;stroke-linejoin:round;stroke-miterlimit:1.5;"><g id="crystal20"><g><path d="M35.567,1.221l-21.466,21.466l10.733,5.366l10.733,-26.832Z" style="fill:#772da4;stroke:#000;stroke-width:1px;"/><path d="M46.3,28.053l-21.466,0l10.733,-26.832l10.733,26.832Z" style="fill:#d950ed;stroke:#000;stroke-width:1px;"/><path d="M57.033,22.687l-21.466,-21.466l10.733,26.832l10.733,-5.366Z" style="fill:#f0b3d5;stroke:#000;stroke-width:1px;"/><path d="M14.101,22.687l5.366,56.349l5.367,2.683l0,-53.666l-10.733,-5.366" style="fill:#542f7f;stroke:#000;stroke-width:1px;"/><rect x="24.834" y="28.053" width="21.466" height="53.666" style="fill:#772da4;stroke:#000;stroke-width:1px;"/><path d="M57.033,22.687l-10.733,5.366l0,53.666l5.367,-2.683l5.366,-56.349Z" style="fill:#df8af0;stroke:#000;stroke-width:1px;"/></g><g><path d="M6.62,39.051l-5.348,17.792l6.949,0.792l-1.601,-18.584Z" style="fill:#772da4;stroke:#000;stroke-width:1px;"/><path d="M19.269,52.76l-11.048,4.875l-1.601,-18.584l12.649,13.709Z" style="fill:#d950ed;stroke:#000;stroke-width:1px;"/><path d="M23.368,47.094l-16.748,-8.043l12.649,13.709l4.099,-5.666Z" style="fill:#f0b3d5;stroke:#000;stroke-width:1px;"/><path d="M1.272,56.843l17.723,32.69l3.474,0.396l-14.248,-32.294l-6.949,-0.792" style="fill:#542f7f;stroke:#000;stroke-width:1px;"/><path d="M19.269,52.76l-11.048,4.875l14.248,32.294l11.048,-4.875l-14.248,-32.294Z" style="fill:#772da4;stroke:#000;stroke-width:1px;"/><path d="M23.368,47.094l-4.099,5.666l14.248,32.294l2.05,-2.833l-12.199,-35.127Z" style="fill:#df8af0;stroke:#000;stroke-width:1px;"/></g><g><path d="M68.143,40.727l-16.845,6.294l3.22,5.864l13.625,-12.158Z" style="fill:#772da4;stroke:#000;stroke-width:1px;"/><path d="M64.426,58.605l-9.908,-5.72l13.625,-12.158l-3.717,17.878Z" style="fill:#d950ed;stroke:#000;stroke-width:1px;"/><path d="M71.114,58.462l-2.971,-17.735l-3.717,17.878l6.688,-0.143Z" style="fill:#f0b3d5;stroke:#000;stroke-width:1px;"/><path d="M51.298,47.021l-15.731,32.967l1.61,2.932l17.341,-30.035l-3.22,-5.864" style="fill:#542f7f;stroke:#000;stroke-width:1px;"/><path d="M64.426,58.605l-9.908,-5.72l-17.341,30.035l9.908,5.721l17.341,-30.036Z" style="fill:#772da4;stroke:#000;stroke-width:1px;"/><path d="M71.114,58.462l-6.688,0.143l-17.341,30.036l3.344,-0.072l20.685,-30.107Z" style="fill:#df8af0;stroke:#000;stroke-width:1px;"/></g></g></svg>