<?xml version="1.0" encoding="UTF-8" standalone="no"?><!DOCTYPE svg PUBLIC "-//W3C//DTD SVG 1.1//EN" "http://www.w3.org/Graphics/SVG/1.1/DTD/svg11.dtd"><svg width="100%" height="100%" viewBox="0 0 77 42" version="1.1" xmlns="http://www.w3.org/2000/svg" xmlns:xlink="http://www.w3.org/1999/xlink" xml:space="preserve" xmlns:serif="http://www.serif.com/" style="fill-rule:evenodd;clip-rule:evenodd;stroke-linecap:round;stroke-linejoin:round;stroke-miterlimit:1.5;"><g id="rock10"><path d="M70.679,9.132l-16.099,-8.05l-32.2,0l-16.1,8.05l21.467,16.1l21.466,0c0,0 22.082,-9.395 21.466,-9.395c-0.616,0 0,-6.705 0,-6.705" style="fill:#b49f97;stroke:#000;stroke-width:1px;"/><path d="M70.679,9.132l5.367,2.683l0,10.733l-7.313,-5.891l1.946,-7.525Z" style="fill:#7e685f;stroke:#000;stroke-width:1px;"/><path d="M68.825,16.643l7.221,5.905l-26.833,13.417l0,-10.733l19.612,-8.589" style="fill:#70574e;stroke:#000;stroke-width:1px;"/><path d="M49.213,25.232l0,10.733l-21.466,5.366l0,-16.099l21.466,0" style="fill:#70574e;stroke:#000;stroke-width:1px;"/><path d="M6.28,9.132l21.467,16.1l0,16.099l-26.833,-13.416l5.366,-18.783Z" style="fill:#54433d;stroke:#000;stroke-width:1px;"/></g></svg>