<?xml version="1.0" encoding="UTF-8" standalone="no"?><!DOCTYPE svg PUBLIC "-//W3C//DTD SVG 1.1//EN" "http://www.w3.org/Graphics/SVG/1.1/DTD/svg11.dtd"><svg width="100%" height="100%" viewBox="0 0 93 145" version="1.1" xmlns="http://www.w3.org/2000/svg" xmlns:xlink="http://www.w3.org/1999/xlink" xml:space="preserve" xmlns:serif="http://www.serif.com/" style="fill-rule:evenodd;clip-rule:evenodd;stroke-linecap:round;stroke-linejoin:round;stroke-miterlimit:1.5;"><g id="sign06"><g><path d="M52.715,6.857l0,134.164l-5.367,2.684l0,-134.164l5.367,-2.684Z" style="fill:#755639;stroke:#000;stroke-width:1px;"/><path d="M41.982,6.857l0,134.164l5.366,2.684l0,-134.164l-5.366,-2.684" style="fill:#54433d;stroke:#000;stroke-width:1px;"/><path d="M52.715,6.857l-5.367,-2.683l-5.366,2.683l5.366,2.684l5.367,-2.684" style="fill:#906f51;stroke:#000;stroke-width:1px;"/></g><g><path d="M86.923,38.859l-80.498,-34.883l0,10.733l-5.367,8.05l69.766,34.883l21.466,0l-5.367,-18.783Z" style="fill:#755639;"/><clipPath id="_clip1"><path d="M86.923,38.859l-80.498,-34.883l0,10.733l-5.367,8.05l69.766,34.883l21.466,0l-5.367,-18.783Z"/></clipPath><g clip-path="url(#_clip1)"><path d="M68.048,51.864c0,0 8.513,2.466 10.146,3.657c1.632,1.191 -0.772,3.075 -0.042,3.255c0.729,0.181 -0.22,2.593 -0.22,2.593c0,0 -0.403,1.265 -2.452,-0.154c-2.048,-1.419 -1.068,-2.252 -2.57,-4.143c-1.502,-1.891 -1.308,-3.653 -6.189,-5.862c-4.938,-2.235 -7.249,-0.806 -11.361,-4.852c-4.133,-4.067 -4.706,-5.481 -7.381,-6.963" style="fill:none;stroke:#000;stroke-width:0.5px;"/></g><path d="M86.923,38.859l-80.498,-34.883l0,10.733l-5.367,8.05l69.766,34.883l21.466,0l-5.367,-18.783Z" style="fill:none;stroke:#000;stroke-width:1px;"/><path d="M7.617,9.939c0,0 7.536,0.594 8.731,4.365c1.194,3.771 6.56,6.802 10.856,7.308c4.295,0.506 4.734,2.922 15.103,8.548c10.368,5.626 20.011,8.479 22.168,8.208c2.157,-0.272 3.697,-0.08 11.975,3.867c8.278,3.946 9.952,5.005 11.666,5.775c1.714,0.77 2.974,-0.333 2.974,-0.333" style="fill:none;stroke:#000;stroke-width:0.5px;"/><path d="M90.527,53.157c0,0 -18.457,-4.12 -19.443,-4.12c-0.986,0 -6.419,-1.725 -9.801,-3.573c-3.382,-1.848 -15.502,-6.008 -17.05,-6.484c-1.548,-0.477 -9.68,-3.865 -12.39,-5.59c-2.711,-1.725 -8.128,-5.798 -11.118,-6.164c-2.989,-0.366 -7.178,-1.967 -9.642,-4.062c-2.465,-2.094 -4.682,-4.066 -5.298,-4.312c-0.616,-0.247 -1.439,-1.174 -1.439,-1.174" style="fill:none;stroke:#000;stroke-width:0.5px;"/><path d="M15.017,20.688c0,0 -0.989,-0.986 -2.716,-2.035c-1.727,-1.049 -3.941,-1.802 -4.684,-1.92c-0.742,-0.118 0,-2.602 0,-2.602c0,0 0.296,-1.295 2.456,-0.054c2.161,1.241 1.255,2.154 2.911,3.912c1.656,1.757 1.56,3.682 6.661,5.319c5.102,1.636 7.289,0.149 11.73,3.876c4.441,3.728 4.634,5.075 7.425,6.327" style="fill:none;stroke:#000;stroke-width:0.5px;"/><path d="M56.238,30.347c0,0 0.903,1.065 2.535,2.256c1.632,1.191 3.775,2.128 4.505,2.309c0.73,0.18 -0.22,2.592 -0.22,2.592c0,0 -0.403,1.265 -2.451,-0.154c-2.049,-1.418 -1.069,-2.251 -2.571,-4.142c-1.502,-1.891 -1.308,-3.653 -6.189,-5.862c-4.938,-2.235 -7.249,-0.806 -11.361,-4.853c-4.133,-4.066 -4.189,-5.447 -6.865,-6.93" style="fill:none;stroke:#000;stroke-width:0.5px;"/><path d="M11.792,1.293l80.498,34.882l-5.367,2.684l-80.498,-34.883l5.367,-2.683Z" style="fill:#906f51;"/><clipPath id="_clip2"><path d="M11.792,1.293l80.498,34.882l-5.367,2.684l-80.498,-34.883l5.367,-2.683Z"/></clipPath><g clip-path="url(#_clip2)"><path d="M114.66,41.994c0,0 -21.369,-4.902 -22.61,-4.912c-1.241,-0.01 -8.065,-2.134 -12.305,-4.385c-4.241,-2.252 -19.46,-7.365 -21.404,-7.952c-1.945,-0.587 -12.151,-4.734 -15.547,-6.831c-3.396,-2.097 -10.177,-7.039 -13.938,-7.507c-3.76,-0.469 -9.019,-2.433 -12.101,-4.971c-3.083,-2.537 -5.856,-4.925 -6.629,-5.227c-0.773,-0.301 -1.801,-1.422 -1.801,-1.422" style="fill:none;stroke:#000;stroke-width:0.5px;"/></g><path d="M11.792,1.293l80.498,34.882l-5.367,2.684l-80.498,-34.883l5.367,-2.683Z" style="fill:none;stroke:#000;stroke-width:1px;"/><path d="M92.29,57.642l0,-21.467l-5.367,2.684l5.367,18.783Z" style="fill:#54433d;stroke:#000;stroke-width:1px;"/></g><g><g transform="matrix(0.914881,0.403723,-0.116512,1.04162,-170.122,455.653)"><text x="133.608px" y="-468.409px" style="font-family:'OldEnglishTextMT', 'Old English Text MT', cursive;font-size:18.189px;fill:#906f51;">S<tspan x="160.415px 174.648px 190.834px 199.749px " y="-468.409px -468.409px -468.409px -468.409px ">outh</tspan></text></g><g transform="matrix(0.914881,0.403723,-0.116512,1.04162,-169.925,455.176)"><text x="134.696px" y="-467.508px" style="font-family:'OldEnglishTextMT', 'Old English Text MT', cursive;font-size:18.189px;fill:#25150d;">S<tspan x="161.504px 175.737px 191.923px 200.838px " y="-467.508px -467.508px -467.508px -467.508px ">outh</tspan></text></g><g transform="matrix(0.914881,0.403723,-0.116512,1.04162,-169.688,454.57)"><text x="136.094px" y="-466.494px" style="font-family:'OldEnglishTextMT', 'Old English Text MT', cursive;font-size:18.189px;fill:#25150d;fill-opacity:0.528571;">S<tspan x="162.901px 177.134px 193.321px 202.236px " y="-466.494px -466.494px -466.494px -466.494px ">outh</tspan></text></g></g></g></svg>