<?xml version="1.0" encoding="UTF-8" standalone="no"?><!DOCTYPE svg PUBLIC "-//W3C//DTD SVG 1.1//EN" "http://www.w3.org/Graphics/SVG/1.1/DTD/svg11.dtd"><svg width="100%" height="100%" viewBox="0 0 77 54" version="1.1" xmlns="http://www.w3.org/2000/svg" xmlns:xlink="http://www.w3.org/1999/xlink" xml:space="preserve" xmlns:serif="http://www.serif.com/" style="fill-rule:evenodd;clip-rule:evenodd;stroke-linecap:round;stroke-linejoin:round;stroke-miterlimit:1.5;"><g id="rock-highlights04"><g><g><g><g><path d="M6.615,21.111l16.099,-8.05l32.2,0l16.1,8.05l-21.467,16.1l-21.466,0c0,0 -22.082,-9.395 -21.466,-9.395c0.616,0 0,-6.705 0,-6.705" style="fill:#8d9f97;stroke:#000;stroke-width:1px;"/><path d="M6.615,21.111l-5.367,2.683l0,10.734l7.312,-5.892l-1.945,-7.525Z" style="fill:#1c433d;"/><clipPath id="_clip1"><path d="M6.615,21.111l-5.367,2.683l0,10.734l7.312,-5.892l-1.945,-7.525Z"/></clipPath><g clip-path="url(#_clip1)"><path d="M76.38,39.894l-7.304,-16.801l-17.714,15.826l1.814,12.577l-4.216,2.108l-1.121,-14.308l1.708,-0.968l0,13.96l0,-13.615l-21.466,0.029l1.931,10.207l-4.725,-2.362l2.794,-9.336l-19.549,-6.325l-7.284,3.642l5.367,-6.478l0,-6.939l14.684,10.841l26.684,1.793l4.488,-3.363l-13.657,-7.922l-13.246,8.128l9.02,-10.448l-13.921,-9.492l17.368,4.707l7.463,-13.685l2.485,0.013l1.564,12.445l9.281,6.257l12.186,0.726l5.366,18.783Z" style="fill:#8d9f97;"/></g><path d="M6.615,21.111l-5.367,2.683l0,10.734l7.312,-5.892l-1.945,-7.525Z" style="fill:none;stroke:#000;stroke-width:1px;"/><path d="M8.469,28.622l-7.221,5.906l26.833,13.416l0,-10.733l-19.612,-8.589" style="fill:#1c433d;"/><clipPath id="_clip2"><path d="M8.469,28.622l-7.221,5.906l26.833,13.416l0,-10.733l-19.612,-8.589"/></clipPath><g clip-path="url(#_clip2)"><path d="M76.38,39.894l-7.304,-16.801l-17.714,15.826l1.814,12.577l-4.216,2.108l-1.121,-14.308l1.708,-0.968l0,13.96l0,-13.615l-21.466,0.029l1.931,10.207l-4.725,-2.362l2.794,-9.336l-19.549,-6.325l-7.284,3.642l5.367,-6.478l0,-6.939l14.684,10.841l26.684,1.793l4.488,-3.363l-13.657,-7.922l-13.246,8.128l9.02,-10.448l-13.921,-9.492l17.368,4.707l7.463,-13.685l2.485,0.013l1.564,12.445l9.281,6.257l12.186,0.726l5.366,18.783Z" style="fill:#8d9f97;"/></g><path d="M8.469,28.622l-7.221,5.906l26.833,13.416l0,-10.733l-19.612,-8.589" style="fill:none;stroke:#000;stroke-width:1px;"/><path d="M28.081,37.211l0,10.733l21.466,5.367l0,-16.1l-21.466,0" style="fill:#3e574e;"/><clipPath id="_clip3"><path d="M28.081,37.211l0,10.733l21.466,5.367l0,-16.1l-21.466,0"/></clipPath><g clip-path="url(#_clip3)"><path d="M76.38,39.894l-7.304,-16.801l-17.714,15.826l1.814,12.577l-4.216,2.108l-1.121,-14.308l1.708,-0.968l0,13.96l0,-13.615l-21.466,0.029l1.931,10.207l-4.725,-2.362l2.794,-9.336l-19.549,-6.325l-7.284,3.642l5.367,-6.478l0,-6.939l14.684,10.841l26.684,1.793l4.488,-3.363l-13.657,-7.922l-13.246,8.128l9.02,-10.448l-13.921,-9.492l17.368,4.707l7.463,-13.685l2.485,0.013l1.564,12.445l9.281,6.257l12.186,0.726l5.366,18.783Z" style="fill:#8d9f97;"/></g><path d="M28.081,37.211l0,10.733l21.466,5.367l0,-16.1l-21.466,0" style="fill:none;stroke:#000;stroke-width:1px;"/><path d="M71.014,21.111l-21.467,16.1l0,16.1l26.833,-13.417l-5.366,-18.783Z" style="fill:#56685f;"/><clipPath id="_clip4"><path d="M71.014,21.111l-21.467,16.1l0,16.1l26.833,-13.417l-5.366,-18.783Z"/></clipPath><g clip-path="url(#_clip4)"><path d="M76.38,39.894l-7.304,-16.801l-17.714,15.826l1.814,12.577l-4.216,2.108l-1.121,-14.308l1.708,-0.968l0,13.96l0,-13.615l-21.466,0.029l1.931,10.207l-4.725,-2.362l2.794,-9.336l-19.549,-6.325l-7.284,3.642l5.367,-6.478l0,-6.939l14.684,10.841l26.684,1.793l4.488,-3.363l-13.657,-7.922l-13.246,8.128l9.02,-10.448l-13.921,-9.492l17.368,4.707l7.463,-13.685l2.485,0.013l1.564,12.445l9.281,6.257l12.186,0.726l5.366,18.783Z" style="fill:#8d9f97;"/></g><path d="M71.014,21.111l-21.467,16.1l0,16.1l26.833,-13.417l-5.366,-18.783Z" style="fill:none;stroke:#000;stroke-width:1px;"/></g></g><g><g><path d="M29.552,1.394l18.154,0l-9.077,18.153l-18.154,-9.076l9.077,-9.077Z" style="fill:#56685f;"/><clipPath id="_clip5"><path d="M29.552,1.394l18.154,0l-9.077,18.153l-18.154,-9.076l9.077,-9.077Z"/></clipPath><g clip-path="url(#_clip5)"><path d="M76.38,39.894l-7.304,-16.801l-17.714,15.826l1.814,12.577l-4.216,2.108l-1.121,-14.308l1.708,-0.968l0,13.96l0,-13.615l-21.466,0.029l1.931,10.207l-4.725,-2.362l2.794,-9.336l-19.549,-6.325l-7.284,3.642l5.367,-6.478l0,-6.939l14.684,10.841l26.684,1.793l4.488,-3.363l-13.657,-7.922l-13.246,8.128l9.02,-10.448l-13.921,-9.492l17.368,4.707l7.463,-13.685l2.485,0.013l1.564,12.445l9.281,6.257l12.186,0.726l5.366,18.783Z" style="fill:#8d9f97;"/></g><path d="M29.552,1.394l18.154,0l-9.077,18.153l-18.154,-9.076l9.077,-9.077Z" style="fill:none;stroke:#000;stroke-width:1px;"/><path d="M47.706,1.394l4.538,11.346l0,18.153l-13.615,-11.346l9.077,-18.153Z" style="fill:#8d9f97;stroke:#000;stroke-width:1px;"/><path d="M52.244,30.893l-27.23,0l13.615,-11.346l13.615,11.346Z" style="fill:#3e574e;"/><clipPath id="_clip6"><path d="M52.244,30.893l-27.23,0l13.615,-11.346l13.615,11.346Z"/></clipPath><g clip-path="url(#_clip6)"><path d="M76.38,39.894l-7.304,-16.801l-17.714,15.826l1.814,12.577l-4.216,2.108l-1.121,-14.308l1.708,-0.968l0,13.96l0,-13.615l-21.466,0.029l1.931,10.207l-4.725,-2.362l2.794,-9.336l-19.549,-6.325l-7.284,3.642l5.367,-6.478l0,-6.939l14.684,10.841l26.684,1.793l4.488,-3.363l-13.657,-7.922l-13.246,8.128l9.02,-10.448l-13.921,-9.492l17.368,4.707l7.463,-13.685l2.485,0.013l1.564,12.445l9.281,6.257l12.186,0.726l5.366,18.783Z" style="fill:#8d9f97;"/></g><path d="M52.244,30.893l-27.23,0l13.615,-11.346l13.615,11.346Z" style="fill:none;stroke:#000;stroke-width:1px;"/><path d="M25.014,30.893l-13.616,-6.807l9.077,-13.615l18.154,9.076l-13.615,11.346Z" style="fill:#1c433d;"/><clipPath id="_clip7"><path d="M25.014,30.893l-13.616,-6.807l9.077,-13.615l18.154,9.076l-13.615,11.346Z"/></clipPath><g clip-path="url(#_clip7)"><path d="M76.38,39.894l-7.304,-16.801l-17.714,15.826l1.814,12.577l-4.216,2.108l-1.121,-14.308l1.708,-0.968l0,13.96l0,-13.615l-21.466,0.029l1.931,10.207l-4.725,-2.362l2.794,-9.336l-19.549,-6.325l-7.284,3.642l5.367,-6.478l0,-6.939l14.684,10.841l26.684,1.793l4.488,-3.363l-13.657,-7.922l-13.246,8.128l9.02,-10.448l-13.921,-9.492l17.368,4.707l7.463,-13.685l2.485,0.013l1.564,12.445l9.281,6.257l12.186,0.726l5.366,18.783Z" style="fill:#8d9f97;"/></g><path d="M25.014,30.893l-13.616,-6.807l9.077,-13.615l18.154,9.076l-13.615,11.346Z" style="fill:none;stroke:#000;stroke-width:1px;"/></g></g></g></g></g></svg>