<?xml version="1.0" encoding="UTF-8" standalone="no"?><!DOCTYPE svg PUBLIC "-//W3C//DTD SVG 1.1//EN" "http://www.w3.org/Graphics/SVG/1.1/DTD/svg11.dtd"><svg width="100%" height="100%" viewBox="0 0 77 54" version="1.1" xmlns="http://www.w3.org/2000/svg" xmlns:xlink="http://www.w3.org/1999/xlink" xml:space="preserve" xmlns:serif="http://www.serif.com/" style="fill-rule:evenodd;clip-rule:evenodd;stroke-linecap:round;stroke-linejoin:round;stroke-miterlimit:1.5;"><g id="rock04"><g><path d="M6.615,21.064l16.099,-8.049l32.2,0l16.1,8.049l-21.467,16.1l-21.466,0c0,0 -22.082,-9.395 -21.466,-9.395c0.616,0 0,-6.705 0,-6.705" style="fill:#8d9f97;stroke:#000;stroke-width:1px;"/><path d="M6.615,21.064l-5.367,2.684l0,10.733l7.312,-5.891l-1.945,-7.526Z" style="fill:#1c433d;stroke:#000;stroke-width:1px;"/><path d="M8.469,28.575l-7.221,5.906l26.833,13.416l0,-10.733l-19.612,-8.589" style="fill:#1c433d;stroke:#000;stroke-width:1px;"/><path d="M28.081,37.164l0,10.733l21.466,5.367l0,-16.1l-21.466,0" style="fill:#3e574e;stroke:#000;stroke-width:1px;"/><path d="M71.014,21.064l-21.467,16.1l0,16.1l26.833,-13.417l-5.366,-18.783Z" style="fill:#56685f;stroke:#000;stroke-width:1px;"/></g><g><path d="M29.552,1.347l18.154,0l-9.077,18.154l-18.154,-9.077l9.077,-9.077Z" style="fill:#56685f;stroke:#000;stroke-width:1px;"/><path d="M47.706,1.347l4.538,11.346l0,18.154l-13.615,-11.346l9.077,-18.154Z" style="fill:#8d9f97;stroke:#000;stroke-width:1px;"/><path d="M52.244,30.847l-27.23,0l13.615,-11.346l13.615,11.346Z" style="fill:#3e574e;stroke:#000;stroke-width:1px;"/><path d="M25.014,30.847l-13.616,-6.808l9.077,-13.615l18.154,9.077l-13.615,11.346Z" style="fill:#1c433d;stroke:#000;stroke-width:1px;"/></g></g></svg>