<?xml version="1.0" encoding="UTF-8" standalone="no"?><!DOCTYPE svg PUBLIC "-//W3C//DTD SVG 1.1//EN" "http://www.w3.org/Graphics/SVG/1.1/DTD/svg11.dtd"><svg width="100%" height="100%" viewBox="0 0 50 37" version="1.1" xmlns="http://www.w3.org/2000/svg" xmlns:xlink="http://www.w3.org/1999/xlink" xml:space="preserve" xmlns:serif="http://www.serif.com/" style="fill-rule:evenodd;clip-rule:evenodd;stroke-linecap:round;stroke-linejoin:round;stroke-miterlimit:1.5;"><g id="rock-highlights05"><g><g><path d="M22.213,1.378l21.466,0l-10.733,21.466l-21.466,-10.733l10.733,-10.733Z" style="fill:#4c805b;"/><clipPath id="_clip1"><path d="M22.213,1.378l21.466,0l-10.733,21.466l-21.466,-10.733l10.733,-10.733Z"/></clipPath><g clip-path="url(#_clip1)"><path d="M49.046,36.261l-16.1,-10.567l-16.1,10.567l12.362,-13.098l-17.728,-11.052l21.466,7.677l10.733,-18.41l-5.366,21.363l10.733,13.52Z" style="fill:#95d767;"/></g><path d="M22.213,1.378l21.466,0l-10.733,21.466l-21.466,-10.733l10.733,-10.733Z" style="fill:none;stroke:#000;stroke-width:1px;"/><path d="M43.679,1.378l5.367,13.416l0,21.467l-16.1,-13.417l10.733,-21.466Z" style="fill:#95d767;"/><clipPath id="_clip2"><path d="M43.679,1.378l5.367,13.416l0,21.467l-16.1,-13.417l10.733,-21.466Z"/></clipPath><g clip-path="url(#_clip2)"><path d="M49.046,36.261l-16.1,-10.567l-16.1,10.567l12.362,-13.098l-17.728,-11.052l21.466,7.677l10.733,-18.41l-5.366,21.363l10.733,13.52Z" style="fill:#95d767;"/></g><path d="M43.679,1.378l5.367,13.416l0,21.467l-16.1,-13.417l10.733,-21.466Z" style="fill:none;stroke:#000;stroke-width:1px;"/><path d="M49.046,36.261l-32.2,0l16.1,-13.417l16.1,13.417Z" style="fill:#3f673c;"/><clipPath id="_clip3"><path d="M49.046,36.261l-32.2,0l16.1,-13.417l16.1,13.417Z"/></clipPath><g clip-path="url(#_clip3)"><path d="M49.046,36.261l-16.1,-10.567l-16.1,10.567l12.362,-13.098l-17.728,-11.052l21.466,7.677l10.733,-18.41l-5.366,21.363l10.733,13.52Z" style="fill:#95d767;"/></g><path d="M49.046,36.261l-32.2,0l16.1,-13.417l16.1,13.417Z" style="fill:none;stroke:#000;stroke-width:1px;"/><path d="M16.846,36.261l-16.099,-8.05l10.733,-16.1l21.466,10.733l-16.1,13.417Z" style="fill:#194b49;"/><clipPath id="_clip4"><path d="M16.846,36.261l-16.099,-8.05l10.733,-16.1l21.466,10.733l-16.1,13.417Z"/></clipPath><g clip-path="url(#_clip4)"><path d="M49.046,36.261l-16.1,-10.567l-16.1,10.567l12.362,-13.098l-17.728,-11.052l21.466,7.677l10.733,-18.41l-5.366,21.363l10.733,13.52Z" style="fill:#95d767;"/></g><path d="M16.846,36.261l-16.099,-8.05l10.733,-16.1l21.466,10.733l-16.1,13.417Z" style="fill:none;stroke:#000;stroke-width:1px;"/></g></g></g></svg>