<?xml version="1.0" encoding="UTF-8" standalone="no"?><!DOCTYPE svg PUBLIC "-//W3C//DTD SVG 1.1//EN" "http://www.w3.org/Graphics/SVG/1.1/DTD/svg11.dtd"><svg width="100%" height="100%" viewBox="0 0 93 145" version="1.1" xmlns="http://www.w3.org/2000/svg" xmlns:xlink="http://www.w3.org/1999/xlink" xml:space="preserve" xmlns:serif="http://www.serif.com/" style="fill-rule:evenodd;clip-rule:evenodd;stroke-linecap:round;stroke-linejoin:round;stroke-miterlimit:1.5;"><g id="sign07"><g><path d="M52.817,6.677l0,134.164l-5.366,2.683l0,-134.164l5.366,-2.683Z" style="fill:#7e7d39;stroke:#000;stroke-width:1px;"/><path d="M42.084,6.677l0,134.164l5.367,2.683l0,-134.164l-5.367,-2.683" style="fill:#1c433d;stroke:#000;stroke-width:1px;"/><path d="M52.817,6.677l-5.366,-2.683l-5.367,2.683l5.367,2.683l5.366,-2.683" style="fill:#65883c;stroke:#000;stroke-width:1px;"/></g><g><path d="M6.528,38.678l80.498,-34.882l0,10.733l5.367,8.05l-69.766,34.882l-21.466,0l5.367,-18.783Z" style="fill:#646742;"/><clipPath id="_clip1"><path d="M6.528,38.678l80.498,-34.882l0,10.733l5.367,8.05l-69.766,34.882l-21.466,0l5.367,-18.783Z"/></clipPath><g clip-path="url(#_clip1)"><path d="M25.403,51.684c0,0 -8.514,2.466 -10.146,3.657c-1.632,1.191 0.772,3.074 0.042,3.255c-0.729,0.18 0.22,2.593 0.22,2.593c0,0 0.403,1.264 2.451,-0.154c2.049,-1.419 1.069,-2.252 2.571,-4.143c1.502,-1.891 1.308,-3.653 6.189,-5.862c4.938,-2.235 7.249,-0.806 11.361,-4.853c4.133,-4.066 4.706,-5.48 7.381,-6.963" style="fill:none;stroke:#000;stroke-width:0.5px;"/></g><path d="M6.528,38.678l80.498,-34.882l0,10.733l5.367,8.05l-69.766,34.882l-21.466,0l5.367,-18.783Z" style="fill:none;stroke:#000;stroke-width:1px;"/><path d="M85.834,9.758c0,0 -7.536,0.595 -8.731,4.366c-1.194,3.771 -6.56,6.802 -10.856,7.307c-4.295,0.506 -4.734,2.923 -15.103,8.549c-10.368,5.625 -20.011,8.479 -22.168,8.207c-2.157,-0.271 -3.697,-0.079 -11.975,3.867c-8.278,3.947 -9.952,5.006 -11.666,5.776c-1.714,0.77 -2.974,-0.334 -2.974,-0.334" style="fill:none;stroke:#000;stroke-width:0.5px;"/><path d="M2.924,52.976c0,0 18.457,-4.119 19.443,-4.119c0.986,0 6.419,-1.725 9.801,-3.573c3.382,-1.848 15.502,-6.008 17.05,-6.485c1.548,-0.476 9.68,-3.864 12.39,-5.589c2.711,-1.725 8.128,-5.799 11.118,-6.164c2.989,-0.366 7.178,-1.968 9.642,-4.062c2.464,-2.095 4.682,-4.066 5.298,-4.312c0.616,-0.247 1.439,-1.174 1.439,-1.174" style="fill:none;stroke:#000;stroke-width:0.5px;"/><path d="M78.434,20.508c0,0 0.989,-0.986 2.716,-2.035c1.727,-1.049 3.941,-1.802 4.684,-1.92c0.742,-0.119 0,-2.603 0,-2.603c0,0 -0.296,-1.294 -2.456,-0.053c-2.161,1.241 -1.255,2.154 -2.911,3.911c-1.656,1.758 -1.56,3.683 -6.661,5.319c-5.102,1.637 -7.289,0.149 -11.73,3.877c-4.441,3.727 -4.634,5.075 -7.425,6.326" style="fill:none;stroke:#000;stroke-width:0.5px;"/><path d="M37.213,30.166c0,0 -0.903,1.066 -2.535,2.257c-1.632,1.191 -3.775,2.128 -4.505,2.308c-0.73,0.181 0.22,2.593 0.22,2.593c0,0 0.403,1.265 2.451,-0.154c2.049,-1.419 1.069,-2.252 2.571,-4.143c1.502,-1.891 1.308,-3.653 6.189,-5.862c4.938,-2.235 7.248,-0.805 11.361,-4.852c4.133,-4.066 4.189,-5.448 6.865,-6.93" style="fill:none;stroke:#000;stroke-width:0.5px;"/><path d="M81.659,1.112l-80.498,34.883l5.367,2.683l80.498,-34.882l-5.367,-2.684Z" style="fill:#758e55;"/><clipPath id="_clip2"><path d="M81.659,1.112l-80.498,34.883l5.367,2.683l80.498,-34.882l-5.367,-2.684Z"/></clipPath><g clip-path="url(#_clip2)"><path d="M-21.209,41.813c0,0 21.369,-4.901 22.61,-4.911c1.241,-0.01 8.065,-2.134 12.305,-4.386c4.241,-2.251 19.46,-7.364 21.404,-7.951c1.945,-0.588 12.151,-4.735 15.547,-6.831c3.396,-2.097 10.177,-7.039 13.938,-7.508c3.76,-0.469 9.019,-2.433 12.101,-4.97c3.083,-2.538 5.856,-4.925 6.629,-5.227c0.773,-0.302 1.801,-1.422 1.801,-1.422" style="fill:none;stroke:#000;stroke-width:0.5px;"/></g><path d="M81.659,1.112l-80.498,34.883l5.367,2.683l80.498,-34.882l-5.367,-2.684Z" style="fill:none;stroke:#000;stroke-width:1px;"/><path d="M1.161,57.461l0,-21.466l5.367,2.683l-5.367,18.783Z" style="fill:#3f673c;stroke:#000;stroke-width:1px;"/></g><g><g transform="matrix(0.90543,-0.424496,-0.102766,1.15263,-76.5878,-534.237)"><text x="164.455px" y="572.529px" style="font-family:'OldEnglishTextMT', 'Old English Text MT', cursive;font-size:21.788px;fill:#65883c;">W<tspan x="199.75px 213.591px 229.395px " y="572.529px 572.529px 572.529px ">est</tspan></text></g><g transform="matrix(0.90543,-0.424496,-0.102766,1.15263,-76.4803,-533.725)"><text x="165.643px" y="572.482px" style="font-family:'OldEnglishTextMT', 'Old English Text MT', cursive;font-size:21.788px;fill:#091109;">W<tspan x="200.937px 214.778px 230.582px " y="572.482px 572.482px 572.482px ">est</tspan></text></g><g transform="matrix(0.90543,-0.424496,-0.102766,1.15263,-76.3602,-533.043)"><text x="167.167px" y="572.248px" style="font-family:'OldEnglishTextMT', 'Old English Text MT', cursive;font-size:21.788px;fill:#091109;fill-opacity:0.528571;">W<tspan x="202.461px 216.302px 232.106px " y="572.248px 572.248px 572.248px ">est</tspan></text></g></g></g></svg>