<?xml version="1.0" encoding="UTF-8" standalone="no"?><!DOCTYPE svg PUBLIC "-//W3C//DTD SVG 1.1//EN" "http://www.w3.org/Graphics/SVG/1.1/DTD/svg11.dtd"><svg width="100%" height="100%" viewBox="0 0 29 35" version="1.1" xmlns="http://www.w3.org/2000/svg" xmlns:xlink="http://www.w3.org/1999/xlink" xml:space="preserve" xmlns:serif="http://www.serif.com/" style="fill-rule:evenodd;clip-rule:evenodd;stroke-linecap:round;stroke-linejoin:round;stroke-miterlimit:1.5;"><g id="rock-highlights08"><g><g><path d="M11.448,1.396l10.733,5.366l-10.733,10.733l-5.367,-8.05l0,-5.366l5.367,-2.683" style="fill:#d08746;"/><clipPath id="_clip1"><path d="M11.448,1.396l10.733,5.366l-10.733,10.733l-5.367,-8.05l0,-5.366l5.367,-2.683"/></clipPath><g clip-path="url(#_clip1)"><path d="M23.165,8.841l-10.286,9.37l-6.798,12.701l2.656,-13.465l-2.656,-7.088l-5.367,17.869l3.91,-18.881l0.513,-4.796l17.044,2.211l0.984,2.079Z" style="fill:#d08746;"/></g><path d="M11.448,1.396l10.733,5.366l-10.733,10.733l-5.367,-8.05l0,-5.366l5.367,-2.683" style="fill:none;stroke:#000;stroke-width:1px;"/><path d="M22.181,6.762l5.366,13.417l-5.366,13.416l-16.1,-2.683l5.367,-13.417l10.733,-10.733Z" style="fill:#d0675b;"/><clipPath id="_clip2"><path d="M22.181,6.762l5.366,13.417l-5.366,13.416l-16.1,-2.683l5.367,-13.417l10.733,-10.733Z"/></clipPath><g clip-path="url(#_clip2)"><path d="M23.165,8.841l-10.286,9.37l-6.798,12.701l2.656,-13.465l-2.656,-7.088l-5.367,17.869l3.91,-18.881l0.513,-4.796l17.044,2.211l0.984,2.079Z" style="fill:#d08746;"/></g><path d="M22.181,6.762l5.366,13.417l-5.366,13.416l-16.1,-2.683l5.367,-13.417l10.733,-10.733Z" style="fill:none;stroke:#000;stroke-width:1px;"/><path d="M6.081,30.912l-5.367,-2.684l5.367,-18.783l5.367,8.05l-5.367,13.417Z" style="fill:#983c3c;"/><clipPath id="_clip3"><path d="M6.081,30.912l-5.367,-2.684l5.367,-18.783l5.367,8.05l-5.367,13.417Z"/></clipPath><g clip-path="url(#_clip3)"><path d="M23.165,8.841l-10.286,9.37l-6.798,12.701l2.656,-13.465l-2.656,-7.088l-5.367,17.869l3.91,-18.881l0.513,-4.796l17.044,2.211l0.984,2.079Z" style="fill:#d08746;"/></g><path d="M6.081,30.912l-5.367,-2.684l5.367,-18.783l5.367,8.05l-5.367,13.417Z" style="fill:none;stroke:#000;stroke-width:1px;"/><path d="M6.081,4.079l-5.367,2.683l0,21.466l5.367,-18.783l0,-5.366" style="fill:#7e3300;"/><clipPath id="_clip4"><path d="M6.081,4.079l-5.367,2.683l0,21.466l5.367,-18.783l0,-5.366"/></clipPath><g clip-path="url(#_clip4)"><path d="M23.165,8.841l-10.286,9.37l-6.798,12.701l2.656,-13.465l-2.656,-7.088l-5.367,17.869l3.91,-18.881l0.513,-4.796l17.044,2.211l0.984,2.079Z" style="fill:#d08746;"/></g><path d="M6.081,4.079l-5.367,2.683l0,21.466l5.367,-18.783l0,-5.366" style="fill:none;stroke:#000;stroke-width:1px;"/></g></g></g></svg>