<?xml version="1.0" encoding="UTF-8" standalone="no"?><!DOCTYPE svg PUBLIC "-//W3C//DTD SVG 1.1//EN" "http://www.w3.org/Graphics/SVG/1.1/DTD/svg11.dtd"><svg width="100%" height="100%" viewBox="0 0 93 64" version="1.1" xmlns="http://www.w3.org/2000/svg" xmlns:xlink="http://www.w3.org/1999/xlink" xml:space="preserve" xmlns:serif="http://www.serif.com/" style="fill-rule:evenodd;clip-rule:evenodd;stroke-linecap:round;stroke-linejoin:round;stroke-miterlimit:1.5;"><g id="trunk03"><path d="M5.781,55.817l13.684,6.842l68.424,-38.773l-9.123,-9.124l-72.985,41.055" style="fill:#d35c3c;"/><clipPath id="_clip1"><path d="M5.781,55.817l13.684,6.842l68.424,-38.773l-9.123,-9.124l-72.985,41.055"/></clipPath><g clip-path="url(#_clip1)"><path d="M-2.082,46.063l11.051,0.445l15.058,2.945l11.778,7.691l26.597,-11.392l-40.626,-29.864l-23.858,30.175Z" style="fill:#5b190f;fill-opacity:0.528571;"/></g><path d="M5.781,55.817l13.684,6.842l68.424,-38.773l-9.123,-9.124l-72.985,41.055" style="fill:none;stroke:#000;stroke-width:1px;"/><path d="M5.781,33.009l-4.562,11.404l71.542,-35.771l-19.541,0.647l-47.439,23.72Z" style="fill:#7e3300;"/><clipPath id="_clip2"><path d="M5.781,33.009l-4.562,11.404l71.542,-35.771l-19.541,0.647l-47.439,23.72Z"/></clipPath><g clip-path="url(#_clip2)"><path d="M-2.082,46.063l11.051,0.445l15.058,2.945l11.778,7.691l26.597,-11.392l-40.626,-29.864l-23.858,30.175Z" style="fill:#5b190f;fill-opacity:0.528571;"/></g><path d="M5.781,33.009l-4.562,11.404l71.542,-35.771l-19.541,0.647l-47.439,23.72Z" style="fill:none;stroke:#000;stroke-width:1px;"/><path d="M1.219,44.413l4.562,11.404l59.3,-25.089l-18.246,-9.123l-45.616,22.808" style="fill:#d97d39;"/><clipPath id="_clip3"><path d="M1.219,44.413l4.562,11.404l59.3,-25.089l-18.246,-9.123l-45.616,22.808"/></clipPath><g clip-path="url(#_clip3)"><path d="M-2.082,46.063l11.051,0.445l15.058,2.945l11.778,7.691l26.597,-11.392l-40.626,-29.864l-23.858,30.175Z" style="fill:#5b190f;fill-opacity:0.528571;"/></g><path d="M1.219,44.413l4.562,11.404l59.3,-25.089l-18.246,-9.123l-45.616,22.808" style="fill:none;stroke:#000;stroke-width:1px;"/><path d="M69.643,1.078l-63.862,31.931l13.684,2.281l63.863,-31.931l-13.685,-2.281Z" style="fill:#d35c3c;stroke:#000;stroke-width:1px;"/><path d="M83.328,3.359l9.123,4.561l-63.862,31.931l-9.124,-4.561l63.863,-31.931" style="fill:#d97d39;stroke:#000;stroke-width:1px;"/><path d="M92.451,7.92l0,9.123l-59.301,34.212l-4.561,-11.404l63.862,-31.931" style="fill:#d35c3c;stroke:#000;stroke-width:1px;"/><path d="M87.889,23.886l4.562,-6.843l-59.301,34.212l-13.685,11.404l68.424,-38.773Z" style="fill:#7e3300;stroke:#000;stroke-width:1px;"/><path d="M5.781,33.009l0,4.561l13.684,2.281l0,-4.561l-13.684,-2.281Z" style="fill:#d35c3c;stroke:#000;stroke-width:1px;"/><path d="M27.44,44.987l1.149,-5.136l-9.124,-4.561l0,4.561l7.975,5.136Z" style="fill:#d97d39;stroke:#000;stroke-width:1px;"/><path d="M33.15,51.255l-4.561,-1.201l-1.267,-5.008l1.267,-5.195l4.561,11.404" style="fill:#d35c3c;stroke:#000;stroke-width:1px;"/><path d="M28.589,50.054l-9.124,8.043l0,4.562l13.685,-11.404l-4.561,-1.201Z" style="fill:#d35c3c;stroke:#000;stroke-width:1px;"/><path d="M19.465,58.097l-12.024,-6.012l-1.66,3.732l13.684,6.842l0,-4.562Z" style="fill:#d35c3c;stroke:#000;stroke-width:1px;"/><path d="M1.219,44.413l3.505,-0.221l2.833,7.951l-1.776,3.674l-4.562,-11.404Z" style="fill:#d97d39;stroke:#000;stroke-width:1px;"/><path d="M4.724,44.192l2.564,-6.622l-1.507,-4.561l-4.562,11.404l3.505,-0.221Z" style="fill:#7e3300;stroke:#000;stroke-width:1px;"/></g></svg>