<?xml version="1.0" encoding="UTF-8" standalone="no"?><!DOCTYPE svg PUBLIC "-//W3C//DTD SVG 1.1//EN" "http://www.w3.org/Graphics/SVG/1.1/DTD/svg11.dtd"><svg width="100%" height="100%" viewBox="0 0 77 54" version="1.1" xmlns="http://www.w3.org/2000/svg" xmlns:xlink="http://www.w3.org/1999/xlink" xml:space="preserve" xmlns:serif="http://www.serif.com/" style="fill-rule:evenodd;clip-rule:evenodd;stroke-linecap:round;stroke-linejoin:round;stroke-miterlimit:1.5;"><g id="rock-runes04"><g><path d="M6.615,20.841l16.099,-8.05l32.2,0l16.1,8.05l-21.467,16.1l-21.466,0c0,0 -22.082,-9.395 -21.466,-9.395c0.616,0 0,-6.705 0,-6.705" style="fill:#aadadf;stroke:#000;stroke-width:1px;"/><path d="M6.615,20.841l-5.367,2.683l0,10.734l7.312,-5.892l-1.945,-7.525Z" style="fill:#007e9b;stroke:#000;stroke-width:1px;"/><path d="M8.469,28.352l-7.221,5.906l26.833,13.416l0,-10.733l-19.612,-8.589" style="fill:#007e9b;stroke:#000;stroke-width:1px;"/><path d="M28.081,36.941l0,10.733l21.466,5.367l0,-16.1l-21.466,0" style="fill:#0098a3;stroke:#000;stroke-width:1px;"/><path d="M71.014,20.841l-21.467,16.1l0,16.1l26.833,-13.417l-5.366,-18.783Z" style="fill:#8efaf0;stroke:#000;stroke-width:1px;"/></g><g><path d="M29.552,1.124l18.154,0l-9.077,18.153l-18.154,-9.076l9.077,-9.077Z" style="fill:#8efaf0;stroke:#000;stroke-width:1px;"/><path d="M47.706,1.124l4.538,11.346l0,18.153l-13.615,-11.346l9.077,-18.153Z" style="fill:#aadadf;stroke:#000;stroke-width:1px;"/><path d="M52.244,30.623l-27.23,0l13.615,-11.346l13.615,11.346Z" style="fill:#0098a3;stroke:#000;stroke-width:1px;"/><path d="M25.014,30.623l-13.616,-6.807l9.077,-13.615l18.154,9.076l-13.615,11.346Z" style="fill:#007e9b;stroke:#000;stroke-width:1px;"/></g><path d="M76.38,39.258l-6.161,-10.423l-7.968,5.097l4.788,-10.078l-12.125,-6.063l0,10.733l2.53,-1.264l0.265,-5.5l6.552,3.917l-5.356,10.21l-9.358,6.054l-10.733,-1.836l-4.862,4.771l-5.871,-5.058l-6.172,1.795l-15.294,-11.199l0,-9.332l-3.944,1.365l1.766,9.849l17.347,11.863l6.297,-0.536l7.538,3.804l3.195,-4.738l3.84,5.312l2.336,1.585l-0.809,-1.944l-2.316,-3.445l7.682,-0.359l20.057,-11.926l3.834,8.817l2.942,-1.471Z" style="fill:#12365f;fill-opacity:0.7;"/><path d="M51.902,30.03l-2.355,-18.279l-8.831,8.973l1.93,1.667l5.716,-6.69l0.466,11.986l-7.323,-0.501l-2.691,-3.448l0,-4.522l3.209,-13.237l-6.906,-1.12l-7.036,4.882l-3.66,2.512l-1.707,10.905l3.338,3.698l1.234,-0.618l-1.07,-2.643l-0.431,-1.077l0.646,-9.475l8.765,-5.111l3.618,0.947l-2.118,9.619l-4.235,2.728l1.803,1.524l3.015,-1.508l0.005,3.834l2.284,2.969l12.334,1.985Z" style="fill:#12365f;fill-opacity:0.7;"/></g></svg>