<?xml version="1.0" encoding="UTF-8" standalone="no"?><!DOCTYPE svg PUBLIC "-//W3C//DTD SVG 1.1//EN" "http://www.w3.org/Graphics/SVG/1.1/DTD/svg11.dtd"><svg width="100%" height="100%" viewBox="0 0 216 110" version="1.1" xmlns="http://www.w3.org/2000/svg" xmlns:xlink="http://www.w3.org/1999/xlink" xml:space="preserve" xmlns:serif="http://www.serif.com/" style="fill-rule:evenodd;clip-rule:evenodd;stroke-linecap:round;stroke-linejoin:round;stroke-miterlimit:1.5;"><g id="selector03"><path d="M204.653,55.064l-96.598,48.299l-96.598,-48.299l96.598,-48.299l96.598,48.299l-10.733,0l-85.865,-42.932l-85.865,42.932l85.865,42.933l85.865,-42.933l10.733,0Z" style="fill:#d7b850;"/><path d="M108.055,1.399l107.331,53.665l-107.331,53.666l-107.331,-53.666l107.331,-53.665" style="fill:none;stroke:#eef16a;stroke-width:1px;"/><path d="M97.322,17.498l10.733,-5.366l10.733,5.366l-5.366,2.684l0,21.466l-5.367,8.05l-5.366,-8.05l0,-21.466l-5.367,-2.684" style="fill:#d7b850;"/><path d="M97.322,92.63l10.733,5.367l10.733,-5.367l-5.366,-2.683l0,-21.466l-5.367,-8.05l-5.366,8.05l0,21.466l-5.367,2.683" style="fill:#d7b850;"/><path d="M118.788,55.064l10.733,-5.366l42.933,0l5.366,-2.683l16.1,8.049l-16.1,8.05l-5.366,-2.683l-42.933,0l-10.733,-5.367" style="fill:#d7b850;"/><path d="M97.322,55.064l-10.733,-5.366l-42.933,0l-5.366,-2.683l-16.1,8.049l16.1,8.05l5.366,-2.683l42.933,0l10.733,-5.367" style="fill:#d7b850;"/></g></svg>