<?xml version="1.0" encoding="UTF-8" standalone="no"?><!DOCTYPE svg PUBLIC "-//W3C//DTD SVG 1.1//EN" "http://www.w3.org/Graphics/SVG/1.1/DTD/svg11.dtd"><svg width="100%" height="100%" viewBox="0 0 216 208" version="1.1" xmlns="http://www.w3.org/2000/svg" xmlns:xlink="http://www.w3.org/1999/xlink" xml:space="preserve" xmlns:serif="http://www.serif.com/" style="fill-rule:evenodd;clip-rule:evenodd;stroke-linecap:round;stroke-linejoin:round;stroke-miterlimit:1.5;"><g id="Dirt_Block18"><g id="Dirt_Block19"><g><g><path d="M215.379,56.452l0,96.598l-107.331,53.665l0,-96.598l107.331,-53.665Z" style="fill:#b09255;"/><clipPath id="_clip1"><path d="M215.379,56.452l0,96.598l-107.331,53.665l0,-96.598l107.331,-53.665Z"/></clipPath><g clip-path="url(#_clip1)"><path d="M113.576,237.606l-7.471,-8.393l0.629,-15.381l4.861,-8.364l7.639,3.248l3.734,6.804l0.66,10.713l-10.052,11.373" style="fill:#e1c080;stroke:#000;stroke-width:1px;"/><path d="M137.116,207.322l6.48,-6.063l-3.057,-12.564l-8.623,-2.464l-7.622,-1.443l-2.977,3.95l-3.5,-1.488l-5.378,1.085l-1.634,4.32l5.651,4.448l4.24,3.091l7.817,4.703l8.603,2.425Z" style="fill:#e1c080;stroke:#000;stroke-width:1px;"/><path d="M174.103,213.627l7.62,-4.416l4.724,-10.592l-3.045,-9.558l-19.233,-2.964l-6.432,7.697l-1.006,7.709l6.329,7.428l11.043,4.696Z" style="fill:#e1c080;stroke:#000;stroke-width:1px;"/><path d="M195.879,177.166l8.068,-10.664l-1.706,-5.942l-8.575,-19.295c0,0 -7.897,5.941 -10.383,6.017c-2.485,0.077 -7.683,4.452 -7.683,4.452l3.152,9.269l8.6,6.112l8.527,10.051Z" style="fill:#e1c080;stroke:#000;stroke-width:1px;"/><path d="M147.776,181.839l10.639,-1.858l10.285,-7.605l-2.017,-7.625l-4.768,-5.692l-7.68,1.95l-4.984,5.388l-3.648,6.589l2.173,8.853" style="fill:#e1c080;stroke:#000;stroke-width:1px;"/><path d="M206.588,209.353l-9.119,-6.382l-10.414,5.505l-4.461,14.856l14.945,3.037l6.387,-5.87l2.662,-11.146" style="fill:#e1c080;stroke:#000;stroke-width:1px;"/><path d="M118.942,151.541l-7.47,-8.393l0.628,-15.381l4.862,-8.364l7.638,3.248l3.735,6.804l0.66,10.713l-10.053,11.373" style="fill:#e1c080;stroke:#000;stroke-width:1px;"/><path d="M131.361,170.073l-9.714,-5.467l1.146,-6.211l5.192,-3.009l4.056,1.726l4.47,4.429l-0.085,5.597l-5.065,2.935Z" style="fill:#816b40;stroke:#000;stroke-width:1px;"/><path d="M161.644,146.478l-5.042,5.43l-10.806,-0.848l-2.237,-4.699l-1.606,-8.155l10.344,-11.541l3.07,5.211l5.436,0.955l2.991,10.126l-2.15,3.521" style="fill:#816b40;stroke:#000;stroke-width:1px;"/><path d="M147.464,123.458l6.479,-6.062l-3.056,-12.565l-8.623,-2.464l-7.623,-1.443l-2.976,3.95l-3.5,-1.488l-5.379,1.086l-1.633,4.319l5.65,4.448l4.241,3.091l7.816,4.704l8.604,2.424Z" style="fill:#e1c080;stroke:#000;stroke-width:1px;"/><path d="M176.202,135.072l7.62,-4.415l4.724,-10.593l-3.045,-9.558l-19.234,-2.963l-6.431,7.697l-1.006,7.708l6.329,7.428l11.043,4.696Z" style="fill:#e1c080;stroke:#000;stroke-width:1px;"/><path d="M203.886,100.929l8.069,-10.665l-1.707,-5.941l-8.574,-19.295c0,0 -7.897,5.94 -10.383,6.017c-2.486,0.076 -7.683,4.452 -7.683,4.452l3.152,9.269l8.6,6.112l8.526,10.051Z" style="fill:#e1c080;stroke:#000;stroke-width:1px;"/><path d="M156.889,105.02l10.639,-1.857l10.285,-7.605l-2.017,-7.626l-4.768,-5.692l-7.679,1.95l-4.985,5.389l-3.648,6.588l2.173,8.853" style="fill:#816b40;stroke:#000;stroke-width:1px;"/><path d="M211.955,123.288l-9.119,-6.382l-10.415,5.505l-4.461,14.856l14.945,3.037l6.388,-5.87l2.662,-11.146" style="fill:#816b40;stroke:#000;stroke-width:1px;"/><path d="M129.418,174.928l-9.713,-5.467l1.146,-6.212l5.191,-3.008l4.056,1.725l4.471,4.429l-0.085,5.597l-5.066,2.936Zm30.284,-23.595l-5.043,5.43l-10.805,-0.849l-2.238,-4.698l-1.605,-8.155l10.343,-11.542l3.071,5.211l5.435,0.956l2.991,10.126l-2.149,3.521Zm50.31,-23.19l-2.662,11.146l-6.387,5.869l-14.945,-3.037l4.461,-14.855l10.414,-5.505l9.119,6.382Zm-55.065,-18.268l10.639,-1.857l10.284,-7.606l-2.016,-7.625l-4.769,-5.692l-7.679,1.95l-4.985,5.388l-3.648,6.589l2.174,8.853Z" style="fill:#0a0500;fill-opacity:0.3;"/><path d="M134.174,212.028l6.479,-6.063l-3.056,-12.564l-8.623,-2.464l-7.622,-1.443l-2.977,3.95l-3.5,-1.488l-5.378,1.085l-1.634,4.32l5.651,4.448l4.24,3.091l7.816,4.703l8.604,2.425Zm10.659,-25.483l10.639,-1.858l10.285,-7.605l-2.016,-7.625l-4.769,-5.692l-7.679,1.95l-4.985,5.388l-3.648,6.589l2.173,8.853Zm48.103,-4.673l8.069,-10.664l-1.707,-5.942l-8.574,-19.294c0,0 -7.897,5.94 -10.383,6.016c-2.486,0.077 -7.683,4.452 -7.683,4.452l3.152,9.269l8.599,6.112l8.527,10.051Zm-76.936,-25.625l-7.471,-8.393l0.629,-15.381l4.861,-8.364l7.639,3.248l3.734,6.804l0.66,10.713l-10.052,11.373Zm57.259,-16.469l7.621,-4.415l4.723,-10.593l-3.045,-9.558l-19.233,-2.963l-6.432,7.697l-1.006,7.708l6.329,7.428l11.043,4.696Zm-28.738,-11.614l6.48,-6.062l-3.057,-12.565l-8.623,-2.464l-7.622,-1.443l-2.977,3.95l-3.5,-1.488l-5.378,1.086l-1.634,4.319l5.651,4.448l4.24,3.091l7.816,4.704l8.604,2.424Zm56.423,-22.529l8.068,-10.665l-1.706,-5.941l-8.575,-19.295c0,0 -7.897,5.94 -10.383,6.017c-2.486,0.076 -7.683,4.452 -7.683,4.452l3.152,9.269l8.6,6.112l8.527,10.051Z" style="fill:#9b712c;fill-opacity:0.5;"/></g><path d="M215.379,56.452l0,96.598l-107.331,53.665l0,-96.598l107.331,-53.665Z" style="fill:none;stroke:#000;stroke-width:1px;"/></g><path d="M0.716,56.452l107.332,53.665l0,96.598l-107.332,-53.665l0,-96.598" style="fill:#685632;"/><clipPath id="_clip2"><path d="M0.716,56.452l107.332,53.665l0,96.598l-107.332,-53.665l0,-96.598"/></clipPath><g clip-path="url(#_clip2)"><path d="M6.209,228.428l-7.471,-8.946l0.629,-16.393l4.861,-8.916l7.639,3.462l3.734,7.253l0.66,11.418l-10.052,12.122" style="fill:#816b40;stroke:#000;stroke-width:1px;"/><path d="M48.911,223.032l-5.042,5.788l-10.806,-0.905l-2.238,-5.007l-1.605,-8.693l10.343,-12.302l3.071,5.555l5.436,1.018l2.99,10.793l-2.149,3.753" style="fill:#816b40;stroke:#000;stroke-width:1px;"/><path d="M29.749,196.149l6.48,-6.462l-3.056,-13.392l-8.623,-2.626l-7.623,-1.538l-2.976,4.211l-3.5,-1.587l-5.379,1.157l-1.634,4.604l5.651,4.741l4.24,3.294l7.817,5.014l8.603,2.584Z" style="fill:#816b40;stroke:#000;stroke-width:1px;"/><path d="M66.736,202.869l7.62,-4.706l4.724,-11.29l-3.045,-10.188l-19.233,-3.158l-6.432,8.204l-1.006,8.216l6.329,7.917l11.043,5.005Z" style="fill:#b09255;stroke:#000;stroke-width:1px;"/><path d="M88.744,171.654l8.069,-11.367l-1.707,-6.333l-8.574,-20.565c0,0 -7.897,6.331 -10.383,6.413c-2.486,0.081 -7.683,4.745 -7.683,4.745l3.152,9.88l8.6,6.514l8.526,10.713Z" style="fill:#816b40;stroke:#000;stroke-width:1px;"/><path d="M40.409,168.987l10.639,-1.979l10.285,-8.106l-2.017,-8.128l-4.768,-6.067l-7.679,2.079l-4.985,5.743l-3.648,7.023l2.173,9.435" style="fill:#816b40;stroke:#000;stroke-width:1px;"/><path d="M106.408,186.232l-9.093,-6.349l-10.433,5.55l-4.516,14.885l14.93,2.979l6.408,-5.9l2.704,-11.165" style="fill:#816b40;stroke:#000;stroke-width:1px;"/><path d="M11.575,136.694l-7.47,-8.946l0.628,-16.393l4.862,-8.916l7.638,3.462l3.735,7.253l0.66,11.418l-10.053,12.122" style="fill:#b09255;stroke:#000;stroke-width:1px;"/><path d="M23.994,156.447l-9.713,-5.827l1.145,-6.621l5.192,-3.206l4.056,1.839l4.47,4.721l-0.084,5.965l-5.066,3.129Z" style="fill:#b09255;stroke:#000;stroke-width:1px;"/><path d="M47.726,135.441l-5.042,5.788l-10.806,-0.905l-2.238,-5.007l-1.605,-8.693l10.344,-12.302l3.07,5.555l5.436,1.018l2.991,10.793l-2.15,3.753" style="fill:#816b40;stroke:#000;stroke-width:1px;"/><path d="M17.424,98.835l9.013,-1.578l5.176,-12.725l-5.559,-7.096l-5.363,-5.63l-4.853,1.742l-1.958,-3.307l-5.069,-2.136l-3.979,2.836l1.911,7.124l1.585,5.13l3.529,8.589l5.567,7.051Z" style="fill:#816b40;stroke:#000;stroke-width:1px;"/><path d="M58.137,117.403l7.621,-4.707l4.724,-11.29l-3.045,-10.188l-19.234,-3.158l-6.432,8.204l-1.006,8.216l6.329,7.917l11.043,5.006Z" style="fill:#b09255;stroke:#000;stroke-width:1px;"/><path d="M93.878,72.273l8.069,-11.367l-1.706,-6.333l-8.575,-20.565c0,0 -7.897,6.331 -10.383,6.413c-2.486,0.081 -7.683,4.745 -7.683,4.745l3.152,9.88l8.6,6.514l8.526,10.713Z" style="fill:#816b40;stroke:#000;stroke-width:1px;"/><path d="M45.776,77.253l10.639,-1.979l10.284,-8.106l-2.016,-8.128l-4.769,-6.067l-7.679,2.079l-4.985,5.743l-3.647,7.023l2.173,9.435" style="fill:#816b40;stroke:#000;stroke-width:1px;"/><path d="M97.315,110.053l-9.12,-6.802l-10.414,5.867l-4.461,15.835l14.945,3.237l6.387,-6.256l2.663,-11.881" style="fill:#816b40;stroke:#000;stroke-width:1px;"/><path d="M14.901,249.183l-9.714,-5.827l1.146,-6.621l5.191,-3.206l4.057,1.838l4.47,4.721l-0.085,5.966l-5.065,3.129Zm30.283,-25.149l-5.042,5.788l-10.806,-0.905l-2.238,-5.008l-1.605,-8.692l10.344,-12.302l3.07,5.555l5.436,1.018l2.991,10.793l-2.15,3.753Zm-42.702,5.396l-7.471,-8.946l0.629,-16.394l4.861,-8.915l7.639,3.462l3.734,7.253l0.661,11.418l-10.053,12.122Zm100.199,-42.196l-2.704,11.165l-6.408,5.9l-14.93,-2.979l4.516,-14.885l10.433,-5.551l9.093,6.35Zm-39.672,16.637l7.621,-4.707l4.724,-11.29l-3.045,-10.187l-19.234,-3.158l-6.431,8.203l-1.006,8.217l6.329,7.917l11.042,5.005Zm-36.986,-6.72l6.48,-6.462l-3.057,-13.392l-8.623,-2.626l-7.622,-1.538l-2.977,4.21l-3.5,-1.586l-5.378,1.157l-1.634,4.604l5.651,4.741l4.24,3.294l7.816,5.014l8.604,2.584Zm58.995,-24.495l8.068,-11.367l-1.706,-6.333l-8.575,-20.565c0,0 -7.897,6.331 -10.383,6.412c-2.485,0.082 -7.683,4.746 -7.683,4.746l3.152,9.879l8.6,6.515l8.527,10.713Zm-48.336,-2.667l10.639,-1.979l10.285,-8.106l-2.016,-8.128l-4.769,-6.067l-7.679,2.079l-4.985,5.743l-3.648,7.022l2.173,9.436Zm-16.415,-12.54l-9.713,-5.827l1.146,-6.621l5.191,-3.206l4.056,1.838l4.471,4.721l-0.085,5.966l-5.066,3.129Zm23.732,-21.006l-5.042,5.788l-10.805,-0.905l-2.238,-5.008l-1.605,-8.692l10.343,-12.302l3.071,5.555l5.435,1.018l2.991,10.793l-2.15,3.753Zm-36.15,1.253l-7.471,-8.946l0.629,-16.394l4.861,-8.915l7.639,3.462l3.734,7.252l0.66,11.419l-10.052,12.122Zm85.739,-26.641l-2.662,11.88l-6.388,6.256l-14.945,-3.236l4.461,-15.835l10.415,-5.867l9.119,6.802Zm-39.177,7.349l7.62,-4.706l4.724,-11.29l-3.045,-10.188l-19.234,-3.158l-6.431,8.204l-1.006,8.216l6.329,7.917l11.043,5.005Zm-40.714,-18.567l9.014,-1.578l5.175,-12.725l-5.559,-7.096l-5.363,-5.631l-4.853,1.743l-1.957,-3.307l-5.07,-2.136l-3.979,2.835l1.911,7.125l1.585,5.13l3.529,8.589l5.567,7.051Zm28.352,-21.582l10.639,-1.979l10.285,-8.106l-2.017,-8.128l-4.768,-6.067l-7.679,2.079l-4.985,5.743l-3.648,7.022l2.173,9.436Zm48.103,-4.98l8.069,-11.367l-1.707,-6.333l-8.575,-20.565c0,0 -7.897,6.331 -10.383,6.412c-2.485,0.082 -7.683,4.746 -7.683,4.746l3.152,9.879l8.6,6.515l8.527,10.713Z" style="fill:#0a0500;fill-opacity:0.3;"/></g><path d="M0.716,56.452l107.332,53.665l0,96.598l-107.332,-53.665l0,-96.598" style="fill:none;stroke:#000;stroke-width:1px;"/></g><path d="M215.379,56.452l-107.331,53.665l-107.332,-53.665l107.332,-53.666l107.331,53.666Z" style="fill:#c7a664;"/><clipPath id="_clip3"><path d="M215.379,56.452l-107.331,53.665l-107.332,-53.665l107.332,-53.666l107.331,53.666Z"/></clipPath><g clip-path="url(#_clip3)"><path d="M-11.312,89.341c0,0 25.753,-7.572 44.228,-16.79c10.716,-5.347 10.435,-12.284 12.301,-17.627c6.806,-19.49 22.136,-14.676 56.519,-21.33c14.621,-2.83 30.458,-10.551 38.511,-14.708c16.652,-8.596 35.774,-8.946 35.774,-8.946l-153.846,-33.017l-67.966,77.833l34.479,34.585Z" style="fill:#b09255;"/><path d="M183.18,40.352c-1.621,2.35 -41.14,4.125 -39.943,23.447c0.692,11.186 -13.275,6.448 -46.624,17.141c-3.267,1.047 -10.018,7.712 -20.765,13.078c-26.493,13.227 -64.206,12.397 -64.206,12.397l153.224,35.789l73.088,-90.565l-54.774,-11.287Z" style="fill:#b09255;"/></g><path d="M215.379,56.452l-107.331,53.665l-107.332,-53.665l107.332,-53.666l107.331,53.666Z" style="fill:none;stroke:#000;stroke-width:1px;"/><g><g><path d="M193.913,56.452l8.162,-4.082l-0.518,-8.196l-9.044,-3.122l-7.158,-4.979l-10.549,-2.268l-10.545,10.64l4.09,8.688l9.462,6.002l16.1,-2.683Z" style="fill:#b09255;stroke:#000;stroke-width:1px;"/><path d="M145.614,28.346l14.664,1.99l-5.999,20.445l-12.296,-0.564l-9.122,2.542l-2.035,-6.384l-10.081,-7.005l3.402,-9.358l5.367,-4.479l10.733,0.13l5.367,2.683Z" style="fill:#b09255;stroke:#000;stroke-width:1px;"/><path d="M120.745,19.868l14.135,-0.172l9.298,2.591l3.036,-1.518l3.766,-1.883l-2.821,-3.956l-2.545,-4.094l-6.616,-0.487l-4.118,-2.058l-5.366,-0.138l-12.169,0.717l-0.532,2.274l0.175,6.845l3.757,1.879Z" style="fill:#b09255;stroke:#000;stroke-width:1px;"/><path d="M89.296,4.143l10.99,-2.842l6.618,4.549l5.099,5.691l-3.955,4.218l-10.733,3.127l-10.734,3.66l-7.91,3.118l0.735,-4.999l-3.558,-1.779l-1.788,-4.473l1.788,-2.862l13.448,-7.408" style="fill:#b09255;stroke:#000;stroke-width:1px;"/><path d="M98.394,33.444l-8.543,3.192l-8.636,7.001l7.698,7.955l6.216,1.685l4.098,5.504l7.41,-1.624l1.411,-9.774l2.455,-7.885l-6.251,-5.961l-5.858,-0.093Z" style="fill:#b09255;stroke:#000;stroke-width:1px;"/><path d="M49.015,26.936l13.211,1.238l10.168,8.538l-3.293,7.014l-5.008,5.187l-15.078,-0.511l-8.504,4.252l-3.968,-8.749l0.46,-5.597l3.623,-4.834l8.389,-6.538Z" style="fill:#b09255;stroke:#000;stroke-width:1px;"/><path d="M68.177,63.349l15.078,0.133l11.774,7.927l-6.219,5.395l-6.229,3.114l-16.5,-1.517l-6.332,2.2l-1.976,-6.354l-12.428,-4.186l-2.784,-6.112l2.786,-2.98l5.914,-0.711l3.121,1.56l13.795,1.531" style="fill:#b09255;stroke:#000;stroke-width:1px;"/><path d="M14.308,44.366c1.868,0.206 16.057,6.73 16.057,6.73l6.708,10.036l-10.733,4.051l-6.868,-5.059l-9.232,-2.991c0,0 2.201,-12.972 4.068,-12.767Z" style="fill:#b09255;stroke:#000;stroke-width:1px;"/><path d="M120.574,60.23l-8.114,8.245l-0.779,11.123l7.715,2.942l12.603,-0.498l7.551,-6.957l4.782,-8.343l-8.837,-3.206l-8.82,-2.168l-6.101,-1.138" style="fill:#b09255;stroke:#000;stroke-width:1px;"/><path d="M162.967,58.383l-4.035,4.826l-3.813,11.412l9.177,4.588l8.15,-4.808l5.367,-6.652l-10.733,-3.247l0,-2.182l-1.741,-2.315l-2.372,-1.622Z" style="fill:#b09255;stroke:#000;stroke-width:1px;"/><path d="M93.8,83.101l-4.634,4.876l0,5.889l9.703,6.295l10.622,3.868l3.426,-6.438l0,-10.177l-19.117,-4.313Z" style="fill:#b09255;stroke:#000;stroke-width:1px;"/></g><g><g opacity="0.5"><path d="M190.436,61.08l8.162,-4.081l-0.517,-8.196l-9.045,-3.123l-7.158,-4.979l-10.548,-2.267l-10.546,10.639l4.09,8.688l9.462,6.002l16.1,-2.683Z" style="fill:#9b712c;"/><path d="M142.137,32.975l14.664,1.99l-5.999,20.445l-12.295,-0.565l-9.123,2.542l-2.034,-6.384l-10.081,-7.005l3.402,-9.357l5.366,-4.48l10.733,0.13l5.367,2.684Z" style="fill:#9b712c;"/><path d="M117.269,24.496l14.135,-0.172l9.298,2.591l3.035,-1.518l3.766,-1.883l-2.821,-3.956l-2.545,-4.094l-6.616,-0.486l-4.117,-2.059l-5.367,-0.138l-12.168,0.717l-0.532,2.274l0.174,6.846l3.758,1.878Z" style="fill:#9b712c;"/><path d="M85.819,8.772l10.99,-2.843l6.618,4.549l5.1,5.691l-3.956,4.218l-10.733,3.127l-10.733,3.661l-7.91,3.117l0.735,-4.999l-5.448,-3.724l5.366,-2.683l-1.788,-6.261l11.759,-3.853" style="fill:#9b712c;"/><path d="M94.918,38.072l-8.543,3.192l-8.637,7.001l7.698,7.955l6.216,1.686l4.098,5.503l7.41,-1.624l1.411,-9.773l2.455,-7.886l-6.25,-5.96l-5.858,-0.094Z" style="fill:#9b712c;"/><path d="M45.539,31.564l13.21,1.238l10.169,8.539l-3.294,7.013l-5.008,5.187l-15.077,-0.511l-8.505,4.252l-3.967,-8.749l0.459,-5.596l3.624,-4.835l8.389,-6.538Z" style="fill:#9b712c;"/><path d="M64.7,67.977l15.078,0.133l11.775,7.927l-6.22,5.395l-6.228,3.114l-16.501,-1.517l-6.332,2.2l-1.975,-6.354l-12.428,-4.186l-2.785,-6.112l2.786,-2.98l5.915,-0.711l3.12,1.56l13.795,1.531" style="fill:#9b712c;"/><path d="M11.449,50.64c1.868,0.206 15.439,5.084 15.439,5.084l6.709,10.037l-10.734,4.05l-6.867,-5.059l-9.232,-2.991c0,0 2.818,-11.326 4.685,-11.121Z" style="fill:#9b712c;"/><path d="M117.098,64.859l-8.114,8.245l-0.779,11.122l7.714,2.943l12.603,-0.499l7.551,-6.957l4.782,-8.342l-8.836,-3.207l-8.821,-2.168l-6.1,-1.137" style="fill:#9b712c;"/><path d="M159.49,63.011l-4.035,4.826l-3.812,11.412l9.176,4.588l8.151,-4.808l5.366,-6.651l-10.733,-3.248l0,-2.182l-1.741,-2.314l-2.372,-1.623Z" style="fill:#9b712c;"/><path d="M90.323,87.73l-4.634,4.875l0,5.89l9.973,5.429l10.352,4.733l3.427,-6.437l0,-10.178l-19.118,-4.312Z" style="fill:#9b712c;"/></g></g></g></g></g></svg>