<?xml version="1.0" encoding="UTF-8" standalone="no"?><!DOCTYPE svg PUBLIC "-//W3C//DTD SVG 1.1//EN" "http://www.w3.org/Graphics/SVG/1.1/DTD/svg11.dtd"><svg width="100%" height="100%" viewBox="0 0 216 205" version="1.1" xmlns="http://www.w3.org/2000/svg" xmlns:xlink="http://www.w3.org/1999/xlink" xml:space="preserve" xmlns:serif="http://www.serif.com/" style="fill-rule:evenodd;clip-rule:evenodd;stroke-linecap:round;stroke-linejoin:round;stroke-miterlimit:1.5;"><g id="Dirt_Block17"><g id="Dirt_Block19"><g><g><path d="M215.425,54.142l0,96.598l-107.332,53.666l0,-96.598l107.332,-53.666Z" style="fill:#b3a890;"/><clipPath id="_clip1"><path d="M215.425,54.142l0,96.598l-107.332,53.666l0,-96.598l107.332,-53.666Z"/></clipPath><g clip-path="url(#_clip1)"><path d="M113.622,235.297l-7.471,-8.393l0.629,-15.381l4.861,-8.365l7.639,3.249l3.734,6.804l0.66,10.713l-10.052,11.373" style="fill:#ccc3b0;stroke:#000;stroke-width:1px;"/><path d="M137.162,205.012l6.48,-6.062l-3.057,-12.565l-8.623,-2.463l-7.622,-1.443l-2.977,3.95l-3.5,-1.488l-5.378,1.085l-1.634,4.32l5.651,4.448l4.24,3.09l7.816,4.704l8.604,2.424Z" style="fill:#ccc3b0;stroke:#000;stroke-width:1px;"/><path d="M174.149,211.317l7.62,-4.415l4.724,-10.593l-3.045,-9.558l-19.234,-2.963l-6.431,7.697l-1.006,7.708l6.329,7.428l11.043,4.696Z" style="fill:#ccc3b0;stroke:#000;stroke-width:1px;"/><path d="M195.925,174.857l8.068,-10.664l-1.706,-5.942l-8.575,-19.295c0,0 -7.897,5.94 -10.383,6.017c-2.486,0.076 -7.683,4.452 -7.683,4.452l3.152,9.269l8.6,6.112l8.527,10.051Z" style="fill:#ccc3b0;stroke:#000;stroke-width:1px;"/><path d="M147.822,179.529l10.639,-1.857l10.285,-7.605l-2.017,-7.626l-4.768,-5.692l-7.68,1.951l-4.984,5.388l-3.648,6.589l2.173,8.852" style="fill:#ccc3b0;stroke:#000;stroke-width:1px;"/><path d="M206.634,207.044l-9.119,-6.382l-10.414,5.505l-4.462,14.856l14.946,3.036l6.387,-5.869l2.662,-11.146" style="fill:#ccc3b0;stroke:#000;stroke-width:1px;"/><path d="M118.988,149.232l-7.471,-8.393l0.629,-15.381l4.861,-8.365l7.639,3.249l3.734,6.804l0.661,10.713l-10.053,11.373" style="fill:#ccc3b0;stroke:#000;stroke-width:1px;"/><path d="M131.407,167.764l-9.714,-5.467l1.146,-6.212l5.191,-3.008l4.057,1.725l4.47,4.429l-0.085,5.597l-5.065,2.936Z" style="fill:#7e7260;stroke:#000;stroke-width:1px;"/><path d="M161.69,144.169l-5.042,5.43l-10.806,-0.849l-2.238,-4.698l-1.605,-8.155l10.344,-11.542l3.07,5.211l5.436,0.956l2.991,10.126l-2.15,3.521" style="fill:#7e7260;stroke:#000;stroke-width:1px;"/><path d="M147.509,121.148l6.48,-6.062l-3.056,-12.564l-8.623,-2.464l-7.623,-1.443l-2.976,3.95l-3.5,-1.488l-5.379,1.085l-1.634,4.32l5.651,4.448l4.24,3.09l7.817,4.704l8.603,2.424Z" style="fill:#ccc3b0;stroke:#000;stroke-width:1px;"/><path d="M176.248,132.763l7.62,-4.416l4.724,-10.592l-3.045,-9.558l-19.234,-2.963l-6.431,7.697l-1.006,7.708l6.329,7.428l11.043,4.696Z" style="fill:#ccc3b0;stroke:#000;stroke-width:1px;"/><path d="M203.932,98.62l8.069,-10.665l-1.707,-5.942l-8.575,-19.294c0,0 -7.896,5.94 -10.382,6.016c-2.486,0.077 -7.683,4.453 -7.683,4.453l3.152,9.268l8.599,6.112l8.527,10.052Z" style="fill:#ccc3b0;stroke:#000;stroke-width:1px;"/><path d="M156.935,102.711l10.639,-1.857l10.285,-7.606l-2.017,-7.625l-4.768,-5.692l-7.679,1.95l-4.985,5.388l-3.648,6.589l2.173,8.853" style="fill:#7e7260;stroke:#000;stroke-width:1px;"/><path d="M212.001,120.979l-9.12,-6.382l-10.414,5.505l-4.461,14.855l14.945,3.037l6.387,-5.869l2.663,-11.146" style="fill:#7e7260;stroke:#000;stroke-width:1px;"/><path d="M129.464,172.618l-9.713,-5.466l1.145,-6.212l5.192,-3.008l4.056,1.725l4.47,4.429l-0.084,5.597l-5.066,2.935Zm30.283,-23.595l-5.042,5.431l-10.805,-0.849l-2.238,-4.698l-1.605,-8.155l10.343,-11.542l3.071,5.211l5.435,0.955l2.991,10.126l-2.15,3.521Zm50.311,-23.19l-2.662,11.147l-6.387,5.869l-14.946,-3.037l4.462,-14.856l10.414,-5.504l9.119,6.381Zm-55.066,-18.268l10.639,-1.857l10.285,-7.605l-2.016,-7.626l-4.769,-5.691l-7.679,1.95l-4.985,5.388l-3.648,6.589l2.173,8.852Z" style="fill:#0a0500;fill-opacity:0.3;"/><path d="M134.22,209.718l6.479,-6.062l-3.056,-12.565l-8.623,-2.463l-7.623,-1.443l-2.976,3.95l-3.5,-1.488l-5.379,1.085l-1.633,4.32l5.65,4.448l4.241,3.09l7.816,4.704l8.604,2.424Zm10.659,-25.483l10.639,-1.857l10.285,-7.605l-2.017,-7.626l-4.768,-5.692l-7.679,1.951l-4.985,5.388l-3.648,6.589l2.173,8.852Zm48.103,-4.672l8.069,-10.664l-1.707,-5.942l-8.575,-19.295c0,0 -7.897,5.94 -10.382,6.017c-2.486,0.076 -7.683,4.452 -7.683,4.452l3.152,9.269l8.599,6.112l8.527,10.051Zm-76.937,-25.625l-7.47,-8.393l0.629,-15.381l4.861,-8.365l7.639,3.249l3.734,6.804l0.66,10.713l-10.053,11.373Zm57.26,-16.469l7.62,-4.416l4.724,-10.592l-3.045,-9.558l-19.233,-2.963l-6.432,7.697l-1.006,7.708l6.329,7.428l11.043,4.696Zm-28.738,-11.615l6.48,-6.062l-3.057,-12.564l-8.623,-2.464l-7.622,-1.443l-2.977,3.95l-3.5,-1.488l-5.378,1.085l-1.634,4.32l5.651,4.448l4.24,3.09l7.816,4.704l8.604,2.424Zm56.422,-22.528l8.069,-10.665l-1.706,-5.942l-8.575,-19.294c0,0 -7.897,5.94 -10.383,6.016c-2.486,0.077 -7.683,4.453 -7.683,4.453l3.152,9.268l8.6,6.112l8.526,10.052Z" style="fill:#a4937d;fill-opacity:0.5;"/></g><path d="M215.425,54.142l0,96.598l-107.332,53.666l0,-96.598l107.332,-53.666Z" style="fill:none;stroke:#000;stroke-width:1px;"/></g><path d="M0.762,54.142l107.331,53.666l0,96.598l-107.331,-53.666l0,-96.598" style="fill:#625443;"/><clipPath id="_clip2"><path d="M0.762,54.142l107.331,53.666l0,96.598l-107.331,-53.666l0,-96.598"/></clipPath><g clip-path="url(#_clip2)"><path d="M6.255,226.119l-7.471,-8.946l0.629,-16.394l4.861,-8.915l7.639,3.462l3.734,7.252l0.66,11.419l-10.052,12.122" style="fill:#7e7260;stroke:#000;stroke-width:1px;"/><path d="M48.957,220.722l-5.043,5.789l-10.805,-0.905l-2.238,-5.008l-1.605,-8.692l10.343,-12.302l3.071,5.554l5.435,1.018l2.991,10.794l-2.149,3.752" style="fill:#7e7260;stroke:#000;stroke-width:1px;"/><path d="M29.795,193.84l6.48,-6.462l-3.057,-13.392l-8.623,-2.626l-7.622,-1.538l-2.977,4.21l-3.5,-1.586l-5.378,1.157l-1.634,4.604l5.651,4.741l4.24,3.294l7.817,5.014l8.603,2.584Z" style="fill:#7e7260;stroke:#000;stroke-width:1px;"/><path d="M66.782,200.56l7.62,-4.707l4.724,-11.29l-3.045,-10.187l-19.233,-3.159l-6.432,8.204l-1.006,8.216l6.329,7.918l11.043,5.005Z" style="fill:#b3a890;stroke:#000;stroke-width:1px;"/><path d="M88.79,169.345l8.069,-11.367l-1.707,-6.333l-8.575,-20.566c0,0 -7.896,6.332 -10.382,6.413c-2.486,0.082 -7.683,4.746 -7.683,4.746l3.152,9.879l8.599,6.515l8.527,10.713Z" style="fill:#7e7260;stroke:#000;stroke-width:1px;"/><path d="M40.455,166.678l10.639,-1.979l10.285,-8.107l-2.017,-8.128l-4.768,-6.066l-7.68,2.079l-4.984,5.743l-3.648,7.022l2.173,9.436" style="fill:#7e7260;stroke:#000;stroke-width:1px;"/><path d="M106.454,183.923l-9.094,-6.35l-10.432,5.551l-4.516,14.884l14.93,2.979l6.408,-5.899l2.704,-11.165" style="fill:#7e7260;stroke:#000;stroke-width:1px;"/><path d="M11.621,134.385l-7.47,-8.946l0.628,-16.394l4.861,-8.915l7.639,3.462l3.735,7.252l0.66,11.419l-10.053,12.122" style="fill:#b3a890;stroke:#000;stroke-width:1px;"/><path d="M24.04,154.137l-9.714,-5.826l1.146,-6.621l5.191,-3.206l4.057,1.838l4.47,4.721l-0.085,5.966l-5.065,3.128Z" style="fill:#b3a890;stroke:#000;stroke-width:1px;"/><path d="M47.772,133.132l-5.042,5.788l-10.806,-0.905l-2.238,-5.008l-1.605,-8.692l10.344,-12.302l3.07,5.554l5.436,1.018l2.99,10.794l-2.149,3.753" style="fill:#7e7260;stroke:#000;stroke-width:1px;"/><path d="M17.47,96.525l9.013,-1.578l5.175,-12.724l-5.558,-7.096l-5.363,-5.631l-4.853,1.743l-1.958,-3.307l-5.07,-2.136l-3.978,2.835l1.911,7.125l1.585,5.13l3.528,8.589l5.568,7.05Z" style="fill:#7e7260;stroke:#000;stroke-width:1px;"/><path d="M58.183,115.093l7.621,-4.707l4.724,-11.29l-3.046,-10.187l-19.233,-3.158l-6.432,8.203l-1.006,8.217l6.329,7.917l11.043,5.005Z" style="fill:#b3a890;stroke:#000;stroke-width:1px;"/><path d="M93.924,69.964l8.069,-11.367l-1.707,-6.333l-8.574,-20.566c0,0 -7.897,6.332 -10.383,6.413c-2.486,0.082 -7.683,4.746 -7.683,4.746l3.152,9.879l8.6,6.515l8.526,10.713Z" style="fill:#7e7260;stroke:#000;stroke-width:1px;"/><path d="M45.821,74.944l10.639,-1.979l10.285,-8.107l-2.016,-8.128l-4.769,-6.066l-7.679,2.079l-4.985,5.743l-3.648,7.022l2.173,9.436" style="fill:#7e7260;stroke:#000;stroke-width:1px;"/><path d="M97.36,107.744l-9.119,-6.802l-10.414,5.867l-4.461,15.834l14.945,3.237l6.387,-6.256l2.662,-11.88" style="fill:#7e7260;stroke:#000;stroke-width:1px;"/><path d="M14.947,246.873l-9.714,-5.826l1.146,-6.621l5.191,-3.207l4.057,1.839l4.47,4.721l-0.085,5.966l-5.065,3.128Zm30.283,-25.149l-5.042,5.788l-10.806,-0.904l-2.238,-5.008l-1.605,-8.692l10.344,-12.302l3.07,5.554l5.436,1.018l2.99,10.793l-2.149,3.753Zm-42.702,5.397l-7.471,-8.946l0.629,-16.394l4.861,-8.916l7.639,3.463l3.734,7.252l0.661,11.419l-10.053,12.122Zm100.199,-42.196l-2.704,11.165l-6.408,5.899l-14.93,-2.979l4.516,-14.884l10.433,-5.551l9.093,6.35Zm-39.672,16.637l7.621,-4.707l4.724,-11.29l-3.045,-10.187l-19.234,-3.159l-6.432,8.204l-1.006,8.216l6.329,7.917l11.043,5.006Zm-36.986,-6.721l6.479,-6.461l-3.056,-13.392l-8.623,-2.626l-7.623,-1.538l-2.976,4.21l-3.5,-1.586l-5.378,1.157l-1.634,4.604l5.651,4.741l4.24,3.294l7.816,5.014l8.604,2.583Zm58.994,-24.494l8.069,-11.367l-1.706,-6.333l-8.575,-20.566c0,0 -7.897,6.332 -10.383,6.413c-2.486,0.082 -7.683,4.746 -7.683,4.746l3.152,9.879l8.6,6.515l8.526,10.713Zm-48.335,-2.667l10.639,-1.98l10.285,-8.106l-2.017,-8.128l-4.768,-6.066l-7.679,2.078l-4.985,5.744l-3.648,7.022l2.173,9.436Zm-16.415,-12.541l-9.713,-5.826l1.146,-6.621l5.191,-3.207l4.056,1.839l4.471,4.721l-0.085,5.965l-5.066,3.129Zm23.732,-21.006l-5.042,5.788l-10.806,-0.904l-2.237,-5.008l-1.605,-8.692l10.343,-12.302l3.071,5.554l5.435,1.018l2.991,10.793l-2.15,3.753Zm-36.15,1.254l-7.471,-8.946l0.629,-16.394l4.861,-8.916l7.639,3.463l3.734,7.252l0.66,11.419l-10.052,12.122Zm85.739,-26.641l-2.663,11.88l-6.387,6.256l-14.945,-3.237l4.461,-15.834l10.414,-5.867l9.12,6.802Zm-39.177,7.349l7.62,-4.707l4.724,-11.29l-3.045,-10.187l-19.234,-3.159l-6.431,8.204l-1.006,8.216l6.329,7.918l11.043,5.005Zm-40.714,-18.568l9.014,-1.578l5.175,-12.724l-5.559,-7.096l-5.363,-5.631l-4.853,1.742l-1.957,-3.306l-5.07,-2.136l-3.979,2.835l1.911,7.124l1.585,5.13l3.529,8.59l5.567,7.05Zm28.352,-21.581l10.639,-1.98l10.285,-8.106l-2.017,-8.128l-4.768,-6.066l-7.68,2.078l-4.984,5.744l-3.648,7.022l2.173,9.436Zm48.103,-4.98l8.068,-11.367l-1.706,-6.333l-8.575,-20.566c0,0 -7.897,6.332 -10.383,6.413c-2.485,0.082 -7.683,4.746 -7.683,4.746l3.152,9.879l8.6,6.515l8.527,10.713Z" style="fill:#0a0500;fill-opacity:0.3;"/></g><path d="M0.762,54.142l107.331,53.666l0,96.598l-107.331,-53.666l0,-96.598" style="fill:none;stroke:#000;stroke-width:1px;"/></g></g><path d="M215.425,54.49l-107.332,-53.666l-107.331,53.666l107.331,53.666l107.332,-53.666Z" style="fill:#9f937d;stroke:#000;stroke-width:1px;"/><path d="M109.485,11.279c0,0 22.197,6.625 42.968,16.082c23.225,10.575 41.514,16.966 42.932,26.833c0.689,4.791 -63.107,40.332 -85.9,42.95c-20.083,2.307 -85.219,-38.894 -85.83,-42.95c-1.172,-7.792 74.91,-45.097 85.83,-42.915Z" style="fill:#7e7260;fill-opacity:0.428571;"/><path d="M103.534,26.062c26.612,1.029 30.819,-0.226 41.015,5.821c7.746,4.594 16.418,12.433 15.956,18.382c-1.128,14.522 -25.736,33.177 -42.182,33.929c-7.737,0.354 -23.906,-4.984 -32.666,-7.314c-9.861,-2.623 -20.102,-16.125 -23.281,-20.659c-12.359,-17.628 5.936,-31.521 41.158,-30.159Z" style="fill:#7e7260;fill-opacity:0.5;"/><g id="GrassBlank04"><path d="M105.985,96.157l3.65,3.111l-2.942,-14.901l-0.708,11.79Zm5.98,-2.36l1.826,5.369l-4.156,0.102l-2.902,-14.971l5.232,9.5Zm-25.855,-19.881l8.319,13.903l-3.088,2.428l-4.798,-0.195l-4.901,2.537l-4.067,-2.233l-2.902,-1.471l-6.054,-10.617l3.415,2.346l4.234,3.247l-1.913,-6.055l4.024,5.294l2.642,3.995l-0.641,-8.161l-2.208,-3.603l6.076,7.414l1.5,4.161l1.349,-0.722l-0.987,-12.268Zm70.788,3.886c-0.219,0.114 -0.569,0.401 -1.128,1.002c-1.683,1.812 -4.257,3.187 -5.651,3.951c-1.394,0.763 -0.785,0.927 -3.91,0.998c-3.125,0.071 -2.295,0.147 -6.628,0.071c-4.333,-0.077 -1.992,3.055 -6.807,-0.229c-4.816,-3.284 -0.862,-6.569 -4.708,-3.284c-3.846,3.284 -4.7,3.895 -5.819,4.811c-1.119,0.917 -2.153,0.229 -2.153,0.229c0,0 -0.923,-0.534 -2.039,-1.222c-1.115,-0.687 -1.364,-0.305 -2.104,-1.145c-0.739,-0.84 -0.819,-1.825 -0.819,-1.825c0,0 -1.469,-0.736 1.423,-2.511c2.891,-1.774 2.627,-1.469 -0.591,-2.08c-3.219,-0.611 -4.416,-1.176 -4.416,-1.176l2.671,-1.421l-1.595,-5.499l-6.04,-5.117l7.589,2.291l2.431,6.798l2.387,-5.284l-1.718,-4.224l5.142,2.452l-0.142,5.187l3.681,2.524l1.159,-5.029l-1.583,-0.362l4.417,-2.596l1.677,1.952l1.021,6.984l2.702,-6.645l-0.307,-1.528l4.094,2.368l0.475,3.586l0.911,3.278l3.424,-6.997l0.422,6.37l3.839,-0.313l0.196,-4.148l-3.144,-2.463l4.136,1.069l2.125,5.499l5.38,3.678Zm0,0c0.44,-0.23 0.348,0.238 0.348,0.238l-0.348,-0.238Zm-120.169,-31.381c-0.043,0.076 -0.271,0.069 -0.9,-0.155c-1.627,-0.579 -4.189,3.148 -4.621,1.501c-0.432,-1.647 2.052,-4.116 1.796,-4.875c-0.257,-0.759 2.18,-0.148 2.18,-0.148l-2.629,-3.235l-5.101,-4.33l5.181,1.174l0.44,-3.003l3.565,0.929l2.59,4.898l3.064,3.743l-0.619,-5.121l-2.922,-3.034l0.296,-3.555l-1.856,-5.668l6.615,5.027l2.211,1.944l-2.253,-5.777l2.813,-1.457l4.007,2.809l0.895,4.683l3.111,1.647l2.045,-4.508c0,0 -0.337,-1.994 0.72,-0.26c1.056,1.734 2.9,6.762 2.9,6.762l0.574,2.447l2.093,-4.355c0,0 0.94,0.21 0.948,1.102c0.008,0.892 1.089,7.147 1.089,7.147l1.881,1.113l2.114,0.675l4.586,2.954c0,0 -0.312,2.332 -1.979,2.342c-1.668,0.011 -6.138,1.398 -6.138,1.398c0,0 -0.497,0.397 -1.34,0.659l9.457,8.543l4.552,-7.699l0.774,9.623l2.659,-11.334l3.46,7.57l3.59,-8.977l5.101,12.7l0.636,-10.556l3.838,8.24l7.25,-5.358l-2.742,11.521l-1.712,7.731c0,0 -6.093,-2.086 -7.788,-3.336c-1.694,-1.25 -2.269,-1.179 -4.109,-0.733c-1.84,0.445 -5.09,1.514 -8.268,2.049c-3.177,0.534 -8.087,2.613 -8.087,2.613l-5.145,-0.475c-2.826,-2.138 -4.839,-3.802 -4.839,-3.802l-5.991,-2.566l5.689,-0.475l3.91,-3.877l-3.941,-11.181c-0.166,-0.008 -0.336,-0.023 -0.511,-0.049c-2.129,-0.311 -6.441,-1.525 -6.441,-1.525c0,0 -2.654,-0.78 -4.395,-2.08c-1.741,-1.3 -1.317,-3.271 -3.219,-2.416c-1.902,0.855 -4.263,3.936 -4.263,3.936c0,0 -0.523,0.869 -3.016,-0.672c-2.492,-1.542 -3.389,-2.322 -3.389,-2.322l-0.416,-0.566c0.068,-0.121 -0.33,-0.45 -0.33,-0.45l0.33,0.45Zm135.472,20.94l3.037,5.642l1.566,-5.092l4.088,2.936l1.691,-3.783l6.238,-1.092l-4.44,-2.815l-2.643,-11.297l-3.368,10.383l-5.436,-9.568l-1.353,5.711l-6.195,-4.45l0.666,5.692l1.35,4.01l-6.564,-1.246l7.094,4.166l-5.233,5.475l6.981,-1.266l1.37,1.489l1.151,-4.895Zm-155.468,-11.295l2.457,1.248l-5.603,-11.734l6.846,8.206l1.859,-4.17l2.482,4.809l2.38,-3.341l1.76,-1.509l4.242,9.444l2.236,-1.159l1.269,7.25l2.61,3.909c0,0 -2.092,0.874 -2.54,1.612c-0.448,0.737 1.626,2.815 -1.049,1.916c-2.674,-0.899 -3.559,-0.588 -5.074,-2.063c-1.516,-1.475 -2.924,-2.8 -2.924,-2.8l-3.427,0.293c0,0 -1.931,-3.154 -1.703,0.146c0.227,3.299 -3.803,-2.863 -3.803,-2.863l-4.115,-5.771l2.097,-3.423Zm96.618,-20.038c0,0 3.675,-0.458 -1.116,0.863c-4.792,1.321 -4.004,0.119 -8.468,0.605c-4.463,0.487 -1.178,2.041 -6.929,1.264c-5.75,-0.777 -4.396,-3.192 -6.363,-0.777c-1.967,2.414 -0.687,2.069 -2.501,4.023c-1.814,1.955 -3.176,-0.817 -5.669,-3.627c-2.493,-2.811 -6.467,-6.355 -7.201,-4.698c-0.734,1.657 4.027,1.542 -1.384,1.772c-5.412,0.23 -7.766,5.843 -6.663,-0.987c1.103,-6.831 0.289,-6.141 0.289,-6.141l-10.298,-7.554l14.034,1.576l-2.706,-7.44l12.169,5.37l2.857,-10.347l9.608,10.262l2.729,-7.295l2.174,4.161l0.585,-5.748l3.507,6.644l2.109,5.543l-0.121,-9.428l1.515,3.013l3.748,-1.403l0.663,3.292l1.86,-7.666l2.156,9.387l3.123,3.149c0,0 2.325,4.667 1.252,6.128c-0.597,0.811 -2.062,2.592 -3.246,4.015l5.714,6.284l-1.378,-6.934l4.495,5.338l-0.887,-8.407l5.206,10.024c0,0 1.647,2.227 1.443,-0.45c-0.203,-2.676 -0.206,-8.552 -0.206,-8.552l1.984,-4.182l1.95,14.331l3.466,-1.794l-1.789,-14.415l5.301,17.711l0.819,-4.051l2.082,2.549l-2.796,-13.893l6.199,12.131l2.327,-4.247l1.267,9.007l1.403,-10.344l2.803,6.661l1.888,-7.899l0.954,4.742c0,0 2.178,3.291 2.988,2.074c3.356,-5.041 2.405,1.399 2.725,1.768c1.371,1.584 0.441,2.194 0.441,2.194l1.223,2.058c0,0 -2.139,-1.196 -0.572,1.175c1.567,2.372 4.087,4.648 2.653,4.641c-1.435,-0.006 -3.641,-1.888 -5.117,1.747c-0.223,0.549 -0.936,1.265 -0.936,1.265c0,0 -2.304,1.208 -3.503,1.359c-1.2,0.15 -0.606,1.114 -2.714,0.201c-2.108,-0.913 -3.42,-2.422 -3.575,-1.129c-0.155,1.294 -1.584,1.787 -1.584,1.787l-3.894,0.477l-0.831,-1.132c0,0 -2.897,-0.624 -5.21,0.631c-2.314,1.255 -3.331,3.626 -3.917,0.716c-0.586,-2.91 -0.965,-2.807 -0.965,-2.807c0,0 -0.47,-2.356 -1.973,-2.523c-1.502,-0.167 -4.568,-0.279 -4.568,-0.279l2.143,-2.043c0,0 -4.934,-2.846 -6.557,-3.255c-1.623,-0.41 -3.864,0.56 -3.864,0.56l2.642,2.323c0,0 -1.66,-1.332 -2.38,-1.019c-0.719,0.313 -3.86,-0.442 -3.86,-0.442l-1.545,-1.874c0,0 0.263,-0.497 1.131,-1.898c0.867,-1.401 1.405,-2.156 1.405,-2.156l-0.124,-1.185l-2.568,-4.617l-1.052,-0.183Zm0.683,-0.812c-0.415,0.495 -0.683,0.812 -0.683,0.812c0,0 0.522,-0.065 0.916,-0.075l-0.233,-0.737Z" style="fill:#0a0500;fill-opacity:0.3;"/><path d="M179.922,65.867l1.901,6.018l2.591,-5.432l3.497,3.132l2.453,-4.035l6.458,-1.164l-3.875,-3.003l-0.368,-12.049l-5.459,11.074l-3.509,-10.204l-2.503,6.091l-5.3,-4.747l-0.479,6.071l0.543,4.277l-6.313,-1.329l6.256,4.443l-6.335,5.84l7.235,-1.351l1.071,1.589l2.136,-5.221" style="fill:#578e52;"/><clipPath id="_clip3"><path d="M179.922,65.867l1.901,6.018l2.591,-5.432l3.497,3.132l2.453,-4.035l6.458,-1.164l-3.875,-3.003l-0.368,-12.049l-5.459,11.074l-3.509,-10.204l-2.503,6.091l-5.3,-4.747l-0.479,6.071l0.543,4.277l-6.313,-1.329l6.256,4.443l-6.335,5.84l7.235,-1.351l1.071,1.589l2.136,-5.221"/></clipPath><g clip-path="url(#_clip3)"><path d="M192.579,49.334l-2.485,11.412l1.243,2.034l-2.995,2.26l-1.399,-4.407l1.897,-6.533l-4.187,-4.743l-1.227,-0.477l1.017,14.409l-3.487,-7.144l-1.315,-5.005l-3.673,0l3.164,11.414l-5.102,-1.041l-3.729,-4.98l-3.116,1.558l2.511,2.824l-0.346,13.077l7.714,-2.35l2.746,3.23l2.572,-1.75l0.883,-2.052l7.784,-1.047l6.909,-5.792l-3.965,-11.735l-1.414,-3.162" style="fill:#90d558;"/></g><path d="M179.922,65.867l1.901,6.018l2.591,-5.432l3.497,3.132l2.453,-4.035l6.458,-1.164l-3.875,-3.003l-0.368,-12.049l-5.459,11.074l-3.509,-10.204l-2.503,6.091l-5.3,-4.747l-0.479,6.071l0.543,4.277l-6.313,-1.329l6.256,4.443l-6.335,5.84l7.235,-1.351l1.071,1.589l2.136,-5.221" style="fill:none;stroke:#000;stroke-width:1px;"/><path d="M26.727,53.82l2.206,1.331l-3.242,-12.515l5.195,8.752l2.698,-4.447l1.514,5.129l3.052,-3.564l2.064,-1.609l2.341,10.072l2.469,-1.236l-0.189,7.733l1.823,4.169c0,0 -2.268,0.932 -2.864,1.719c-0.596,0.787 1.059,3.003 -1.435,2.044c-2.493,-0.958 -3.44,-0.627 -4.659,-2.2c-1.219,-1.574 -2.36,-2.987 -2.36,-2.987l-3.486,0.313c0,0 -1.296,-3.364 -1.733,0.155c-0.436,3.519 -3.226,-3.053 -3.226,-3.053l-2.954,-6.155l2.786,-3.651Z" style="fill:#578e52;"/><clipPath id="_clip4"><path d="M26.727,53.82l2.206,1.331l-3.242,-12.515l5.195,8.752l2.698,-4.447l1.514,5.129l3.052,-3.564l2.064,-1.609l2.341,10.072l2.469,-1.236l-0.189,7.733l1.823,4.169c0,0 -2.268,0.932 -2.864,1.719c-0.596,0.787 1.059,3.003 -1.435,2.044c-2.493,-0.958 -3.44,-0.627 -4.659,-2.2c-1.219,-1.574 -2.36,-2.987 -2.36,-2.987l-3.486,0.313c0,0 -1.296,-3.364 -1.733,0.155c-0.436,3.519 -3.226,-3.053 -3.226,-3.053l-2.954,-6.155l2.786,-3.651Z"/></clipPath><g clip-path="url(#_clip4)"><path d="M45.791,53.638l-2.131,7.872l-4.226,-1.484l4.095,-6.185l-3.078,-7.716l-3.13,11.227l-2.932,0.119l0.707,-5.516l-1.843,-7.264l-0.756,12.24l-1.619,-6.005l-1.299,-3.37l-3.055,-5.618l3.598,14.819l-1.087,-0.192l-0.816,0.636l-3.289,1.521l-3.249,2.897c0,0 5.245,1.734 9.413,1.942c3.091,0.155 5.297,-1.27 5.871,-0.977c0.623,0.319 0.688,5.656 2.654,8.242c2.281,3 6.452,3.28 6.452,3.28l1.85,-9.024l-2.13,-11.444" style="fill:#90d558;"/></g><path d="M26.727,53.82l2.206,1.331l-3.242,-12.515l5.195,8.752l2.698,-4.447l1.514,5.129l3.052,-3.564l2.064,-1.609l2.341,10.072l2.469,-1.236l-0.189,7.733l1.823,4.169c0,0 -2.268,0.932 -2.864,1.719c-0.596,0.787 1.059,3.003 -1.435,2.044c-2.493,-0.958 -3.44,-0.627 -4.659,-2.2c-1.219,-1.574 -2.36,-2.987 -2.36,-2.987l-3.486,0.313c0,0 -1.296,-3.364 -1.733,0.155c-0.436,3.519 -3.226,-3.053 -3.226,-3.053l-2.954,-6.155l2.786,-3.651Z" style="fill:none;stroke:#000;stroke-width:1px;"/><path d="M82.922,24.233l-8.777,-8.058l13.717,1.681l-1.21,-7.935l11.088,5.728l4.94,-11.036l7.543,10.945l4.197,-7.78l1.337,4.438l1.741,-6.131l2.17,7.086l0.994,5.911l1.776,-10.054l0.909,3.213l4.03,-1.497l0,3.512l3.404,-8.177l0.266,10.012l2.49,3.359c0,0 1.385,4.978 0.018,6.536c-1.367,1.557 -6.178,6.462 -6.178,6.462c0,0 3.768,-0.488 -1.29,0.921c-5.057,1.409 -4.027,0.126 -8.589,0.645c-4.561,0.519 -1.589,2.177 -7.183,1.348c-5.594,-0.829 -3.755,-3.404 -6.207,-0.829c-2.452,2.575 -1.104,2.207 -3.311,4.291c-2.207,2.085 -3.011,-0.872 -4.939,-3.869c-1.928,-2.997 -5.188,-6.777 -6.255,-5.01c-1.068,1.767 3.716,1.645 -1.741,1.89c-5.458,0.245 -8.942,6.232 -6.464,-1.053c2.477,-7.285 1.524,-6.549 1.524,-6.549Z" style="fill:#61933c;"/><clipPath id="_clip5"><path d="M82.922,24.233l-8.777,-8.058l13.717,1.681l-1.21,-7.935l11.088,5.728l4.94,-11.036l7.543,10.945l4.197,-7.78l1.337,4.438l1.741,-6.131l2.17,7.086l0.994,5.911l1.776,-10.054l0.909,3.213l4.03,-1.497l0,3.512l3.404,-8.177l0.266,10.012l2.49,3.359c0,0 1.385,4.978 0.018,6.536c-1.367,1.557 -6.178,6.462 -6.178,6.462c0,0 3.768,-0.488 -1.29,0.921c-5.057,1.409 -4.027,0.126 -8.589,0.645c-4.561,0.519 -1.589,2.177 -7.183,1.348c-5.594,-0.829 -3.755,-3.404 -6.207,-0.829c-2.452,2.575 -1.104,2.207 -3.311,4.291c-2.207,2.085 -3.011,-0.872 -4.939,-3.869c-1.928,-2.997 -5.188,-6.777 -6.255,-5.01c-1.068,1.767 3.716,1.645 -1.741,1.89c-5.458,0.245 -8.942,6.232 -6.464,-1.053c2.477,-7.285 1.524,-6.549 1.524,-6.549Z"/></clipPath><g clip-path="url(#_clip5)"><path d="M132.317,6.847l-4.94,10.347l2.064,4.905l-2.064,2.036l-2.252,-14.691l-2.687,-2.597l0.95,15.293l1.32,5.6l-4.238,-2.119c0,0 0.633,-4.994 -1.329,-3.228c-1.962,1.766 1.766,-12.458 1.766,-12.458l-4.278,-5.123l-2.17,10.964l-1.9,12.601l0,-8.534l-3.233,0.206l1.613,-12.392l-8.259,-5.75l0,9.879l-1.943,0.972l0.899,3.446l1.044,7.759l-8.161,-14.715l0.942,8.808l-5.989,-7.934l-2.433,-1.217l3.948,15.744l-13.825,-10.803l8.136,10.313l-2.376,2.446c0,0 -8.317,3.832 -6.159,5.5c2.159,1.667 -1.004,5.737 -1.004,5.737c0,0 4.787,-1.001 7.163,-1.358c2.376,-0.357 1.658,2.648 7.069,-1.405c5.411,-4.053 0.999,-4.343 6.982,-5.621c5.982,-1.277 6.963,-0.002 6.963,-0.002c0,0 0.393,5.396 2.551,1.766c2.158,-3.63 -0.824,-8.065 -0.824,-8.065c0,0 2.786,1.885 4.453,3.749c1.668,1.864 -1.393,3.237 2.443,3.335c3.836,0.098 1.531,0.392 4.939,0.589c3.409,0.196 -0.494,-0.141 4.94,0.714c5.434,0.855 2.949,0.104 4.241,-2.12c1.291,-2.224 -0.18,-1.93 1.782,-2.813c1.961,-0.882 1.434,-0.209 3.856,-0.006c2.422,0.203 4.808,-0.728 4.939,-2.47c0.131,-1.742 0,-7.726 0,-7.726l-4.939,-9.562Z" style="fill:#90d558;"/></g><path d="M82.922,24.233l-8.777,-8.058l13.717,1.681l-1.21,-7.935l11.088,5.728l4.94,-11.036l7.543,10.945l4.197,-7.78l1.337,4.438l1.741,-6.131l2.17,7.086l0.994,5.911l1.776,-10.054l0.909,3.213l4.03,-1.497l0,3.512l3.404,-8.177l0.266,10.012l2.49,3.359c0,0 1.385,4.978 0.018,6.536c-1.367,1.557 -6.178,6.462 -6.178,6.462c0,0 3.768,-0.488 -1.29,0.921c-5.057,1.409 -4.027,0.126 -8.589,0.645c-4.561,0.519 -1.589,2.177 -7.183,1.348c-5.594,-0.829 -3.755,-3.404 -6.207,-0.829c-2.452,2.575 -1.104,2.207 -3.311,4.291c-2.207,2.085 -3.011,-0.872 -4.939,-3.869c-1.928,-2.997 -5.188,-6.777 -6.255,-5.01c-1.068,1.767 3.716,1.645 -1.741,1.89c-5.458,0.245 -8.942,6.232 -6.464,-1.053c2.477,-7.285 1.524,-6.549 1.524,-6.549Z" style="fill:none;stroke:#000;stroke-width:1px;"/><g><path d="M111.046,83.93l3.32,10.133l0.745,5.726l-4.176,0.109l0.111,-15.968Z" style="fill:#90d558;stroke:#000;stroke-width:1px;"/><path d="M107.911,96.58l3.024,3.318l0.057,-15.894l-3.081,12.576Z" style="fill:#578e52;stroke:#000;stroke-width:1px;"/></g><path d="M92.512,72.858l5.521,14.829l-3.577,2.589l-4.758,-0.208l-5.412,2.706l-3.617,-2.381l-2.607,-1.57l-3.917,-11.323l2.943,2.502l3.581,3.463l-0.695,-6.458l2.959,5.647l1.838,4.261l1.001,-8.705l-1.483,-3.843l4.584,7.908l0.663,4.438l1.494,-0.771l1.482,-13.084Z" style="fill:#578e52;"/><clipPath id="_clip6"><path d="M92.512,72.858l5.521,14.829l-3.577,2.589l-4.758,-0.208l-5.412,2.706l-3.617,-2.381l-2.607,-1.57l-3.917,-11.323l2.943,2.502l3.581,3.463l-0.695,-6.458l2.959,5.647l1.838,4.261l1.001,-8.705l-1.483,-3.843l4.584,7.908l0.663,4.438l1.494,-0.771l1.482,-13.084Z"/></clipPath><g clip-path="url(#_clip6)"><path d="M92.444,70.772l2.038,15.389l-4.036,-0.511l-1.573,-11.764l-4.995,0.276l3.114,9.195l0.379,4.005l-2.6,-0.447l-1.446,-7.482l-3.654,-2.275l3.148,7.78l-0.13,3.018l-1.325,-1.893c-0.236,-1.535 -0.866,-3.103 -1.892,-4.703l-6.096,-5.156l4.478,6.633l0.639,3.114l1.462,2.658l3.377,1.688l1.439,1.611c0,0 2.329,2.652 3.52,2.76c1.191,0.109 6.494,-0.054 7.739,-0.541c1.245,-0.487 6.085,-3.578 6.085,-3.578l-2.93,-10.841l-6.741,-8.936Z" style="fill:#90d558;"/></g><path d="M92.512,72.858l5.521,14.829l-3.577,2.589l-4.758,-0.208l-5.412,2.706l-3.617,-2.381l-2.607,-1.57l-3.917,-11.323l2.943,2.502l3.581,3.463l-0.695,-6.458l2.959,5.647l1.838,4.261l1.001,-8.705l-1.483,-3.843l4.584,7.908l0.663,4.438l1.494,-0.771l1.482,-13.084Z" style="fill:none;stroke:#000;stroke-width:1px;"/><path d="M156.202,23.398l3.758,12.939l3.181,-4.53l-0.545,9.606l3.485,-11.032l1.462,7.104l3.477,-8.425l0,5.058c0,0 1.516,3.51 2.571,2.212c4.37,-5.376 2.123,1.493 2.369,1.886c1.052,1.689 0,2.34 0,2.34l0.808,2.196c0,0 -1.898,-1.276 -0.808,1.253c1.089,2.529 3.152,4.956 1.718,4.95c-1.433,-0.007 -3.26,-2.014 -5.468,1.862c-0.334,0.587 -1.19,1.35 -1.19,1.35c0,0 -2.547,1.289 -3.777,1.449c-1.229,0.16 -0.83,1.189 -2.754,0.215c-1.924,-0.974 -2.932,-2.584 -3.348,-1.204c-0.415,1.379 -1.943,1.906 -1.943,1.906l-3.99,0.508l-0.604,-1.208c0,0 -2.771,-0.665 -5.337,0.674c-2.566,1.338 -4.061,3.867 -4.061,0.764c0,-3.104 -0.399,-2.995 -0.399,-2.995c0,0 0.003,-2.512 -1.466,-2.69c-1.469,-0.178 -4.512,-0.298 -4.512,-0.298l2.554,-2.179c0,0 -4.362,-3.035 -5.902,-3.472c-1.541,-0.437 -3.977,0.598 -3.977,0.598l2.175,2.478c0,0 -1.392,-1.421 -2.175,-1.088c-0.782,0.334 -3.771,-0.471 -3.771,-0.471l-1.168,-1.998c0,0 0.363,-0.531 1.513,-2.025c1.149,-1.495 1.839,-2.299 1.839,-2.299l0.115,-1.265l-1.72,-5.164l-0.504,-4.687l6.144,9.254l0.016,-7.395l3.421,5.693l0.805,-8.967l3.189,10.691c0,0 1.199,2.376 1.534,-0.479c0.335,-2.854 1.514,-9.121 1.514,-9.121l2.826,-4.461l-0.934,15.285l3.827,-1.913l1.112,-15.375l1.737,18.89l1.634,-4.32l1.569,2.718l0,-14.818Z" style="fill:#578e52;"/><clipPath id="_clip7"><path d="M156.202,23.398l3.758,12.939l3.181,-4.53l-0.545,9.606l3.485,-11.032l1.462,7.104l3.477,-8.425l0,5.058c0,0 1.516,3.51 2.571,2.212c4.37,-5.376 2.123,1.493 2.369,1.886c1.052,1.689 0,2.34 0,2.34l0.808,2.196c0,0 -1.898,-1.276 -0.808,1.253c1.089,2.529 3.152,4.956 1.718,4.95c-1.433,-0.007 -3.26,-2.014 -5.468,1.862c-0.334,0.587 -1.19,1.35 -1.19,1.35c0,0 -2.547,1.289 -3.777,1.449c-1.229,0.16 -0.83,1.189 -2.754,0.215c-1.924,-0.974 -2.932,-2.584 -3.348,-1.204c-0.415,1.379 -1.943,1.906 -1.943,1.906l-3.99,0.508l-0.604,-1.208c0,0 -2.771,-0.665 -5.337,0.674c-2.566,1.338 -4.061,3.867 -4.061,0.764c0,-3.104 -0.399,-2.995 -0.399,-2.995c0,0 0.003,-2.512 -1.466,-2.69c-1.469,-0.178 -4.512,-0.298 -4.512,-0.298l2.554,-2.179c0,0 -4.362,-3.035 -5.902,-3.472c-1.541,-0.437 -3.977,0.598 -3.977,0.598l2.175,2.478c0,0 -1.392,-1.421 -2.175,-1.088c-0.782,0.334 -3.771,-0.471 -3.771,-0.471l-1.168,-1.998c0,0 0.363,-0.531 1.513,-2.025c1.149,-1.495 1.839,-2.299 1.839,-2.299l0.115,-1.265l-1.72,-5.164l-0.504,-4.687l6.144,9.254l0.016,-7.395l3.421,5.693l0.805,-8.967l3.189,10.691c0,0 1.199,2.376 1.534,-0.479c0.335,-2.854 1.514,-9.121 1.514,-9.121l2.826,-4.461l-0.934,15.285l3.827,-1.913l1.112,-15.375l1.737,18.89l1.634,-4.32l1.569,2.718l0,-14.818Z"/></clipPath><g clip-path="url(#_clip7)"><path d="M178.208,32.152l-3.788,6.021l-3.4,0.117l1.634,-9.535l-1.634,-0.647l-3.267,14.211l-1.672,-3.558l2.218,-8.652l-3.295,-1.233l-0.943,16.065l-2.17,0.31l0.389,-13.875l-2.339,-2.621l-0.035,11.313l-7.558,-16.316l2.59,21.307l11.143,12.007l13.742,-7.039l-1.615,-17.875Z" style="fill:#90d558;"/><path d="M148.031,26.864l-2.295,4.297l-1.298,7.998l-4.117,0.124l1.062,-2.825l1.233,-8.417l-3.06,-2.354l-1.514,13.328l-1.598,-2.145l0.465,-8.765l-1.624,0.812l-0.556,9.601l-1.883,-1.413l-0.835,-10.984l-2.579,2.509l1.53,8.711l-2.571,1.788l-7.836,5.961c0,0 10.18,5.065 11.559,5.78c1.379,0.715 8.148,6.836 8.148,6.836l12.124,2.176l3.816,-5.237l-7.932,-2.584l-1.18,-1.823l1.536,-1.405l4.156,-0.82l-3.162,-4.198l5.043,3.511l0.902,3.493l0.637,-4.179l-3.109,-3.06l-1.831,-3.414l1.537,-12.066l0.426,-8.153l-2.479,0.723l-1.151,10.97l0.438,6.996l-1.469,0.701l-0.533,-12.473Z" style="fill:#90d558;"/></g><path d="M156.202,23.398l3.758,12.939l3.181,-4.53l-0.545,9.606l3.485,-11.032l1.462,7.104l3.477,-8.425l0,5.058c0,0 1.516,3.51 2.571,2.212c4.37,-5.376 2.123,1.493 2.369,1.886c1.052,1.689 0,2.34 0,2.34l0.808,2.196c0,0 -1.898,-1.276 -0.808,1.253c1.089,2.529 3.152,4.956 1.718,4.95c-1.433,-0.007 -3.26,-2.014 -5.468,1.862c-0.334,0.587 -1.19,1.35 -1.19,1.35c0,0 -2.547,1.289 -3.777,1.449c-1.229,0.16 -0.83,1.189 -2.754,0.215c-1.924,-0.974 -2.932,-2.584 -3.348,-1.204c-0.415,1.379 -1.943,1.906 -1.943,1.906l-3.99,0.508l-0.604,-1.208c0,0 -2.771,-0.665 -5.337,0.674c-2.566,1.338 -4.061,3.867 -4.061,0.764c0,-3.104 -0.399,-2.995 -0.399,-2.995c0,0 0.003,-2.512 -1.466,-2.69c-1.469,-0.178 -4.512,-0.298 -4.512,-0.298l2.554,-2.179c0,0 -4.362,-3.035 -5.902,-3.472c-1.541,-0.437 -3.977,0.598 -3.977,0.598l2.175,2.478c0,0 -1.392,-1.421 -2.175,-1.088c-0.782,0.334 -3.771,-0.471 -3.771,-0.471l-1.168,-1.998c0,0 0.363,-0.531 1.513,-2.025c1.149,-1.495 1.839,-2.299 1.839,-2.299l0.115,-1.265l-1.72,-5.164l-0.504,-4.687l6.144,9.254l0.016,-7.395l3.421,5.693l0.805,-8.967l3.189,10.691c0,0 1.199,2.376 1.534,-0.479c0.335,-2.854 1.514,-9.121 1.514,-9.121l2.826,-4.461l-0.934,15.285l3.827,-1.913l1.112,-15.375l1.737,18.89l1.634,-4.32l1.569,2.718l0,-14.818Z" style="fill:none;stroke:#000;stroke-width:1px;"/><path d="M54.045,27.31l-0.715,-6.046l5.603,5.362l1.819,2.073l-1.09,-6.162l3.106,-1.553l3.442,2.995l-0.048,4.995l2.78,1.757l2.953,-4.808c0,0 0.064,-2.126 0.771,-0.277c0.708,1.849 1.54,7.211 1.54,7.211l0.082,2.61l2.969,-4.644c0,0 0.898,0.223 0.726,1.175c-0.171,0.952 -0.349,7.623 -0.349,7.623l1.657,1.187l1.978,0.72l3.992,3.15c0,0 -0.781,2.488 -2.451,2.499c-1.67,0.011 -6.419,1.49 -6.419,1.49c0,0 -1.658,1.218 -3.725,0.887c-2.066,-0.332 -6.134,-1.627 -6.134,-1.627c0,0 -2.496,-0.832 -3.975,-2.219c-1.48,-1.386 -0.66,-3.488 -2.734,-2.576c-2.074,0.912 -5.054,4.197 -5.054,4.197c0,0 -0.698,0.928 -2.881,-0.716c-2.183,-1.644 -2.922,-2.476 -2.922,-2.476l-0.542,-1.084c0,0 0.882,0.932 -0.629,0.315c-1.51,-0.618 -4.822,3.357 -4.923,1.601c-0.101,-1.757 2.88,-4.39 2.777,-5.2c-0.104,-0.81 2.21,-0.157 2.21,-0.157l-1.978,-3.451l-4.229,-4.619l4.944,1.252l1.044,-3.202l3.378,0.991l1.604,5.224l2.311,3.992l0.412,-5.463l-2.311,-3.235l1.011,-3.791Z" style="fill:#578e52;"/><clipPath id="_clip8"><path d="M54.045,27.31l-0.715,-6.046l5.603,5.362l1.819,2.073l-1.09,-6.162l3.106,-1.553l3.442,2.995l-0.048,4.995l2.78,1.757l2.953,-4.808c0,0 0.064,-2.126 0.771,-0.277c0.708,1.849 1.54,7.211 1.54,7.211l0.082,2.61l2.969,-4.644c0,0 0.898,0.223 0.726,1.175c-0.171,0.952 -0.349,7.623 -0.349,7.623l1.657,1.187l1.978,0.72l3.992,3.15c0,0 -0.781,2.488 -2.451,2.499c-1.67,0.011 -6.419,1.49 -6.419,1.49c0,0 -1.658,1.218 -3.725,0.887c-2.066,-0.332 -6.134,-1.627 -6.134,-1.627c0,0 -2.496,-0.832 -3.975,-2.219c-1.48,-1.386 -0.66,-3.488 -2.734,-2.576c-2.074,0.912 -5.054,4.197 -5.054,4.197c0,0 -0.698,0.928 -2.881,-0.716c-2.183,-1.644 -2.922,-2.476 -2.922,-2.476l-0.542,-1.084c0,0 0.882,0.932 -0.629,0.315c-1.51,-0.618 -4.822,3.357 -4.923,1.601c-0.101,-1.757 2.88,-4.39 2.777,-5.2c-0.104,-0.81 2.21,-0.157 2.21,-0.157l-1.978,-3.451l-4.229,-4.619l4.944,1.252l1.044,-3.202l3.378,0.991l1.604,5.224l2.311,3.992l0.412,-5.463l-2.311,-3.235l1.011,-3.791Z"/></clipPath><g clip-path="url(#_clip8)"><path d="M77.845,29.797l-3.983,13.823c2.798,-0.19 4.885,0.454 6.253,1.944l5.331,-0.793l-1.607,4.913l-7.448,-0.37c0,0 -2.353,-5.883 -2.223,-4.236c0.13,1.647 0.565,4.976 -1.502,6.733c-2.066,1.756 -4.18,0.689 -3.724,-0.395c0.456,-1.085 0,-3.725 0,-3.725l0,-1.798l-1.712,-2.782l-2.012,4.169l0,2.274l-1.66,-4.554l0.345,-2.238l0.101,-3.774c0,0 1.759,-5.265 0.618,-4.034c-1.141,1.232 -7.462,6.847 -7.462,6.847l-0.394,4.53l-2.721,4.278l0,-7.304l-2.306,-2.866l-5.143,1.756l-4.564,6.102l-0.93,-1.582l1.77,-5.629l3.28,-9.53l4.561,8.192l1.455,-0.444l1.877,0.939l1.628,-0.814l3.812,-7.639l0.211,3.83l1.798,-2.826l1.971,-0.986l-1.971,4.254l5.621,-4.181l0.096,1.779l0.801,4.375l0.93,2.208l1.775,0.887l0.741,1.579l-0.086,2.473l1.294,-4.836l1.582,-6.48l1.16,-3.043l-2.742,-7.34l-2.087,13.854l-1.637,-9.565l-0.93,-4.068l-3.493,-4.294l-1.786,2.831l2.485,8.691l-6.785,-7.117l-1.886,-2.052l-2.502,-1.665l2.864,11.264l-0.507,3.978l-2.357,1.179l0,-2.22l-3.724,-6.255l-2.541,1.618l3.464,9.924l-0.531,0.162l-18.28,-7.32l16.492,27.601l41.076,-1.808l1.287,-11.496l-13.443,-16.928Z" style="fill:#90d558;"/></g><path d="M54.045,27.31l-0.715,-6.046l5.603,5.362l1.819,2.073l-1.09,-6.162l3.106,-1.553l3.442,2.995l-0.048,4.995l2.78,1.757l2.953,-4.808c0,0 0.064,-2.126 0.771,-0.277c0.708,1.849 1.54,7.211 1.54,7.211l0.082,2.61l2.969,-4.644c0,0 0.898,0.223 0.726,1.175c-0.171,0.952 -0.349,7.623 -0.349,7.623l1.657,1.187l1.978,0.72l3.992,3.15c0,0 -0.781,2.488 -2.451,2.499c-1.67,0.011 -6.419,1.49 -6.419,1.49c0,0 -1.658,1.218 -3.725,0.887c-2.066,-0.332 -6.134,-1.627 -6.134,-1.627c0,0 -2.496,-0.832 -3.975,-2.219c-1.48,-1.386 -0.66,-3.488 -2.734,-2.576c-2.074,0.912 -5.054,4.197 -5.054,4.197c0,0 -0.698,0.928 -2.881,-0.716c-2.183,-1.644 -2.922,-2.476 -2.922,-2.476l-0.542,-1.084c0,0 0.882,0.932 -0.629,0.315c-1.51,-0.618 -4.822,3.357 -4.923,1.601c-0.101,-1.757 2.88,-4.39 2.777,-5.2c-0.104,-0.81 2.21,-0.157 2.21,-0.157l-1.978,-3.451l-4.229,-4.619l4.944,1.252l1.044,-3.202l3.378,0.991l1.604,5.224l2.311,3.992l0.412,-5.463l-2.311,-3.235l1.011,-3.791Z" style="fill:none;stroke:#000;stroke-width:1px;"/><path d="M74.859,61.531l-2.082,-14.682l9.879,11.632l6.102,-8.211l-1.163,10.264l4.94,-12.089l1.937,8.074l5.396,-9.574l2.546,13.545l2.76,-11.259l2.179,8.789l8.328,-5.714l-5.06,12.288l-3.268,8.245c0,0 -5.673,-2.225 -7.116,-3.558c-1.443,-1.334 -2.032,-1.257 -3.961,-0.782c-1.93,0.475 -5.396,1.615 -8.681,2.185c-3.285,0.57 -8.613,2.788 -8.613,2.788l-5.05,-0.507c0,0 2.395,2.281 0,0c-2.395,-2.281 -4.074,-4.055 -4.074,-4.055l-5.474,-2.737l5.785,-0.507l4.69,-4.135Z" style="fill:#578e52;"/><clipPath id="_clip9"><path d="M74.859,61.531l-2.082,-14.682l9.879,11.632l6.102,-8.211l-1.163,10.264l4.94,-12.089l1.937,8.074l5.396,-9.574l2.546,13.545l2.76,-11.259l2.179,8.789l8.328,-5.714l-5.06,12.288l-3.268,8.245c0,0 -5.673,-2.225 -7.116,-3.558c-1.443,-1.334 -2.032,-1.257 -3.961,-0.782c-1.93,0.475 -5.396,1.615 -8.681,2.185c-3.285,0.57 -8.613,2.788 -8.613,2.788l-5.05,-0.507c0,0 2.395,2.281 0,0c-2.395,-2.281 -4.074,-4.055 -4.074,-4.055l-5.474,-2.737l5.785,-0.507l4.69,-4.135Z"/></clipPath><g clip-path="url(#_clip9)"><path d="M117.232,51.525l-6.916,7.977l-2.963,3.458c0,0 -0.108,-8.128 0,-8.128c0.108,0 -2.118,-7.75 -2.118,-7.75l-0.453,14.592l-2.368,1.255l0,-8.781l-2.653,-9.803l-2.287,16.075l-3.641,-4.22l2.264,-8.747l-3.562,-0.262l-2.274,12.162l-2.666,3.607l2.876,-11.317l-1.413,-2.77l-3.682,10.257l-2.72,3.343l3.057,-10.333l-12.936,-6.468l5.868,17.752l-7.653,-2.041l-14.509,4.625l8.329,10.258l10.278,0.199l6.423,-10.464c0,0 -0.595,0.177 3.154,0.434c3.749,0.258 10.324,0.223 10.324,0.223l0.874,2.046l7.464,6.147l12.012,-1.067l1.891,-22.259Z" style="fill:#90d558;"/></g><path d="M74.859,61.531l-2.082,-14.682l9.879,11.632l6.102,-8.211l-1.163,10.264l4.94,-12.089l1.937,8.074l5.396,-9.574l2.546,13.545l2.76,-11.259l2.179,8.789l8.328,-5.714l-5.06,12.288l-3.268,8.245c0,0 -5.673,-2.225 -7.116,-3.558c-1.443,-1.334 -2.032,-1.257 -3.961,-0.782c-1.93,0.475 -5.396,1.615 -8.681,2.185c-3.285,0.57 -8.613,2.788 -8.613,2.788l-5.05,-0.507c0,0 2.395,2.281 0,0c-2.395,-2.281 -4.074,-4.055 -4.074,-4.055l-5.474,-2.737l5.785,-0.507l4.69,-4.135Z" style="fill:none;stroke:#000;stroke-width:1px;"/><path d="M115.111,61.594l7.128,2.444l1.063,7.25l3.451,-5.636l-0.868,-4.505l4.648,2.616l-1.185,5.531l3.172,2.693l2.171,-5.364l-1.51,-0.386l4.939,-2.769l1.284,2.082l-0.384,7.449l4.04,-7.088l0,-1.629l3.617,2.526l-0.246,3.824l0.251,3.497l4.832,-7.464l-0.859,6.794l3.901,-0.333l1.031,-4.424l-2.648,-2.628l3.921,1.141l1.018,5.865l4.94,4.177c0,0 0.418,-1.118 -1.63,0.814c-2.047,1.933 -4.898,3.399 -6.446,4.214c-1.548,0.815 -0.972,0.99 -4.111,1.065c-3.139,0.075 -2.325,0.157 -6.642,0.075c-4.317,-0.081 -2.607,3.259 -6.761,-0.244c-4.155,-3.503 0.46,-7.006 -4.047,-3.503c-4.507,3.503 -5.484,4.155 -6.787,5.132c-1.304,0.978 -2.2,0.245 -2.2,0.245c0,0 -0.815,-0.571 -1.792,-1.304c-0.978,-0.733 -1.303,-0.326 -1.874,-1.222c-0.57,-0.896 -0.452,-1.946 -0.452,-1.946c0,0 -1.32,-0.784 1.928,-2.677c3.249,-1.893 2.923,-1.568 -0.172,-2.219c-3.096,-0.652 -4.179,-1.255 -4.179,-1.255l2.957,-1.515l-0.489,-5.865l-5.01,-5.458Z" style="fill:#578e52;"/><clipPath id="_clip10"><path d="M115.111,61.594l7.128,2.444l1.063,7.25l3.451,-5.636l-0.868,-4.505l4.648,2.616l-1.185,5.531l3.172,2.693l2.171,-5.364l-1.51,-0.386l4.939,-2.769l1.284,2.082l-0.384,7.449l4.04,-7.088l0,-1.629l3.617,2.526l-0.246,3.824l0.251,3.497l4.832,-7.464l-0.859,6.794l3.901,-0.333l1.031,-4.424l-2.648,-2.628l3.921,1.141l1.018,5.865l4.94,4.177c0,0 0.418,-1.118 -1.63,0.814c-2.047,1.933 -4.898,3.399 -6.446,4.214c-1.548,0.815 -0.972,0.99 -4.111,1.065c-3.139,0.075 -2.325,0.157 -6.642,0.075c-4.317,-0.081 -2.607,3.259 -6.761,-0.244c-4.155,-3.503 0.46,-7.006 -4.047,-3.503c-4.507,3.503 -5.484,4.155 -6.787,5.132c-1.304,0.978 -2.2,0.245 -2.2,0.245c0,0 -0.815,-0.571 -1.792,-1.304c-0.978,-0.733 -1.303,-0.326 -1.874,-1.222c-0.57,-0.896 -0.452,-1.946 -0.452,-1.946c0,0 -1.32,-0.784 1.928,-2.677c3.249,-1.893 2.923,-1.568 -0.172,-2.219c-3.096,-0.652 -4.179,-1.255 -4.179,-1.255l2.957,-1.515l-0.489,-5.865l-5.01,-5.458Z"/></clipPath><g clip-path="url(#_clip10)"><path d="M157.878,64.908l-2.291,3.794l0.597,5.238l-0.543,3.953l-2.702,-5.576l-1.745,-5.811l-2.265,7.816l0.404,2.267l-3.128,1.616l0.886,-4.483l0.908,-7.143l-4.939,-0.312l0.367,1.716l-3.111,7.069l1.614,2.111l-1.304,0.521l-2.506,-0.73l0.735,-3.697l1.406,-5.478l-0.948,-2.275l-5.091,1.353l-1.676,5.143l1.824,3.442l-4.363,0.228l-0.581,-6.415l2.82,-6.349l-5.658,2.829l0.486,7.941l-3.772,-2.167l0,-6.859l-1.027,-0.677l-2.086,3.388l2.678,7.001l-1.374,1.289c0,0 -4.971,7.805 -4.649,8.255c0.322,0.451 -0.1,4.3 3.891,4.513c3.99,0.213 9.456,-1.334 10.659,-2.177c1.204,-0.842 2.09,-7.046 4.592,-6.525c2.503,0.522 5.232,0.365 7.074,0.417c1.841,0.053 4.939,0.105 4.939,0.105c0,0 -5.183,2.502 -0.439,1.46c4.745,-1.043 5.379,-1.617 5.379,-1.617l0,-0.938l4.939,0.582l7.617,-0.061l-0.057,-6.038l-7.56,-8.719" style="fill:#90d558;"/></g><path d="M115.111,61.594l7.128,2.444l1.063,7.25l3.451,-5.636l-0.868,-4.505l4.648,2.616l-1.185,5.531l3.172,2.693l2.171,-5.364l-1.51,-0.386l4.939,-2.769l1.284,2.082l-0.384,7.449l4.04,-7.088l0,-1.629l3.617,2.526l-0.246,3.824l0.251,3.497l4.832,-7.464l-0.859,6.794l3.901,-0.333l1.031,-4.424l-2.648,-2.628l3.921,1.141l1.018,5.865l4.94,4.177c0,0 0.418,-1.118 -1.63,0.814c-2.047,1.933 -4.898,3.399 -6.446,4.214c-1.548,0.815 -0.972,0.99 -4.111,1.065c-3.139,0.075 -2.325,0.157 -6.642,0.075c-4.317,-0.081 -2.607,3.259 -6.761,-0.244c-4.155,-3.503 0.46,-7.006 -4.047,-3.503c-4.507,3.503 -5.484,4.155 -6.787,5.132c-1.304,0.978 -2.2,0.245 -2.2,0.245c0,0 -0.815,-0.571 -1.792,-1.304c-0.978,-0.733 -1.303,-0.326 -1.874,-1.222c-0.57,-0.896 -0.452,-1.946 -0.452,-1.946c0,0 -1.32,-0.784 1.928,-2.677c3.249,-1.893 2.923,-1.568 -0.172,-2.219c-3.096,-0.652 -4.179,-1.255 -4.179,-1.255l2.957,-1.515l-0.489,-5.865l-5.01,-5.458Z" style="fill:none;stroke:#000;stroke-width:1px;"/></g></g></svg>