<?xml version="1.0" encoding="UTF-8" standalone="no"?><!DOCTYPE svg PUBLIC "-//W3C//DTD SVG 1.1//EN" "http://www.w3.org/Graphics/SVG/1.1/DTD/svg11.dtd"><svg width="100%" height="100%" viewBox="0 0 324 260" version="1.1" xmlns="http://www.w3.org/2000/svg" xmlns:xlink="http://www.w3.org/1999/xlink" xml:space="preserve" xmlns:serif="http://www.serif.com/" style="fill-rule:evenodd;clip-rule:evenodd;stroke-linecap:round;stroke-linejoin:round;stroke-miterlimit:1.5;"><g id="Grass_Ramp_LeftUp_low-angle3"><path d="M107.867,107.934l107.331,150.97l-214.662,-108.038l0,-96.598l107.331,53.666Z" style="fill:#685632;"/><clipPath id="_clip1"><path d="M107.867,107.934l107.331,150.97l-214.662,-108.038l0,-96.598l107.331,53.666Z"/></clipPath><g clip-path="url(#_clip1)"><path d="M90.397,174.331l11.734,-4.08l-0.235,-16.221l-6.989,-11.581l-11.749,-1.32l-5.987,4.726l-1.503,10.627l14.729,17.849" style="fill:#816b40;stroke:#000;stroke-width:1px;"/><path d="M86.075,190.679l17.273,-3.671l-1.819,-6.448l-9.043,-3.989l-7.195,0.973l-8.01,3.609l-0.029,5.633l8.823,3.893Z" style="fill:#816b40;stroke:#000;stroke-width:1px;"/><path d="M49.134,166.351l4.778,5.837l11.198,0.057l2.666,-4.498l2.28,-7.998l-9.769,-12.374l-3.564,4.94l-5.674,0.498l-3.859,9.847l1.944,3.691" style="fill:#816b40;stroke:#000;stroke-width:1px;"/><path d="M74.224,140.484l-6.211,-6.587l4.115,-12.274l9.073,-1.735l7.964,-0.802l2.763,4.188l3.721,-1.191l5.457,1.532l1.352,4.444l-6.164,3.963l-4.606,2.727l-8.414,4.037l-9.05,1.698Z" style="fill:#816b40;stroke:#000;stroke-width:1px;"/><path d="M35.073,151.428l-4.294,-4.585l-1.862,-10.648l2.871,-9.417l12.278,-2.446l3.22,7.815l-0.16,7.686l-4.698,7.216l-7.355,4.379Z" style="fill:#816b40;stroke:#000;stroke-width:1px;"/><path d="M16,105.5l-7.494,-11.309l2.215,-5.782l10.317,-18.523c0,0 7.679,6.583 10.234,6.868c2.556,0.284 7.574,5.082 7.574,5.082l-3.96,8.979l-9.329,5.375l-9.557,9.31Z" style="fill:#816b40;stroke:#000;stroke-width:1px;"/><path d="M61.289,119.543l-10.819,-2.741l-10.011,-8.444l2.663,-7.436l5.35,-5.277l7.762,2.587l4.722,5.79l3.252,6.875l-2.919,8.646" style="fill:#816b40;stroke:#000;stroke-width:1px;"/><path d="M4.526,125.457l8.581,-9.592l7.678,8.654l1.217,22.864l-12.832,4.344l-4.296,-9.129l-0.348,-17.141" style="fill:#816b40;stroke:#000;stroke-width:1px;"/><path d="M82.085,191.122l17.273,-3.671l-1.819,-6.447l-9.042,-3.99l-7.196,0.973l-8.01,3.61l-0.029,5.632l8.823,3.893Zm4.322,-16.348l-14.729,-17.849l1.503,-10.627l5.987,-4.725l11.749,1.319l6.989,11.582l0.235,16.22l-11.734,4.08Zm-41.263,-7.979l-1.944,-3.691l3.859,-9.848l5.674,-0.498l3.564,-4.939l9.77,12.374l-2.281,7.998l-2.666,4.497l-11.198,-0.057l-4.778,-5.836Zm-44.608,-40.894l8.581,-9.593l7.678,8.655l1.217,22.864l-12.832,4.344l-4.296,-9.13l-0.348,-17.14Zm30.547,25.971l-4.294,-4.586l-1.862,-10.647l2.871,-9.418l12.278,-2.445l3.22,7.815l-0.16,7.685l-4.698,7.216l-7.355,4.38Zm39.151,-10.945l-6.211,-6.587l4.115,-12.273l9.073,-1.736l7.964,-0.801l2.763,4.187l3.721,-1.191l5.457,1.532l1.352,4.444l-6.164,3.963l-4.606,2.727l-8.414,4.037l-9.05,1.698Zm-12.935,-20.941l-10.819,-2.741l-10.011,-8.444l2.663,-7.435l5.35,-5.277l7.762,2.587l4.722,5.79l3.252,6.875l-2.919,8.645Zm-45.289,-14.042l-7.494,-11.309l2.215,-5.783l10.317,-18.523c0,0 7.679,6.584 10.234,6.868c2.556,0.284 7.574,5.082 7.574,5.082l-3.96,8.979l-9.329,5.376l-9.557,9.31Z" style="fill:#311807;fill-opacity:0.5;"/><path d="M193.362,228.497l11.735,-4.08l-0.236,-16.221l-6.989,-11.581l-11.749,-1.32l-5.987,4.726l-1.503,10.627l14.729,17.849" style="fill:#816b40;stroke:#000;stroke-width:1px;"/><path d="M189.04,244.844l17.273,-3.67l-1.819,-6.448l-9.042,-3.989l-7.196,0.973l-8.01,3.609l-0.029,5.633l8.823,3.892Z" style="fill:#816b40;stroke:#000;stroke-width:1px;"/><path d="M152.099,220.517l4.778,5.837l11.198,0.057l2.666,-4.498l2.281,-7.998l-9.77,-12.374l-3.564,4.94l-5.674,0.498l-3.859,9.847l1.944,3.691" style="fill:#816b40;stroke:#000;stroke-width:1px;"/><path d="M177.189,194.65l-6.21,-6.587l4.114,-12.274l9.073,-1.735l7.964,-0.802l2.764,4.188l3.72,-1.192l5.457,1.533l1.352,4.444l-6.164,3.962l-4.606,2.728l-8.414,4.037l-9.05,1.698Z" style="fill:#816b40;stroke:#000;stroke-width:1px;"/><path d="M138.039,205.594l-4.295,-4.585l-1.862,-10.648l2.871,-9.418l12.278,-2.445l3.22,7.815l-0.16,7.685l-4.698,7.217l-7.354,4.379Z" style="fill:#816b40;stroke:#000;stroke-width:1px;"/><path d="M118.965,159.666l-7.494,-11.309l2.215,-5.782l10.317,-18.523c0,0 7.679,6.583 10.234,6.867c2.556,0.285 7.574,5.083 7.574,5.083l-3.96,8.979l-9.329,5.375l-9.557,9.31Z" style="fill:#816b40;stroke:#000;stroke-width:1px;"/><path d="M164.254,173.709l-10.818,-2.742l-10.012,-8.443l2.663,-7.436l5.35,-5.277l7.762,2.587l4.722,5.79l3.252,6.875l-2.919,8.646" style="fill:#816b40;stroke:#000;stroke-width:1px;"/><path d="M107.491,179.623l8.581,-9.592l7.678,8.654l1.217,22.864l-12.832,4.344l-4.296,-9.129l-0.348,-17.141" style="fill:#816b40;stroke:#000;stroke-width:1px;"/><path d="M185.05,245.288l17.273,-3.671l-1.819,-6.448l-9.042,-3.989l-7.196,0.973l-8.01,3.61l-0.029,5.632l8.823,3.893Zm4.322,-16.348l-14.729,-17.849l1.503,-10.627l5.987,-4.726l11.749,1.32l6.989,11.581l0.236,16.221l-11.735,4.08Zm-41.263,-7.98l-1.944,-3.69l3.859,-9.848l5.674,-0.498l3.564,-4.939l9.77,12.374l-2.281,7.997l-2.666,4.498l-11.198,-0.057l-4.778,-5.837Zm-44.608,-40.893l8.581,-9.593l7.678,8.654l1.217,22.864l-12.832,4.345l-4.296,-9.13l-0.348,-17.14Zm30.548,25.971l-4.295,-4.586l-1.861,-10.647l2.87,-9.418l12.278,-2.445l3.22,7.814l-0.16,7.686l-4.698,7.216l-7.354,4.38Zm39.15,-10.945l-6.21,-6.587l4.114,-12.273l9.073,-1.736l7.964,-0.802l2.764,4.188l3.72,-1.191l5.458,1.532l1.351,4.444l-6.164,3.963l-4.606,2.727l-8.414,4.037l-9.05,1.698Zm-12.935,-20.941l-10.818,-2.741l-10.012,-8.444l2.663,-7.435l5.351,-5.277l7.761,2.587l4.722,5.789l3.252,6.875l-2.919,8.646Zm-45.289,-14.043l-7.494,-11.309l2.215,-5.782l10.317,-18.523c0,0 7.679,6.584 10.235,6.868c2.555,0.284 7.573,5.082 7.573,5.082l-3.96,8.979l-9.329,5.376l-9.557,9.309Z" style="fill:#311807;fill-opacity:0.5;"/></g><path d="M107.867,107.934l107.331,150.97l-214.662,-108.038l0,-96.598l107.331,53.666Z" style="fill:none;stroke:#000;stroke-width:1px;"/><path d="M0.536,54.268l5.366,16.472l5.367,-3.527l2.029,11.412l10.187,2.205l3.883,14.158l5.367,-6.148l1.521,9.592l9.212,-1.723l3.224,13.307l6.47,-4.296l2.074,9.836l11.477,-0.896l4.059,12.292l5.876,-0.452l3.024,8.898l6.729,-1.259l2.86,15.768l5.919,-6.585l-0.119,6.743l3.361,-3.451l1.61,6.172l7.835,1.097l-1.098,10.163l7.937,-4.158l-1.473,10.232l5.367,-1.156l-1.699,6.277l11.281,-0.067l1.151,9.454l7.198,-1.298l0.961,5.78l5.367,-2.724l1.791,8.447l6.149,-1.994l2.062,7.828l5.668,0.471l0.53,3.904l5.048,-1.326l2.792,9.336l6.367,-3.183l-2.405,5.165l6.771,-0.445l2.5,7.946l8.233,0.78l0,7.291l5.367,-0.828l2.066,6.391l4.597,-1.002l-1.297,8.675l8.197,0.142l-0.057,5.337l7.96,9.583l107.802,-54.137l-5.837,-5.612l-7.062,-8.608l-7.278,-4.186l-4.729,-6.706l-7.764,-7.931l-6.048,-4.264l-5.678,-6.917l-9.74,-6.345l-3.098,-5.928l-6.698,-4.036l-8.009,-6.118l-5.015,-7.569l-10.543,-6.624l-5.107,-7.017l-8.59,-5.199l-7.461,-10.77l-9.878,-6.783l-5.668,-6.986l-6.958,-4.006l-4.454,-5.478l-7.165,-3.528l-5.71,-7.562l-3.548,-1.774l-1.527,-4.5l-5.016,-3.187l-4.581,-5.871l-5.908,-4.242l-1.872,-4.106l-6.625,-6.958l-7.56,-4.977l-3.173,-5.756l-6.722,-3.361l-6.177,-8.455l-8.568,-5.237l-5.366,-7.097l-107.331,53.195Z" style="fill:#b4e164;"/><clipPath id="_clip2"><path d="M0.536,54.268l5.366,16.472l5.367,-3.527l2.029,11.412l10.187,2.205l3.883,14.158l5.367,-6.148l1.521,9.592l9.212,-1.723l3.224,13.307l6.47,-4.296l2.074,9.836l11.477,-0.896l4.059,12.292l5.876,-0.452l3.024,8.898l6.729,-1.259l2.86,15.768l5.919,-6.585l-0.119,6.743l3.361,-3.451l1.61,6.172l7.835,1.097l-1.098,10.163l7.937,-4.158l-1.473,10.232l5.367,-1.156l-1.699,6.277l11.281,-0.067l1.151,9.454l7.198,-1.298l0.961,5.78l5.367,-2.724l1.791,8.447l6.149,-1.994l2.062,7.828l5.668,0.471l0.53,3.904l5.048,-1.326l2.792,9.336l6.367,-3.183l-2.405,5.165l6.771,-0.445l2.5,7.946l8.233,0.78l0,7.291l5.367,-0.828l2.066,6.391l4.597,-1.002l-1.297,8.675l8.197,0.142l-0.057,5.337l7.96,9.583l107.802,-54.137l-5.837,-5.612l-7.062,-8.608l-7.278,-4.186l-4.729,-6.706l-7.764,-7.931l-6.048,-4.264l-5.678,-6.917l-9.74,-6.345l-3.098,-5.928l-6.698,-4.036l-8.009,-6.118l-5.015,-7.569l-10.543,-6.624l-5.107,-7.017l-8.59,-5.199l-7.461,-10.77l-9.878,-6.783l-5.668,-6.986l-6.958,-4.006l-4.454,-5.478l-7.165,-3.528l-5.71,-7.562l-3.548,-1.774l-1.527,-4.5l-5.016,-3.187l-4.581,-5.871l-5.908,-4.242l-1.872,-4.106l-6.625,-6.958l-7.56,-4.977l-3.173,-5.756l-6.722,-3.361l-6.177,-8.455l-8.568,-5.237l-5.366,-7.097l-107.331,53.195Z"/></clipPath><g clip-path="url(#_clip2)"><path d="M118.6,176l-142.424,-119.815l142.424,-71.211l222.314,226.936l-125.716,52.125l-96.598,-88.035Z" style="fill:#2ff750;fill-opacity:0.15;"/><path d="M97.379,-0.117l5.121,15.718l5.367,-3.527l2.029,11.412l10.187,2.205l3.884,14.158l5.366,-6.148l1.521,9.592l9.212,-1.723l3.224,13.307l6.47,-4.296l2.074,9.836l11.477,-0.896l4.059,12.292l5.876,-0.452l3.024,8.898l6.729,-1.259l2.86,15.768l5.919,-6.585l-0.119,6.743l3.361,-3.451l1.61,6.172l7.835,1.097l-1.098,10.163l7.938,-4.158l-1.473,10.232l5.366,-1.156l-1.699,6.277l11.282,-0.067l1.15,9.454l7.198,-1.298l0.961,5.78l5.367,-2.724l1.792,8.447l6.149,-1.994l2.061,7.828l5.668,0.471l0.53,3.904l5.048,-1.326l2.792,9.336l6.367,-3.183l-2.404,5.165l6.77,-0.445l2.501,7.946l8.232,0.78l0,7.291l5.367,-0.828l2.066,6.391l4.597,-1.002l-1.296,8.675l8.196,0.142l-0.057,5.337l10.097,19.012l21.409,-9.118l5.287,5.027l-118.535,50.484l-10.097,-19.012l0.057,-5.337l-8.197,-0.142l1.297,-8.675l-4.597,1.002l-2.066,-6.391l-5.367,0.828l0,-7.291l-8.233,-0.78l-2.5,-7.946l-6.771,0.445l2.405,-5.165l-6.367,3.183l-2.792,-9.336l-5.048,1.326l-0.53,-3.904l-5.668,-0.471l-2.062,-7.828l-6.149,1.994l-1.791,-8.447l-5.367,2.724l-0.961,-5.78l-7.198,1.298l-1.151,-9.454l-11.281,0.067l1.699,-6.277l-5.367,1.156l1.473,-10.232l-7.937,4.158l1.098,-10.163l-7.835,-1.097l-1.61,-6.172l-3.361,3.451l0.119,-6.743l-5.919,6.585l-2.86,-15.768l-6.729,1.259l-3.024,-8.898l-5.876,0.452l-4.059,-12.292l-11.477,0.896l-2.074,-9.836l-6.47,4.296l-3.224,-13.307l-9.212,1.723l-1.521,-9.592l-5.367,6.148l-3.883,-14.158l-10.187,-2.205l-2.029,-11.412l-5.367,3.527l-5.366,-16.472l92.084,-45.639Z" style="fill:#62a02a;fill-opacity:0.35;"/></g><path d="M0.536,54.268l5.366,16.472l5.367,-3.527l2.029,11.412l10.187,2.205l3.883,14.158l5.367,-6.148l1.521,9.592l9.212,-1.723l3.224,13.307l6.47,-4.296l2.074,9.836l11.477,-0.896l4.059,12.292l5.876,-0.452l3.024,8.898l6.729,-1.259l2.86,15.768l5.919,-6.585l-0.119,6.743l3.361,-3.451l1.61,6.172l7.835,1.097l-1.098,10.163l7.937,-4.158l-1.473,10.232l5.367,-1.156l-1.699,6.277l11.281,-0.067l1.151,9.454l7.198,-1.298l0.961,5.78l5.367,-2.724l1.791,8.447l6.149,-1.994l2.062,7.828l5.668,0.471l0.53,3.904l5.048,-1.326l2.792,9.336l6.367,-3.183l-2.405,5.165l6.771,-0.445l2.5,7.946l8.233,0.78l0,7.291l5.367,-0.828l2.066,6.391l4.597,-1.002l-1.297,8.675l8.197,0.142l-0.057,5.337l7.96,9.583l107.802,-54.137l-5.837,-5.612l-7.062,-8.608l-7.278,-4.186l-4.729,-6.706l-7.764,-7.931l-6.048,-4.264l-5.678,-6.917l-9.74,-6.345l-3.098,-5.928l-6.698,-4.036l-8.009,-6.118l-5.015,-7.569l-10.543,-6.624l-5.107,-7.017l-8.59,-5.199l-7.461,-10.77l-9.878,-6.783l-5.668,-6.986l-6.958,-4.006l-4.454,-5.478l-7.165,-3.528l-5.71,-7.562l-3.548,-1.774l-1.527,-4.5l-5.016,-3.187l-4.581,-5.871l-5.908,-4.242l-1.872,-4.106l-6.625,-6.958l-7.56,-4.977l-3.173,-5.756l-6.722,-3.361l-6.177,-8.455l-8.568,-5.237l-5.366,-7.097l-107.331,53.195Z" style="fill:none;stroke:#000;stroke-width:1px;"/><g id="Way_Ramp_Up_low2"><path d="M85.451,11.809l-59.904,29.953l70.601,54.709l41.731,53.065l107.335,93.653l56.084,-28.043l-215.847,-203.337" style="fill:#c7a664;stroke:#000;stroke-width:1px;"/><g><path d="M47.976,60.339l0.075,-9.126l7.588,-3.14l6.783,6.749l7.62,4.239l6.676,8.475l-4.917,14.151l-9.601,0.148l-9.552,-5.858l-4.672,-15.638Z" style="fill:#acaba7;stroke:#000;stroke-width:1px;"/><path d="M46.622,65.39l0.075,-9.125l7.589,-3.141l6.782,6.749l7.62,4.239l6.676,8.476l-4.916,14.15l-9.602,0.149l-9.552,-5.858l-4.672,-15.639Z" style="fill:#4e4d47;fill-opacity:0.6;"/><path d="M54.184,48.978l-3.835,10.914l-9.647,5.592l-6.035,-5.634l-5.096,-11.537l2.927,-9.842l5.388,-7.964l6.766,6.525l5.827,6.968l3.705,4.978" style="fill:#acaba7;stroke:#000;stroke-width:1px;"/><path d="M52.83,54.03l-3.835,10.914l-9.646,5.592l-6.036,-5.634l-5.096,-11.537l2.927,-9.842l5.389,-7.964l6.766,6.525l5.826,6.968l3.705,4.978" style="fill:#4e4d47;fill-opacity:0.6;"/><path d="M40.49,38.531l-2.559,5.747l-8.572,8.443l-8.157,-6.223l0.733,-9.435l3.613,-7.745l7.638,8.211l1.96,-0.96l2.844,0.545l2.5,1.417Z" style="fill:#acaba7;stroke:#000;stroke-width:1px;"/><path d="M39.137,43.583l-2.56,5.746l-7.168,7.067l-3.644,-3.35l0.468,-8.931l3.108,-5.034l2.492,3.499l1.959,-0.959l2.844,0.545l2.501,1.417Z" style="fill:#4e4d47;fill-opacity:0.6;"/><path d="M97.995,108.223l-6.063,-12.77l-6.416,-7.21l0.028,-3.394l0.034,-4.211l4.794,0.794l4.796,0.485l3.347,5.728l3.66,2.792l2.484,4.758l4.708,11.244l-1.808,1.478l-6.224,2.854l-3.34,-2.548Z" style="fill:#acaba7;stroke:#000;stroke-width:1px;"/><path d="M96.642,113.275l-6.063,-12.77l-6.417,-7.211l0.028,-3.393l0.035,-4.211l4.793,0.794l4.797,0.485l3.347,5.727l3.659,2.792l2.485,4.759l4.708,11.244l-1.808,1.478l-6.224,2.854l-3.34,-2.548Z" style="fill:#4e4d47;fill-opacity:0.6;"/><path d="M120.821,102.806l-3.88,-9.658l-7.289,-1.984l-7.344,-0.19l-1.13,5.432l3.513,9.646l3.09,9.974l1.946,7.607l3.544,-3.589l3.391,1.474l4.534,-1.449l1.266,-3.04l-1.641,-14.223" style="fill:#acaba7;stroke:#000;stroke-width:1px;"/><path d="M119.467,107.858l-3.88,-9.658l-7.288,-1.984l-7.345,-0.19l-1.129,5.431l3.512,9.647l3.091,9.974l1.946,7.607l3.543,-3.59l3.391,1.475l4.534,-1.449l1.266,-3.04l-1.641,-14.223" style="fill:#4e4d47;fill-opacity:0.6;"/><path d="M85.708,73.001l-6.961,-6.196l-7.866,4.828l-9.133,3.454l5.915,10.794l1.73,9.311l6.628,-0.981l10.726,5.972l6.907,-7.171l1.662,-6.79l-4.838,-9.582l-4.77,-3.639Z" style="fill:#acaba7;stroke:#000;stroke-width:1px;"/><path d="M84.354,78.053l-6.961,-6.197l-7.866,4.829l-9.132,3.454l5.915,10.794l1.73,9.31l6.628,-0.981l10.725,5.973l6.907,-7.171l1.663,-6.79l-4.838,-9.582l-4.771,-3.639Z" style="fill:#4e4d47;fill-opacity:0.6;"/><path d="M187.069,171.993l0.386,9.111l-3.086,10.681l-10.324,-3.994l-3.973,-5.069l-6.664,-1.632l-1.39,-7.457l8.453,-5.105l6.308,-5.331l7.924,3.437l2.366,5.359Z" style="fill:#acaba7;stroke:#000;stroke-width:1px;"/><path d="M185.438,176.962l0.386,9.111l-3.087,10.681l-10.324,-3.994l-3.973,-5.069l-6.664,-1.632l-1.39,-7.458l8.454,-5.104l6.307,-5.331l7.924,3.436l2.367,5.36Z" style="fill:#4e4d47;fill-opacity:0.6;"/><path d="M177.395,164.259l-6.284,-11.686l-11.823,-6.042l-5.178,5.764l-2.828,6.633l6.341,13.689l-0.606,9.489l9.604,0.248l4.975,-2.603l3.043,-5.219l2.756,-10.273Z" style="fill:#acaba7;stroke:#000;stroke-width:1px;"/><path d="M175.763,169.228l-6.284,-11.686l-11.823,-6.042l-5.178,5.764l-2.828,6.633l6.341,13.688l-0.606,9.489l9.604,0.248l4.976,-2.602l3.042,-5.219l2.756,-10.273Z" style="fill:#4e4d47;fill-opacity:0.6;"/><path d="M240.511,226.541l-2.731,7.316l-5.969,2.523l-11.005,-8.249l-8.984,-10.326l4.89,-6.622l10.314,-4.36l13.485,19.718Z" style="fill:#acaba7;stroke:#000;stroke-width:1px;"/><path d="M238.88,231.51l-2.732,7.316l-5.968,2.523l-10.934,-9.754l-4.371,-6.874l6.595,-6.992l6.428,-4.339l10.982,18.12Z" style="fill:#4e4d47;fill-opacity:0.6;"/><path d="M254.169,228.826l0.386,9.111l-3.087,10.681l-10.324,-3.994l-3.973,-5.069l-6.664,-1.632l-1.39,-7.457l8.454,-5.105l6.307,-5.331l7.924,3.436l2.367,5.36Z" style="fill:#acaba7;stroke:#000;stroke-width:1px;"/><path d="M252.537,233.795l0.386,9.111l-3.087,10.681l-10.324,-3.994l-3.973,-5.069l-6.664,-1.632l-1.39,-7.458l8.454,-5.104l6.307,-5.331l7.924,3.436l2.367,5.36Z" style="fill:#4e4d47;fill-opacity:0.6;"/><path d="M225.294,209.456l-6.284,-11.686l-11.823,-6.042l-5.178,5.764l-2.828,6.633l6.341,13.688l-0.606,9.489l9.603,0.248l4.976,-2.602l3.042,-5.219l2.757,-10.273Z" style="fill:#acaba7;stroke:#000;stroke-width:1px;"/><path d="M223.662,214.425l-6.284,-11.686l-11.823,-6.042l-5.178,5.764l-2.828,6.632l6.341,13.689l-0.606,9.489l9.604,0.248l4.975,-2.602l3.043,-5.219l2.756,-10.273Z" style="fill:#4e4d47;fill-opacity:0.6;"/><path d="M133.303,129.573l-5.992,-13.837l-11.886,-7.759l-2.548,7.829l-0.444,6.949l7.822,14.608l0.438,6.69l6.622,-0.655l8.695,9.818l6.713,0.185l1.66,-3.726l-1.647,-5.725l-2.652,-2.267l-6.781,-12.11" style="fill:#acaba7;stroke:#000;stroke-width:1px;"/><path d="M131.671,134.542l-5.992,-13.837l-11.886,-7.759l-2.548,7.829l-0.444,6.949l7.822,14.608l0.438,6.69l6.622,-0.655l8.695,9.818l6.713,0.185l1.66,-3.726l-1.647,-5.725l-2.652,-2.267l-6.781,-12.11" style="fill:#4e4d47;fill-opacity:0.6;"/><path d="M160.862,154.151c-0.916,-1.64 -12.449,-12.17 -12.449,-12.17l-11.857,-2.271l0.448,11.463l7.334,4.356l6.348,7.34c0,0 11.093,-7.078 10.176,-8.718Z" style="fill:#acaba7;stroke:#000;stroke-width:1px;"/><path d="M159.231,159.12c-0.917,-1.64 -12.45,-12.17 -12.45,-12.17l-11.857,-2.271l0.448,11.463l7.334,4.356l6.349,7.34c0,0 11.092,-7.078 10.176,-8.718Z" style="fill:#4e4d47;fill-opacity:0.6;"/><path d="M206.085,198.842l-2.731,7.316l-5.969,2.523l-11.005,-8.249l-8.985,-10.326l4.891,-6.622l10.314,-4.36l13.485,19.718Z" style="fill:#acaba7;stroke:#000;stroke-width:1px;"/><path d="M204.453,203.811l-2.731,7.316l-5.969,2.522l-10.933,-9.753l-4.371,-6.875l6.595,-6.992l6.427,-4.338l10.982,18.12Z" style="fill:#4e4d47;fill-opacity:0.6;"/></g><g><path d="M175.926,77.288l0.386,9.111l-3.087,10.681l-10.323,-3.994l-3.973,-5.069l-6.665,-1.632l-1.389,-7.457l8.453,-5.105l6.308,-5.331l7.923,3.436l2.367,5.36Z" style="fill:#acaba7;stroke:#000;stroke-width:1px;"/><path d="M174.294,82.257l0.386,9.111l-3.086,10.681l-10.324,-3.994l-3.973,-5.069l-6.665,-1.632l-1.389,-7.458l8.453,-5.104l6.308,-5.331l7.924,3.436l2.366,5.36Z" style="fill:#4e4d47;fill-opacity:0.6;"/><path d="M163.566,66.16l-6.284,-11.686l-11.824,-6.042l-5.177,5.764l-2.829,6.633l6.341,13.688l-0.606,9.489l9.604,0.249l4.976,-2.603l3.042,-5.219l2.757,-10.273Z" style="fill:#acaba7;stroke:#000;stroke-width:1px;"/><path d="M161.934,71.129l-6.284,-11.686l-11.823,-6.042l-5.178,5.764l-2.829,6.633l6.341,13.688l-0.606,9.489l9.604,0.248l4.976,-2.602l3.042,-5.219l2.757,-10.273Z" style="fill:#4e4d47;fill-opacity:0.6;"/><path d="M123.855,35.706l-5.992,-13.836l-11.886,-7.76l-2.548,7.829l-0.444,6.95l7.821,14.608l0.439,6.689l6.622,-0.654l8.695,9.817l6.713,0.186l1.66,-3.727l-1.647,-5.724l-2.653,-2.267l-6.78,-12.111" style="fill:#acaba7;stroke:#000;stroke-width:1px;"/><path d="M122.223,40.675l-5.992,-13.836l-11.886,-7.76l-2.548,7.829l-0.444,6.95l7.822,14.608l0.438,6.689l6.622,-0.654l8.695,9.817l6.713,0.186l1.66,-3.727l-1.647,-5.724l-2.652,-2.267l-6.781,-12.111" style="fill:#4e4d47;fill-opacity:0.6;"/><path d="M149.018,66.194c-0.916,-1.64 -12.45,-12.169 -12.45,-12.169l-11.856,-2.272l0.448,11.463l7.333,4.357l6.349,7.339c0,0 11.093,-7.078 10.176,-8.718Z" style="fill:#acaba7;stroke:#000;stroke-width:1px;"/><path d="M147.386,71.163c-0.916,-1.64 -12.45,-12.17 -12.45,-12.17l-11.856,-2.271l0.448,11.463l7.333,4.356l6.349,7.34c0,0 11.093,-7.078 10.176,-8.718Z" style="fill:#4e4d47;fill-opacity:0.6;"/><path d="M105.245,24.743l-2.732,7.316l-5.968,2.523l-11.006,-8.249l-8.984,-10.326l4.89,-6.622l10.314,-4.36l13.486,19.718Z" style="fill:#acaba7;stroke:#000;stroke-width:1px;"/><path d="M103.613,29.712l-2.731,7.316l-5.969,2.522l-10.934,-9.753l-4.371,-6.875l6.595,-6.992l6.428,-4.338l10.982,18.12Z" style="fill:#4e4d47;fill-opacity:0.6;"/><path d="M202.908,104.089l0.386,9.111l-3.087,10.681l-10.323,-3.994l-3.973,-5.069l-6.665,-1.632l-1.389,-7.458l8.453,-5.104l6.308,-5.331l7.923,3.436l2.367,5.36Z" style="fill:#acaba7;stroke:#000;stroke-width:1px;"/><path d="M201.276,109.058l0.386,9.111l-3.086,10.681l-10.324,-3.994l-3.973,-5.069l-6.665,-1.633l-1.389,-7.457l8.453,-5.104l6.308,-5.332l7.924,3.437l2.366,5.36Z" style="fill:#4e4d47;fill-opacity:0.6;"/><path d="M193.234,96.355l-6.284,-11.686l-11.823,-6.042l-5.178,5.764l-2.828,6.633l6.34,13.688l-0.605,9.489l9.603,0.248l4.976,-2.602l3.042,-5.219l2.757,-10.273Z" style="fill:#acaba7;stroke:#000;stroke-width:1px;"/><path d="M191.602,101.324l-6.284,-11.686l-11.823,-6.042l-5.178,5.764l-2.828,6.633l6.341,13.688l-0.606,9.489l9.603,0.248l4.976,-2.602l3.042,-5.219l2.757,-10.273Z" style="fill:#4e4d47;fill-opacity:0.6;"/><path d="M281.176,190.853l-2.732,7.316l-5.968,2.522l-11.006,-8.248l-8.984,-10.326l4.89,-6.623l10.314,-4.359l13.486,19.718Z" style="fill:#acaba7;stroke:#000;stroke-width:1px;"/><path d="M279.544,195.821l-2.731,7.316l-5.969,2.523l-10.934,-9.753l-4.371,-6.875l6.595,-6.992l6.428,-4.338l10.982,18.119Z" style="fill:#4e4d47;fill-opacity:0.6;"/><path d="M309.587,205.441l0.386,9.111l-3.086,10.681l-10.324,-3.994l-3.973,-5.069l-6.664,-1.632l-1.39,-7.458l8.453,-5.104l6.308,-5.331l7.924,3.436l2.366,5.36Z" style="fill:#acaba7;stroke:#000;stroke-width:1px;"/><path d="M307.956,210.409l0.386,9.112l-3.087,10.681l-10.324,-3.994l-3.973,-5.069l-6.664,-1.633l-1.39,-7.457l8.454,-5.104l6.307,-5.332l7.924,3.437l2.367,5.359Z" style="fill:#4e4d47;fill-opacity:0.6;"/><path d="M299.913,197.707l-6.284,-11.686l-11.823,-6.042l-5.178,5.764l-2.828,6.633l6.341,13.688l-0.606,9.489l9.604,0.248l4.975,-2.602l3.043,-5.219l2.756,-10.273Z" style="fill:#acaba7;stroke:#000;stroke-width:1px;"/><path d="M298.281,202.676l-6.284,-11.686l-11.823,-6.042l-5.178,5.764l-2.828,6.632l6.341,13.689l-0.606,9.489l9.604,0.248l4.976,-2.602l3.042,-5.22l2.756,-10.272Z" style="fill:#4e4d47;fill-opacity:0.6;"/><path d="M238.138,147.811l-5.992,-13.837l-11.886,-7.759l-2.548,7.829l-0.444,6.949l7.822,14.608l0.438,6.69l6.622,-0.655l8.695,9.818l6.713,0.185l1.66,-3.726l-1.647,-5.725l-2.652,-2.267l-6.781,-12.11" style="fill:#acaba7;stroke:#000;stroke-width:1px;"/><path d="M236.506,152.78l-5.992,-13.837l-11.886,-7.759l-2.548,7.829l-0.444,6.949l7.822,14.608l0.438,6.69l6.622,-0.655l8.695,9.818l6.714,0.185l1.659,-3.726l-1.647,-5.725l-2.652,-2.267l-6.781,-12.11" style="fill:#4e4d47;fill-opacity:0.6;"/><path d="M265.698,172.389c-0.917,-1.64 -12.45,-12.17 -12.45,-12.17l-11.857,-2.271l0.448,11.463l7.334,4.356l6.348,7.34c0,0 11.093,-7.078 10.177,-8.718Z" style="fill:#acaba7;stroke:#000;stroke-width:1px;"/><path d="M264.066,177.358c-0.917,-1.64 -12.45,-12.17 -12.45,-12.17l-11.857,-2.271l0.448,11.463l7.334,4.356l6.349,7.339c0,0 11.092,-7.077 10.176,-8.717Z" style="fill:#4e4d47;fill-opacity:0.6;"/><path d="M221.924,130.938l-2.731,7.316l-5.969,2.522l-11.006,-8.248l-8.984,-10.326l4.891,-6.623l10.314,-4.359l13.485,19.718Z" style="fill:#acaba7;stroke:#000;stroke-width:1px;"/><path d="M220.292,135.906l-2.731,7.316l-5.969,2.523l-10.933,-9.753l-4.371,-6.875l6.595,-6.992l6.427,-4.338l10.982,18.119Z" style="fill:#4e4d47;fill-opacity:0.6;"/></g></g></g></svg>