<?xml version="1.0" encoding="UTF-8" standalone="no"?><!DOCTYPE svg PUBLIC "-//W3C//DTD SVG 1.1//EN" "http://www.w3.org/Graphics/SVG/1.1/DTD/svg11.dtd"><svg width="100%" height="100%" viewBox="0 0 324 260" version="1.1" xmlns="http://www.w3.org/2000/svg" xmlns:xlink="http://www.w3.org/1999/xlink" xml:space="preserve" xmlns:serif="http://www.serif.com/" style="fill-rule:evenodd;clip-rule:evenodd;stroke-linecap:round;stroke-linejoin:round;stroke-miterlimit:1.5;"><g id="Sand_Ramp_LeftUp_low-angle3"><path d="M108.796,108.45l-107.332,-53.666l0,96.598l107.332,53.666" style="fill:#b08255;"/><clipPath id="_clip1"><path d="M108.796,108.45l-107.332,-53.666l0,96.598l107.332,53.666"/></clipPath><g clip-path="url(#_clip1)"><path d="M1.464,129.916c0,0 32.024,3.078 45.851,22.925c13.827,19.848 36.003,29.261 61.481,30.741c25.477,1.479 65.459,-69.042 107.331,-53.666c41.872,15.377 13.212,68.526 13.212,68.526l-160.009,19.072l-73.232,-47.349l5.366,-40.249Z" style="fill:#a27247;"/></g><path d="M108.796,108.45l-107.332,-53.666l0,96.598l107.332,53.666" style="fill:none;stroke:#000;stroke-width:1px;"/><path d="M108.796,205.048l-10.734,-5.367l118.065,59.033l0,-96.599l-118.065,-59.032" style="fill:#b08255;"/><clipPath id="_clip2"><path d="M108.796,205.048l-10.734,-5.367l118.065,59.033l0,-96.599l-118.065,-59.032"/></clipPath><g clip-path="url(#_clip2)"><path d="M106.52,183.428c0,0 34.299,3.232 48.127,23.079c13.827,19.848 36.002,29.26 61.48,30.74c25.477,1.48 65.459,-69.042 107.331,-53.665c41.872,15.376 13.212,68.526 13.212,68.526l-160.009,19.072l-73.232,-47.349l3.091,-40.403Z" style="fill:#a27247;"/></g><path d="M108.796,205.048l-10.734,-5.367l118.065,59.033l0,-96.599l-118.065,-59.032" style="fill:none;stroke:#000;stroke-width:1px;"/><path d="M1.464,54.784l214.663,203.93l107.331,-53.666l-214.662,-203.929l-107.332,53.665Z" style="fill:#e1aa80;stroke:#000;stroke-width:1px;"/><g id="Way_Ramp_Up_low2"><path d="M86.315,12.181l-59.905,29.952l70.601,54.71l41.731,53.064l107.335,93.653l56.085,-28.042l-215.847,-203.337" style="fill:#c78664;stroke:#000;stroke-width:1px;"/><g><path d="M48.839,60.71l0.075,-9.126l7.589,-3.14l6.782,6.749l7.62,4.239l6.676,8.475l-4.916,14.151l-9.602,0.149l-9.552,-5.858l-4.672,-15.639Z" style="fill:#918f88;stroke:#000;stroke-width:1px;"/><path d="M47.486,65.761l0.075,-9.125l7.588,-3.14l6.783,6.749l7.62,4.239l6.676,8.475l-4.917,14.15l-9.601,0.149l-9.552,-5.858l-4.672,-15.639Z" style="fill:#2f2d27;fill-opacity:0.6;"/><path d="M55.048,49.35l-3.836,10.913l-9.646,5.592l-6.036,-5.634l-5.096,-11.537l2.927,-9.842l5.389,-7.964l6.766,6.526l5.827,6.967l3.705,4.979" style="fill:#918f88;stroke:#000;stroke-width:1px;"/><path d="M53.694,54.401l-3.835,10.914l-9.647,5.592l-6.035,-5.634l-5.096,-11.537l2.927,-9.842l5.388,-7.964l6.766,6.525l5.827,6.968l3.705,4.978" style="fill:#2f2d27;fill-opacity:0.6;"/><path d="M41.354,38.903l-2.559,5.746l-8.572,8.443l-8.157,-6.223l0.733,-9.434l3.613,-7.746l7.638,8.211l1.959,-0.96l2.844,0.546l2.501,1.417Z" style="fill:#918f88;stroke:#000;stroke-width:1px;"/><path d="M40,43.954l-2.559,5.747l-7.168,7.067l-3.644,-3.35l0.467,-8.932l3.108,-5.033l2.492,3.498l1.96,-0.959l2.844,0.545l2.5,1.417Z" style="fill:#2f2d27;fill-opacity:0.6;"/><path d="M98.859,108.594l-6.063,-12.77l-6.416,-7.21l0.027,-3.394l0.035,-4.211l4.794,0.794l4.796,0.485l3.347,5.728l3.659,2.792l2.485,4.759l4.708,11.243l-1.808,1.478l-6.224,2.854l-3.34,-2.548Z" style="fill:#918f88;stroke:#000;stroke-width:1px;"/><path d="M97.505,113.646l-6.063,-12.77l-6.416,-7.211l0.028,-3.393l0.034,-4.211l4.794,0.794l4.796,0.485l3.347,5.727l3.66,2.792l2.485,4.759l4.707,11.244l-1.807,1.478l-6.225,2.854l-3.34,-2.548Z" style="fill:#2f2d27;fill-opacity:0.6;"/><path d="M121.684,103.177l-3.88,-9.658l-7.288,-1.983l-7.345,-0.191l-1.129,5.432l3.513,9.647l3.09,9.973l1.946,7.607l3.543,-3.589l3.391,1.474l4.534,-1.448l1.266,-3.041l-1.641,-14.223" style="fill:#918f88;stroke:#000;stroke-width:1px;"/><path d="M120.331,108.229l-3.88,-9.658l-7.289,-1.984l-7.344,-0.19l-1.13,5.432l3.513,9.646l3.09,9.974l1.946,7.607l3.544,-3.59l3.391,1.475l4.534,-1.449l1.266,-3.04l-1.641,-14.223" style="fill:#2f2d27;fill-opacity:0.6;"/><path d="M86.572,73.372l-6.962,-6.196l-7.866,4.828l-9.132,3.454l5.915,10.794l1.73,9.311l6.628,-0.981l10.725,5.972l6.907,-7.171l1.663,-6.79l-4.838,-9.582l-4.77,-3.639Z" style="fill:#918f88;stroke:#000;stroke-width:1px;"/><path d="M85.218,78.424l-6.961,-6.196l-7.866,4.828l-9.133,3.454l5.915,10.794l1.731,9.31l6.627,-0.981l10.726,5.973l6.907,-7.171l1.662,-6.79l-4.838,-9.582l-4.77,-3.639Z" style="fill:#2f2d27;fill-opacity:0.6;"/><path d="M187.933,172.364l0.386,9.112l-3.087,10.681l-10.324,-3.995l-3.973,-5.069l-6.664,-1.632l-1.389,-7.457l8.453,-5.105l6.307,-5.331l7.924,3.437l2.367,5.359Z" style="fill:#918f88;stroke:#000;stroke-width:1px;"/><path d="M186.301,177.333l0.386,9.111l-3.087,10.681l-10.324,-3.994l-3.972,-5.069l-6.665,-1.632l-1.389,-7.457l8.453,-5.105l6.308,-5.331l7.923,3.436l2.367,5.36Z" style="fill:#2f2d27;fill-opacity:0.6;"/><path d="M178.259,164.631l-6.284,-11.686l-11.823,-6.042l-5.178,5.764l-2.829,6.632l6.341,13.689l-0.606,9.489l9.604,0.248l4.976,-2.602l3.042,-5.22l2.757,-10.272Z" style="fill:#918f88;stroke:#000;stroke-width:1px;"/><path d="M176.627,169.599l-6.284,-11.686l-11.823,-6.042l-5.178,5.764l-2.828,6.633l6.34,13.688l-0.605,9.489l9.603,0.249l4.976,-2.603l3.042,-5.219l2.757,-10.273Z" style="fill:#2f2d27;fill-opacity:0.6;"/><path d="M241.375,226.912l-2.731,7.316l-5.969,2.523l-11.005,-8.249l-8.985,-10.326l4.891,-6.622l10.314,-4.359l13.485,19.717Z" style="fill:#918f88;stroke:#000;stroke-width:1px;"/><path d="M239.743,231.881l-2.731,7.316l-5.969,2.523l-10.933,-9.753l-4.371,-6.875l6.595,-6.992l6.427,-4.339l10.982,18.12Z" style="fill:#2f2d27;fill-opacity:0.6;"/><path d="M255.032,229.197l0.386,9.112l-3.087,10.681l-10.323,-3.995l-3.973,-5.069l-6.665,-1.632l-1.389,-7.457l8.453,-5.105l6.308,-5.331l7.923,3.437l2.367,5.359Z" style="fill:#918f88;stroke:#000;stroke-width:1px;"/><path d="M253.4,234.166l0.386,9.111l-3.086,10.681l-10.324,-3.994l-3.973,-5.069l-6.665,-1.632l-1.389,-7.458l8.453,-5.104l6.308,-5.331l7.923,3.436l2.367,5.36Z" style="fill:#2f2d27;fill-opacity:0.6;"/><path d="M226.158,209.827l-6.284,-11.686l-11.824,-6.042l-5.177,5.764l-2.829,6.633l6.341,13.688l-0.606,9.489l9.604,0.249l4.976,-2.603l3.042,-5.219l2.757,-10.273Z" style="fill:#918f88;stroke:#000;stroke-width:1px;"/><path d="M224.526,214.796l-6.284,-11.686l-11.823,-6.042l-5.178,5.764l-2.828,6.633l6.34,13.688l-0.606,9.489l9.604,0.248l4.976,-2.602l3.042,-5.219l2.757,-10.273Z" style="fill:#2f2d27;fill-opacity:0.6;"/><path d="M134.166,129.944l-5.992,-13.836l-11.885,-7.76l-2.548,7.829l-0.444,6.95l7.821,14.608l0.439,6.689l6.622,-0.654l8.694,9.817l6.714,0.185l1.66,-3.726l-1.648,-5.724l-2.652,-2.267l-6.781,-12.111" style="fill:#918f88;stroke:#000;stroke-width:1px;"/><path d="M132.534,134.913l-5.992,-13.837l-11.885,-7.759l-2.548,7.829l-0.444,6.949l7.821,14.608l0.439,6.69l6.622,-0.655l8.694,9.818l6.714,0.185l1.66,-3.726l-1.648,-5.725l-2.652,-2.267l-6.781,-12.11" style="fill:#2f2d27;fill-opacity:0.6;"/><path d="M161.726,154.522c-0.916,-1.64 -12.45,-12.169 -12.45,-12.169l-11.856,-2.272l0.447,11.463l7.334,4.357l6.349,7.339c0,0 11.092,-7.078 10.176,-8.718Z" style="fill:#918f88;stroke:#000;stroke-width:1px;"/><path d="M160.094,159.491c-0.916,-1.64 -12.45,-12.17 -12.45,-12.17l-11.856,-2.271l0.447,11.463l7.334,4.356l6.349,7.34c0,0 11.092,-7.078 10.176,-8.718Z" style="fill:#2f2d27;fill-opacity:0.6;"/><path d="M206.949,199.213l-2.732,7.316l-5.968,2.523l-11.006,-8.249l-8.984,-10.326l4.89,-6.622l10.315,-4.36l13.485,19.718Z" style="fill:#918f88;stroke:#000;stroke-width:1px;"/><path d="M205.317,204.182l-2.731,7.316l-5.969,2.523l-10.934,-9.754l-4.371,-6.874l6.595,-6.992l6.428,-4.339l10.982,18.12Z" style="fill:#2f2d27;fill-opacity:0.6;"/></g><g><path d="M176.79,77.659l0.386,9.112l-3.087,10.681l-10.324,-3.995l-3.973,-5.069l-6.664,-1.632l-1.389,-7.457l8.453,-5.105l6.307,-5.331l7.924,3.437l2.367,5.359Z" style="fill:#918f88;stroke:#000;stroke-width:1px;"/><path d="M175.158,82.628l0.386,9.111l-3.087,10.681l-10.324,-3.994l-3.973,-5.069l-6.664,-1.632l-1.389,-7.458l8.453,-5.104l6.307,-5.331l7.924,3.436l2.367,5.36Z" style="fill:#2f2d27;fill-opacity:0.6;"/><path d="M164.429,66.531l-6.284,-11.686l-11.823,-6.042l-5.178,5.765l-2.828,6.632l6.341,13.689l-0.606,9.489l9.604,0.248l4.975,-2.602l3.042,-5.22l2.757,-10.273Z" style="fill:#918f88;stroke:#000;stroke-width:1px;"/><path d="M162.797,71.5l-6.284,-11.686l-11.823,-6.042l-5.178,5.764l-2.828,6.633l6.341,13.688l-0.606,9.489l9.604,0.248l4.976,-2.602l3.042,-5.219l2.756,-10.273Z" style="fill:#2f2d27;fill-opacity:0.6;"/><path d="M124.718,36.078l-5.992,-13.837l-11.886,-7.759l-2.548,7.828l-0.443,6.95l7.821,14.608l0.439,6.69l6.621,-0.655l8.695,9.818l6.714,0.185l1.66,-3.726l-1.648,-5.725l-2.652,-2.267l-6.781,-12.11" style="fill:#918f88;stroke:#000;stroke-width:1px;"/><path d="M123.086,41.046l-5.992,-13.836l-11.885,-7.76l-2.548,7.829l-0.444,6.95l7.821,14.608l0.439,6.689l6.622,-0.654l8.694,9.817l6.714,0.186l1.66,-3.727l-1.648,-5.724l-2.652,-2.267l-6.781,-12.111" style="fill:#2f2d27;fill-opacity:0.6;"/><path d="M149.882,66.566c-0.916,-1.641 -12.45,-12.17 -12.45,-12.17l-11.856,-2.272l0.447,11.464l7.334,4.356l6.349,7.339c0,0 11.092,-7.077 10.176,-8.717Z" style="fill:#918f88;stroke:#000;stroke-width:1px;"/><path d="M148.25,71.534c-0.916,-1.64 -12.45,-12.169 -12.45,-12.169l-11.856,-2.272l0.447,11.463l7.334,4.356l6.349,7.34c0,0 11.092,-7.078 10.176,-8.718Z" style="fill:#2f2d27;fill-opacity:0.6;"/><path d="M106.108,25.114l-2.731,7.316l-5.969,2.523l-11.005,-8.249l-8.985,-10.326l4.891,-6.622l10.314,-4.36l13.485,19.718Z" style="fill:#918f88;stroke:#000;stroke-width:1px;"/><path d="M104.476,30.083l-2.731,7.316l-5.969,2.523l-10.933,-9.754l-4.371,-6.874l6.595,-6.992l6.428,-4.339l10.981,18.12Z" style="fill:#2f2d27;fill-opacity:0.6;"/><path d="M203.772,104.46l0.386,9.111l-3.087,10.681l-10.324,-3.994l-3.973,-5.069l-6.664,-1.632l-1.389,-7.457l8.453,-5.105l6.307,-5.331l7.924,3.437l2.367,5.359Z" style="fill:#918f88;stroke:#000;stroke-width:1px;"/><path d="M202.14,109.429l0.386,9.111l-3.087,10.681l-10.324,-3.994l-3.973,-5.069l-6.664,-1.632l-1.389,-7.458l8.453,-5.104l6.307,-5.331l7.924,3.436l2.367,5.36Z" style="fill:#2f2d27;fill-opacity:0.6;"/><path d="M194.098,96.726l-6.284,-11.686l-11.824,-6.042l-5.177,5.765l-2.829,6.632l6.341,13.689l-0.606,9.489l9.604,0.248l4.976,-2.603l3.042,-5.219l2.757,-10.273Z" style="fill:#918f88;stroke:#000;stroke-width:1px;"/><path d="M192.466,101.695l-6.284,-11.686l-11.823,-6.042l-5.178,5.764l-2.829,6.633l6.341,13.688l-0.606,9.489l9.604,0.248l4.976,-2.602l3.042,-5.219l2.757,-10.273Z" style="fill:#2f2d27;fill-opacity:0.6;"/><path d="M282.039,191.224l-2.731,7.316l-5.969,2.523l-11.005,-8.249l-8.985,-10.326l4.891,-6.622l10.314,-4.36l13.485,19.718Z" style="fill:#918f88;stroke:#000;stroke-width:1px;"/><path d="M280.407,196.193l-2.731,7.316l-5.969,2.522l-10.933,-9.753l-4.371,-6.875l6.595,-6.992l6.428,-4.338l10.981,18.12Z" style="fill:#2f2d27;fill-opacity:0.6;"/><path d="M310.451,205.812l0.386,9.111l-3.087,10.681l-10.324,-3.994l-3.972,-5.069l-6.665,-1.632l-1.389,-7.457l8.453,-5.105l6.307,-5.331l7.924,3.436l2.367,5.36Z" style="fill:#918f88;stroke:#000;stroke-width:1px;"/><path d="M308.819,210.781l0.386,9.111l-3.087,10.681l-10.324,-3.994l-3.972,-5.069l-6.665,-1.632l-1.389,-7.458l8.453,-5.104l6.308,-5.331l7.923,3.436l2.367,5.36Z" style="fill:#2f2d27;fill-opacity:0.6;"/><path d="M300.777,198.078l-6.284,-11.686l-11.823,-6.042l-5.178,5.764l-2.828,6.633l6.34,13.688l-0.606,9.489l9.604,0.249l4.976,-2.603l3.042,-5.219l2.757,-10.273Z" style="fill:#918f88;stroke:#000;stroke-width:1px;"/><path d="M299.145,203.047l-6.284,-11.686l-11.823,-6.042l-5.178,5.764l-2.828,6.633l6.34,13.688l-0.605,9.489l9.603,0.248l4.976,-2.602l3.042,-5.219l2.757,-10.273Z" style="fill:#2f2d27;fill-opacity:0.6;"/><path d="M239.001,148.182l-5.992,-13.836l-11.885,-7.76l-2.548,7.829l-0.444,6.95l7.821,14.608l0.439,6.689l6.622,-0.654l8.694,9.817l6.714,0.185l1.66,-3.726l-1.648,-5.724l-2.652,-2.267l-6.781,-12.111" style="fill:#918f88;stroke:#000;stroke-width:1px;"/><path d="M237.369,153.151l-5.991,-13.837l-11.886,-7.759l-2.548,7.829l-0.444,6.949l7.821,14.608l0.439,6.69l6.622,-0.655l8.694,9.818l6.714,0.185l1.66,-3.726l-1.648,-5.725l-2.652,-2.267l-6.781,-12.11" style="fill:#2f2d27;fill-opacity:0.6;"/><path d="M266.561,172.76c-0.916,-1.64 -12.45,-12.169 -12.45,-12.169l-11.856,-2.272l0.447,11.463l7.334,4.357l6.349,7.339c0,0 11.092,-7.078 10.176,-8.718Z" style="fill:#918f88;stroke:#000;stroke-width:1px;"/><path d="M264.929,177.729c-0.916,-1.64 -12.45,-12.17 -12.45,-12.17l-11.856,-2.271l0.447,11.463l7.334,4.356l6.349,7.34c0,0 11.093,-7.078 10.176,-8.718Z" style="fill:#2f2d27;fill-opacity:0.6;"/><path d="M222.787,131.309l-2.731,7.316l-5.969,2.523l-11.005,-8.249l-8.984,-10.326l4.89,-6.622l10.314,-4.36l13.485,19.718Z" style="fill:#918f88;stroke:#000;stroke-width:1px;"/><path d="M221.155,136.278l-2.731,7.316l-5.968,2.522l-10.934,-9.753l-4.371,-6.875l6.595,-6.992l6.428,-4.338l10.981,18.12Z" style="fill:#2f2d27;fill-opacity:0.6;"/></g></g></g></svg>