<?xml version="1.0" encoding="UTF-8" standalone="no"?><!DOCTYPE svg PUBLIC "-//W3C//DTD SVG 1.1//EN" "http://www.w3.org/Graphics/SVG/1.1/DTD/svg11.dtd"><svg width="100%" height="100%" viewBox="0 0 334 262" version="1.1" xmlns="http://www.w3.org/2000/svg" xmlns:xlink="http://www.w3.org/1999/xlink" xml:space="preserve" xmlns:serif="http://www.serif.com/" style="fill-rule:evenodd;clip-rule:evenodd;stroke-linecap:round;stroke-linejoin:round;stroke-miterlimit:1.5;"><g id="Stone_Ramp_RightUp_low-angle2"><g id="Stone_Ramp_RightUp_low-angle1"><path d="M325.305,54.473l-18.529,-12.134l-20.978,-5.611l-21.367,-12.624l-15.816,-7.931l-14.542,-1.881l-16.1,-13.484l-11.049,16.009l-31.033,15.516l-16.1,24.15l-21.74,16.237l-10.459,15.962l-16.1,8.05l-5.366,10.959l-10.733,5.366l-21.467,24.611l-16.099,12.73l-16.1,18.783l-16.1,18.783l-21.466,16.099l107.331,53.666l207.66,-175.231l6.153,-28.025Z" style="fill:#947c6c;"/><clipPath id="_clip1"><path d="M325.305,54.473l-18.529,-12.134l-20.978,-5.611l-21.367,-12.624l-15.816,-7.931l-14.542,-1.881l-16.1,-13.484l-11.049,16.009l-31.033,15.516l-16.1,24.15l-21.74,16.237l-10.459,15.962l-16.1,8.05l-5.366,10.959l-10.733,5.366l-21.467,24.611l-16.099,12.73l-16.1,18.783l-16.1,18.783l-21.466,16.099l107.331,53.666l207.66,-175.231l6.153,-28.025Z"/></clipPath><g clip-path="url(#_clip1)"><g><g><path d="M303.541,69.3l8.162,-4.081l-0.517,-8.196l-9.045,-3.123l-7.158,-4.978l-10.548,-2.268l-10.546,10.639l4.09,8.689l9.462,6.002l16.1,-2.684Z" style="fill:#bdb097;stroke:#000;stroke-width:1px;"/><path d="M255.242,41.195l14.664,1.99l-5.999,20.445l-12.295,-0.564l-9.123,2.541l-2.034,-6.384l-10.081,-7.005l3.402,-9.357l5.366,-4.48l10.733,0.131l5.367,2.683Z" style="fill:#bdb097;stroke:#000;stroke-width:1px;"/><path d="M230.374,32.717l14.135,-0.173l9.298,2.591l3.035,-1.518l3.767,-1.883l-2.822,-3.955l-2.545,-4.095l-6.616,-0.486l-4.117,-2.059l-5.367,-0.138l-12.168,0.718l-0.532,2.273l0.174,6.846l3.758,1.879Z" style="fill:#bdb097;stroke:#000;stroke-width:1px;"/><path d="M198.924,16.992l10.99,-2.843l6.618,4.549l5.1,5.692l-3.956,4.218l-10.733,3.126l-10.733,3.661l-7.91,3.117l0.735,-4.999l-3.558,-1.779l-1.789,-4.472l1.789,-2.862l13.447,-7.408" style="fill:#bdb097;stroke:#000;stroke-width:1px;"/><path d="M208.023,46.292l-8.543,3.192l-8.637,7.002l7.699,7.954l6.215,1.686l4.098,5.503l7.41,-1.623l1.411,-9.774l2.455,-7.885l-6.25,-5.961l-5.858,-0.094Z" style="fill:#bdb097;stroke:#000;stroke-width:1px;"/><path d="M158.644,39.784l13.21,1.239l10.169,8.538l-3.294,7.013l-5.008,5.188l-15.077,-0.512l-8.505,4.253l-3.967,-8.75l0.46,-5.596l3.623,-4.834l8.389,-6.539Z" style="fill:#bdb097;stroke:#000;stroke-width:1px;"/><path d="M177.805,76.198l15.078,0.132l11.775,7.927l-6.22,5.395l-6.228,3.115l-16.501,-1.518l-6.332,2.201l-1.975,-6.354l-12.428,-4.187l-2.785,-6.112l2.787,-2.979l5.914,-0.711l3.12,1.56l13.795,1.531" style="fill:#bdb097;stroke:#000;stroke-width:1px;"/><path d="M230.203,73.079l-8.114,8.245l-0.779,11.123l7.714,2.942l12.603,-0.498l7.551,-6.958l4.782,-8.342l-8.836,-3.206l-8.821,-2.168l-6.1,-1.138" style="fill:#bdb097;stroke:#000;stroke-width:1px;"/><path d="M272.595,71.232l-4.035,4.826l-3.812,11.411l9.176,4.589l8.151,-4.808l5.366,-6.652l-10.733,-3.248l0,-2.182l-1.741,-2.314l-2.372,-1.622Z" style="fill:#bdb097;stroke:#000;stroke-width:1px;"/><path d="M203.428,95.95l-4.634,4.875l0,5.89l9.703,6.295l10.622,3.868l3.427,-6.438l0,-10.178l-19.118,-4.312Z" style="fill:#bdb097;stroke:#000;stroke-width:1px;"/></g><g><g opacity="0.25"><path d="M307.915,73.528l8.163,-4.082l-1.352,-7.224l-8.21,-4.094l-7.159,-4.979l-10.548,-2.268l-10.545,10.64l4.089,8.688l9.463,6.002l16.099,-2.683Z" style="fill:#685435;"/><path d="M259.616,45.422l14.665,1.991l-5.999,20.444l-12.296,-0.564l-9.122,2.542l-2.035,-6.384l-10.081,-7.005l3.402,-9.358l5.367,-4.479l10.733,0.13l5.366,2.683Z" style="fill:#685435;"/><path d="M234.748,36.944l14.135,-0.172l9.298,2.591l3.036,-1.518l3.038,-1.54l-6.394,-3.197l2.748,-1.374l-7.609,-4.309l-4.117,-2.058l-5.366,-0.138l-12.169,0.717l-0.532,2.274l0.175,6.845l3.757,1.879Z" style="fill:#685435;"/><path d="M203.299,21.219l10.989,-2.842l6.619,4.549l5.099,5.691l-3.956,4.218l-10.733,3.127l-10.733,3.66l-7.91,3.118l-4.67,-3.022l0.684,-5.708l4.64,-2.676l-1.789,-6.261l11.76,-3.854" style="fill:#685435;"/><path d="M212.397,50.52l-8.543,3.192l-8.636,7.001l3.319,3.715l5.923,1.795l8.77,9.634l7.41,-1.624l1.41,-9.774l2.456,-7.885l-6.251,-5.961l-5.858,-0.093Z" style="fill:#685435;"/><path d="M163.018,44.012l13.211,1.238l10.168,8.538l-3.294,7.014l-5.008,5.187l-15.077,-0.511l-8.504,4.252l-3.968,-8.749l0.46,-5.597l3.623,-4.834l8.389,-6.538Z" style="fill:#685435;"/><path d="M182.18,80.425l15.077,0.133l11.775,7.927l-6.219,5.395l-6.229,3.114l-16.5,-1.517l-6.333,2.2l-4.592,-4.118l-1.77,-5.967l-9.049,-3.081l-1.776,-3.486l2.786,-2.98l5.914,-0.711l3.121,1.56l13.795,1.531" style="fill:#685435;"/><path d="M128.929,63.088c1.867,0.205 15.439,5.084 15.439,5.084l6.708,10.036l-10.733,4.051l-6.868,-5.059l-9.232,-2.991c0,0 2.819,-11.327 4.686,-11.121Z" style="fill:#685435;"/><path d="M234.577,77.306l-8.114,8.245l-0.779,11.123l7.715,2.942l12.602,-0.498l7.552,-6.957l4.781,-8.343l-8.836,-3.206l-8.82,-2.168l-6.101,-1.138" style="fill:#685435;"/><path d="M276.969,75.459l-4.034,4.826l-3.813,11.412l5.114,0.424l7.559,-4.377l5.646,-6.513l-4.232,-1.738l-2.017,-0.504l-4.213,-1.769l-0.01,-1.761Z" style="fill:#685435;"/><path d="M207.803,100.177l-4.634,4.876l0,5.889l9.972,5.43l8.784,2.916l4.995,-4.621l0,-10.177l-19.117,-4.313Z" style="fill:#685435;"/></g></g></g></g><path d="M325.305,54.473l-18.529,-12.134l-20.978,-5.611l-21.367,-12.624l-15.816,-7.931l-14.542,-1.881l-16.1,-13.484l-11.049,16.009l-31.033,15.516l-16.1,24.15l-21.74,16.237l-10.459,15.962l-16.1,8.05l-5.366,10.959l-10.733,5.366l-21.467,24.611l-16.099,12.73l-16.1,18.783l-16.1,18.783l-21.466,16.099l107.331,53.666l207.66,-175.231l6.153,-28.025Z" style="fill:none;stroke:#000;stroke-width:1px;"/><g><path d="M200.463,190.698l-7.406,0.232l-6.994,-8.281l1.768,-4.894l4.671,-6.875l15.48,-0.759l-1.547,5.847l3.142,4.537l-5.099,9.246l-4.015,0.947" style="fill:#dcc79e;stroke:#000;stroke-width:1px;"/><path d="M209.052,161.329l8.867,0.346l6.786,-11.007l-4.31,-7.864l-4.333,-6.435l-4.902,0.66l-1.402,-3.535l-4.553,-3.062l-4.221,1.875l0.81,7.146l0.783,5.188l2.15,8.865l4.325,7.823Z" style="fill:#dcc79e;stroke:#000;stroke-width:1px;"/><path d="M226.448,190.075l8.497,2.315l10.854,-4.088l4.656,-8.885l-11.414,-15.761l-9.996,0.837l-6.189,4.705l-0.833,9.722l4.425,11.155Z" style="fill:#dcc79e;stroke:#000;stroke-width:1px;"/><path d="M267.685,179.927l13.257,-1.759l3.026,-5.391l7.692,-19.663c0,0 -9.776,-1.44 -11.578,-3.154c-1.802,-1.714 -8.567,-2.333 -8.567,-2.333l-4.376,8.758l1.7,10.412l-1.154,13.13Z" style="fill:#dcc79e;stroke:#000;stroke-width:1px;"/><path d="M230.544,149.004l8.801,6.261l12.639,1.967l4.005,-6.796l0.695,-7.392l-6.786,-4.09l-7.336,0.243l-7.25,2.038l-4.768,7.769" style="fill:#dcc79e;stroke:#000;stroke-width:1px;"/><path d="M227.371,129.059l-2.942,-10.751l5.223,-3.552l5.789,1.577l1.625,4.097l-0.007,6.293l-4.04,3.875l-5.648,-1.539Z" style="fill:#dcc79e;stroke:#000;stroke-width:1px;"/><path d="M265.441,134.006l-7.407,0.233l-6.994,-8.282l1.768,-4.894l4.671,-6.875l15.48,-0.759l-1.547,5.848l3.142,4.537l-5.098,9.245l-4.015,0.947" style="fill:#dcc79e;stroke:#000;stroke-width:1px;"/><path d="M271.842,107.737l8.866,0.347l6.786,-11.008l-4.31,-7.864l-4.333,-6.435l-4.902,0.66l-1.402,-3.535l-4.553,-3.062l-4.22,1.875l0.809,7.146l0.783,5.188l2.151,8.866l4.325,7.822Z" style="fill:#dcc79e;stroke:#000;stroke-width:1px;"/><path d="M283.786,136.34l8.498,2.315l10.854,-4.088l4.656,-8.885l-11.415,-15.761l-9.995,0.837l-6.189,4.704l-0.833,9.723l4.424,11.155Z" style="fill:#dcc79e;stroke:#000;stroke-width:1px;"/><path d="M291.58,101.478l8.8,6.26l12.64,1.967l4.005,-6.795l0.695,-7.393l-6.786,-4.09l-7.336,0.244l-7.25,2.037l-4.768,7.77" style="fill:#dcc79e;stroke:#000;stroke-width:1px;"/><path d="M317.303,153.481l-1.873,-10.972l-11.237,-3.536l-13.7,7.272l8.347,12.763l8.665,0.416l9.798,-5.943" style="fill:#dcc79e;stroke:#000;stroke-width:1px;"/><path d="M199.653,192.367l-18.416,-7.102l1.768,-4.894l20.151,-7.634l-1.547,5.847l3.142,4.537l-5.098,9.246Zm21.969,0.324l8.498,2.315l10.853,-4.088l4.656,-8.885l-11.414,-15.761l-9.996,0.837l-6.189,4.704l-0.832,9.723l4.424,11.155Zm-21.52,-30.735l8.867,0.346l6.786,-11.008l-4.31,-7.864l-4.333,-6.435l-4.902,0.66l-1.402,-3.535l-4.553,-3.062l-4.221,1.876l0.81,7.145l0.783,5.188l2.15,8.866l4.325,7.823Zm25.616,-10.336l8.801,6.26l12.639,1.967l4.005,-6.795l0.695,-7.392l-6.786,-4.09l-7.336,0.243l-7.25,2.038l-4.768,7.769Zm37.142,30.923l13.256,-1.759l3.026,-5.391l7.693,-19.663c0,0 -9.776,-1.44 -11.579,-3.154c-1.802,-1.714 -8.567,-2.333 -8.567,-2.333l-4.376,8.757l1.7,10.413l-1.153,13.13Zm-40.315,-50.868l-2.942,-10.751l5.223,-3.552l5.789,1.577l1.625,4.097l-0.007,6.293l-4.039,3.875l-5.649,-1.539Zm38.07,4.947l-7.407,0.232l-6.993,-8.281l1.768,-4.894l4.67,-6.875l15.48,-0.759l-1.547,5.847l3.142,4.537l-5.098,9.246l-4.015,0.947Zm51.862,19.474l-9.798,5.943l-8.665,-0.415l-8.347,-12.763l13.701,-7.272l11.236,3.536l1.873,10.971Zm-33.517,-17.14l8.498,2.315l10.854,-4.088l4.656,-8.885l-11.415,-15.761l-9.995,0.837l-6.189,4.704l-0.833,9.723l4.424,11.155Zm-11.944,-28.603l8.866,0.346l6.787,-11.007l-4.311,-7.864l-4.333,-6.435l-4.901,0.66l-1.403,-3.535l-4.553,-3.062l-4.22,1.875l0.809,7.146l0.784,5.188l2.15,8.866l4.325,7.822Zm19.738,-6.259l8.801,6.26l12.639,1.967l4.005,-6.795l0.695,-7.393l-6.786,-4.09l-7.336,0.243l-7.25,2.038l-4.768,7.77Z" style="fill:#685435;fill-opacity:0.25;"/></g><path d="M159.791,196.014l18.415,-12.265l11.919,-15.501l16.021,-13.456l15.251,-17.991l29.626,-18.603l16.1,-20.824l24.791,-12.396l20.544,-13.597l12.847,-16.84l3.393,25.136l-3.393,25.229l2.263,34.368l-2.263,11.865l-101.411,50.404l-112.402,56.186l1.954,-9.756l14.146,-14.394l14.44,-17.953l17.759,-19.612Z" style="fill:#bbac9b;"/><clipPath id="_clip2"><path d="M159.791,196.014l18.415,-12.265l11.919,-15.501l16.021,-13.456l15.251,-17.991l29.626,-18.603l16.1,-20.824l24.791,-12.396l20.544,-13.597l12.847,-16.84l3.393,25.136l-3.393,25.229l2.263,34.368l-2.263,11.865l-101.411,50.404l-112.402,56.186l1.954,-9.756l14.146,-14.394l14.44,-17.953l17.759,-19.612Z"/></clipPath><g clip-path="url(#_clip2)"><g><path d="M223.501,235.695l-7.47,-8.393l0.628,-15.38l4.862,-8.365l7.638,3.249l3.735,6.804l0.66,10.712l-10.053,11.373" style="fill:#dcc79e;stroke:#000;stroke-width:1px;"/><path d="M235.92,254.227l-9.713,-5.466l1.145,-6.212l5.192,-3.008l4.056,1.725l4.47,4.429l-0.084,5.597l-5.066,2.935Z" style="fill:#dcc79e;stroke:#000;stroke-width:1px;"/><path d="M266.203,230.632l-5.042,5.431l-10.806,-0.849l-2.237,-4.698l-1.605,-8.155l10.343,-11.542l3.071,5.211l5.435,0.955l2.991,10.126l-2.15,3.521" style="fill:#dcc79e;stroke:#000;stroke-width:1px;"/><path d="M247.042,205.411l6.48,-6.062l-3.057,-12.565l-8.623,-2.463l-7.622,-1.443l-2.977,3.95l-3.5,-1.489l-5.378,1.086l-1.634,4.319l5.651,4.448l4.24,3.091l7.816,4.704l8.604,2.424Z" style="fill:#dcc79e;stroke:#000;stroke-width:1px;"/><path d="M284.029,211.716l7.62,-4.416l4.724,-10.592l-3.045,-9.558l-19.234,-2.963l-6.431,7.697l-1.006,7.708l6.329,7.428l11.043,4.696Z" style="fill:#dcc79e;stroke:#000;stroke-width:1px;"/><path d="M305.804,175.256l8.069,-10.665l-1.706,-5.942l-8.575,-19.294c0,0 -7.897,5.94 -10.383,6.016c-2.486,0.077 -7.683,4.453 -7.683,4.453l3.152,9.269l8.6,6.112l8.526,10.051Z" style="fill:#dcc79e;stroke:#000;stroke-width:1px;"/><path d="M257.702,179.928l10.639,-1.857l10.284,-7.605l-2.016,-7.626l-4.769,-5.692l-7.679,1.95l-4.984,5.389l-3.648,6.588l2.173,8.853" style="fill:#dcc79e;stroke:#000;stroke-width:1px;"/><path d="M316.514,207.442l-9.119,-6.381l-10.414,5.505l-4.462,14.855l14.945,3.037l6.388,-5.869l2.662,-11.147" style="fill:#dcc79e;stroke:#000;stroke-width:1px;"/><path d="M228.868,149.63l-7.471,-8.393l0.629,-15.38l4.861,-8.365l7.639,3.249l3.734,6.804l0.661,10.712l-10.053,11.373" style="fill:#dcc79e;stroke:#000;stroke-width:1px;"/><path d="M241.287,168.162l-9.714,-5.466l1.146,-6.212l5.191,-3.008l4.057,1.725l4.47,4.429l-0.085,5.597l-5.065,2.935Z" style="fill:#dcc79e;stroke:#000;stroke-width:1px;"/><path d="M271.57,144.567l-5.042,5.431l-10.806,-0.849l-2.238,-4.698l-1.605,-8.155l10.344,-11.542l3.07,5.211l5.436,0.955l2.99,10.126l-2.149,3.521" style="fill:#dcc79e;stroke:#000;stroke-width:1px;"/><path d="M257.389,121.547l6.48,-6.062l-3.057,-12.565l-8.623,-2.463l-7.622,-1.443l-2.977,3.95l-3.5,-1.489l-5.378,1.086l-1.634,4.32l5.651,4.448l4.24,3.09l7.817,4.704l8.603,2.424Z" style="fill:#dcc79e;stroke:#000;stroke-width:1px;"/><path d="M286.127,133.162l7.621,-4.416l4.724,-10.592l-3.045,-9.558l-19.234,-2.964l-6.431,7.697l-1.006,7.709l6.329,7.428l11.042,4.696Z" style="fill:#dcc79e;stroke:#000;stroke-width:1px;"/><path d="M313.812,99.018l8.069,-10.664l-1.707,-5.942l-8.575,-19.295c0,0 -7.897,5.94 -10.382,6.017c-2.486,0.077 -7.683,4.452 -7.683,4.452l3.152,9.269l8.599,6.112l8.527,10.051Z" style="fill:#dcc79e;stroke:#000;stroke-width:1px;"/><path d="M266.815,103.109l10.639,-1.857l10.285,-7.605l-2.017,-7.626l-4.768,-5.691l-7.68,1.95l-4.984,5.388l-3.648,6.589l2.173,8.852" style="fill:#dcc79e;stroke:#000;stroke-width:1px;"/><path d="M321.881,121.377l-9.12,-6.381l-10.414,5.504l-4.461,14.856l14.945,3.037l6.387,-5.869l2.663,-11.147" style="fill:#dcc79e;stroke:#000;stroke-width:1px;"/><path d="M234.387,259.498l-9.713,-5.466l1.146,-6.212l5.191,-3.008l4.057,1.725l4.47,4.429l-0.085,5.597l-5.066,2.935Zm30.284,-23.595l-5.042,5.431l-10.806,-0.849l-2.238,-4.698l-1.605,-8.155l10.344,-11.542l3.07,5.211l5.436,0.955l2.99,10.126l-2.149,3.521Zm-42.702,5.063l-7.471,-8.393l0.629,-15.38l4.861,-8.365l7.639,3.249l3.734,6.804l0.66,10.712l-10.052,11.373Zm93.013,-28.253l-2.663,11.147l-6.387,5.869l-14.945,-3.037l4.461,-14.856l10.414,-5.504l9.12,6.381Zm-32.486,4.274l7.621,-4.416l4.723,-10.592l-3.045,-9.558l-19.233,-2.963l-6.432,7.697l-1.006,7.708l6.329,7.428l11.043,4.696Zm-36.987,-6.305l6.48,-6.062l-3.056,-12.565l-8.623,-2.463l-7.623,-1.444l-2.976,3.951l-3.5,-1.489l-5.379,1.086l-1.633,4.319l5.65,4.448l4.241,3.091l7.816,4.704l8.603,2.424Zm10.66,-25.483l10.639,-1.857l10.285,-7.605l-2.017,-7.626l-4.768,-5.692l-7.679,1.95l-4.985,5.389l-3.648,6.588l2.173,8.853Zm48.103,-4.672l8.069,-10.665l-1.707,-5.942l-8.575,-19.294c0,0 -7.897,5.94 -10.382,6.016c-2.486,0.077 -7.683,4.453 -7.683,4.453l3.152,9.269l8.599,6.112l8.527,10.051Zm-64.518,-7.094l-9.713,-5.466l1.145,-6.212l5.192,-3.008l4.056,1.725l4.47,4.429l-0.084,5.597l-5.066,2.935Zm30.283,-23.595l-5.042,5.431l-10.806,-0.849l-2.237,-4.698l-1.605,-8.155l10.343,-11.542l3.071,5.211l5.435,0.955l2.991,10.126l-2.15,3.521Zm-42.702,5.063l-7.47,-8.393l0.628,-15.38l4.862,-8.365l7.639,3.248l3.734,6.805l0.66,10.712l-10.053,11.373Zm93.013,-28.253l-2.662,11.147l-6.387,5.869l-14.946,-3.037l4.462,-14.856l10.414,-5.504l9.119,6.381Zm-35.753,11.785l7.62,-4.416l4.724,-10.592l-3.045,-9.558l-19.233,-2.964l-6.432,7.697l-1.006,7.709l6.329,7.428l11.043,4.696Zm-28.738,-11.615l6.48,-6.062l-3.057,-12.565l-8.623,-2.463l-7.622,-1.443l-2.977,3.95l-3.5,-1.489l-5.378,1.086l-1.634,4.32l5.651,4.448l4.24,3.09l7.816,4.704l8.604,2.424Zm9.425,-18.438l10.639,-1.857l10.285,-7.605l-2.016,-7.626l-4.769,-5.691l-7.679,1.95l-4.985,5.388l-3.648,6.589l2.173,8.852Zm46.997,-4.091l8.069,-10.664l-1.706,-5.942l-8.575,-19.295c0,0 -7.897,5.94 -10.383,6.017c-2.486,0.077 -7.683,4.452 -7.683,4.452l3.152,9.269l8.6,6.112l8.526,10.051Z" style="fill:#685435;fill-opacity:0.2;"/></g><g><path d="M208.114,268.393l8.069,-10.664l-1.707,-5.942l-8.575,-19.295c0,0 -7.897,5.94 -10.382,6.017c-2.486,0.076 -7.683,4.452 -7.683,4.452l3.151,9.269l8.6,6.112l8.527,10.051Z" style="fill:#dcc79e;stroke:#000;stroke-width:1px;"/><path d="M160.011,273.065l10.639,-1.857l10.285,-7.605l-2.017,-7.626l-4.768,-5.692l-7.679,1.951l-4.985,5.388l-3.648,6.589l2.173,8.852" style="fill:#dcc79e;stroke:#000;stroke-width:1px;"/><path d="M131.177,242.768l-7.47,-8.393l0.628,-15.381l4.862,-8.365l7.638,3.249l3.735,6.804l0.66,10.713l-10.053,11.373" style="fill:#dcc79e;stroke:#000;stroke-width:1px;"/><path d="M143.596,261.3l-9.713,-5.467l1.145,-6.212l5.192,-3.008l4.056,1.725l4.47,4.429l-0.084,5.597l-5.066,2.936Z" style="fill:#dcc79e;stroke:#000;stroke-width:1px;"/><path d="M173.879,237.705l-5.042,5.43l-10.806,-0.849l-2.237,-4.698l-1.605,-8.155l10.343,-11.542l3.071,5.211l5.435,0.956l2.991,10.126l-2.15,3.521" style="fill:#dcc79e;stroke:#000;stroke-width:1px;"/><path d="M159.699,214.684l6.48,-6.062l-3.057,-12.564l-8.623,-2.464l-7.622,-1.443l-2.977,3.95l-3.5,-1.488l-5.378,1.085l-1.634,4.32l5.651,4.448l4.24,3.09l7.816,4.704l8.604,2.424Z" style="fill:#dcc79e;stroke:#000;stroke-width:1px;"/><path d="M188.437,226.299l7.62,-4.416l4.724,-10.592l-3.045,-9.558l-19.233,-2.963l-6.432,7.697l-1.006,7.708l6.329,7.428l11.043,4.696Z" style="fill:#dcc79e;stroke:#000;stroke-width:1px;"/><path d="M216.121,192.156l8.069,-10.665l-1.707,-5.942l-8.574,-19.294c0,0 -7.897,5.94 -10.383,6.016c-2.486,0.077 -7.683,4.453 -7.683,4.453l3.152,9.268l8.6,6.112l8.526,10.052Z" style="fill:#dcc79e;stroke:#000;stroke-width:1px;"/><path d="M169.124,196.247l10.639,-1.857l10.285,-7.606l-2.016,-7.625l-4.769,-5.692l-7.679,1.95l-4.985,5.388l-3.648,6.589l2.173,8.853" style="fill:#dcc79e;stroke:#000;stroke-width:1px;"/><path d="M224.19,214.515l-9.119,-6.382l-10.414,5.505l-4.462,14.855l14.945,3.037l6.388,-5.869l2.662,-11.146" style="fill:#dcc79e;stroke:#000;stroke-width:1px;"/><path d="M136.697,352.636l-9.713,-5.467l1.145,-6.212l5.192,-3.008l4.056,1.725l4.47,4.429l-0.084,5.597l-5.066,2.936Zm30.283,-23.595l-5.042,5.43l-10.806,-0.849l-2.237,-4.698l-1.606,-8.155l10.344,-11.542l3.071,5.212l5.435,0.955l2.991,10.126l-2.15,3.521Zm-42.702,5.063l-7.47,-8.393l0.628,-15.381l4.862,-8.365l7.638,3.249l3.735,6.804l0.66,10.713l-10.053,11.373Zm93.013,-28.253l-2.662,11.146l-6.388,5.869l-14.945,-3.036l4.461,-14.856l10.415,-5.505l9.119,6.382Zm-32.485,4.273l7.62,-4.416l4.724,-10.592l-3.045,-9.558l-19.234,-2.963l-6.431,7.697l-1.006,7.708l6.329,7.428l11.043,4.696Zm-36.987,-6.305l6.48,-6.062l-3.057,-12.565l-8.623,-2.463l-7.622,-1.443l-2.977,3.95l-3.5,-1.489l-5.378,1.086l-1.634,4.32l5.651,4.448l4.24,3.09l7.816,4.704l8.604,2.424Zm10.66,-25.483l10.639,-1.857l10.284,-7.605l-2.016,-7.626l-4.769,-5.692l-7.679,1.951l-4.985,5.388l-3.648,6.589l2.174,8.852Zm48.102,-4.672l8.069,-10.664l-1.707,-5.942l-8.574,-19.295c0,0 -7.897,5.94 -10.383,6.017c-2.486,0.076 -7.683,4.452 -7.683,4.452l3.152,9.269l8.6,6.112l8.526,10.051Zm-64.518,-7.093l-9.713,-5.467l1.146,-6.212l5.191,-3.008l4.057,1.725l4.47,4.429l-0.085,5.597l-5.066,2.936Zm30.284,-23.595l-5.042,5.43l-10.806,-0.849l-2.238,-4.698l-1.605,-8.155l10.344,-11.542l3.07,5.211l5.436,0.956l2.99,10.126l-2.149,3.521Zm-42.702,5.063l-7.471,-8.393l0.629,-15.381l4.861,-8.365l7.639,3.249l3.734,6.804l0.66,10.713l-10.052,11.373Zm93.013,-28.253l-2.663,11.146l-6.387,5.869l-14.945,-3.037l4.461,-14.855l10.414,-5.505l9.12,6.382Zm-35.754,11.784l7.621,-4.416l4.724,-10.592l-3.045,-9.558l-19.234,-2.963l-6.432,7.697l-1.005,7.708l6.328,7.428l11.043,4.696Zm-28.738,-11.615l6.48,-6.062l-3.057,-12.564l-8.623,-2.464l-7.622,-1.443l-2.977,3.95l-3.5,-1.488l-5.378,1.085l-1.634,4.32l5.651,4.448l4.24,3.09l7.816,4.704l8.604,2.424Zm9.426,-18.437l10.639,-1.857l10.285,-7.606l-2.017,-7.625l-4.768,-5.692l-7.68,1.95l-4.984,5.388l-3.648,6.589l2.173,8.853Zm46.997,-4.091l8.069,-10.665l-1.707,-5.942l-8.575,-19.294c0,0 -7.897,5.94 -10.382,6.016c-2.486,0.077 -7.683,4.453 -7.683,4.453l3.151,9.268l8.6,6.112l8.527,10.052Z" style="fill:#685435;fill-opacity:0.2;"/></g></g><path d="M159.791,196.014l18.415,-12.265l11.919,-15.501l16.021,-13.456l15.251,-17.991l29.626,-18.603l16.1,-20.824l24.791,-12.396l20.544,-13.597l12.847,-16.84l3.393,25.136l-3.393,25.229l2.263,34.368l-2.263,11.865l-101.411,50.404l-112.402,56.186l1.954,-9.756l14.146,-14.394l14.44,-17.953l17.759,-19.612Z" style="fill:none;stroke:#000;stroke-width:1px;"/><g><path d="M120.889,257.644l8.867,0.346l6.786,-11.007l-4.311,-7.864l-4.332,-6.436l-4.902,0.661l-1.402,-3.536l-4.554,-3.061l-4.22,1.875l0.81,7.146l0.783,5.188l2.15,8.865l4.325,7.823Z" style="fill:#dcc79e;stroke:#000;stroke-width:1px;"/><path d="M143.655,203.514l0.717,-11.214l11.379,-10.366l9.367,-2.424l3.06,7.716l-2.213,7.439l-7.155,8.001l-15.155,0.848" style="fill:#dcc79e;stroke:#000;stroke-width:1px;"/><path d="M139.207,225.374l-2.941,-10.751l5.223,-3.552l5.789,1.576l1.625,4.098l-0.007,6.293l-4.04,3.874l-5.649,-1.538Z" style="fill:#dcc79e;stroke:#000;stroke-width:1px;"/><path d="M177.277,230.321l-7.406,0.232l-6.994,-8.281l1.768,-4.894l4.671,-6.875l15.48,-0.759l-1.547,5.847l3.142,4.537l-5.099,9.246l-4.015,0.947" style="fill:#dcc79e;stroke:#000;stroke-width:1px;"/><path d="M183.678,204.052l8.867,0.346l6.786,-11.007l-4.31,-7.864l-4.333,-6.435l-4.902,0.66l-1.402,-3.535l-4.553,-3.062l-4.221,1.875l0.81,7.146l0.783,5.188l2.15,8.865l4.325,7.823Z" style="fill:#dcc79e;stroke:#000;stroke-width:1px;"/><path d="M203.417,197.792l8.8,6.261l12.639,1.967l4.006,-6.796l0.695,-7.392l-6.786,-4.09l-7.337,0.243l-7.25,2.038l-4.767,7.769" style="fill:#dcc79e;stroke:#000;stroke-width:1px;"/><path d="M111.939,258.27l8.867,0.346l6.786,-11.007l-4.311,-7.864l-4.332,-6.435l-4.902,0.66l-1.402,-3.535l-4.554,-3.062l-4.22,1.875l0.81,7.146l0.783,5.188l2.15,8.865l4.325,7.823Zm22.442,-30.28l-2.941,-10.751l5.223,-3.553l5.789,1.577l1.625,4.098l-0.007,6.293l-4.04,3.874l-5.649,-1.538Zm38.07,4.947l-7.406,0.232l-6.994,-8.281l1.768,-4.894l4.671,-6.875l15.48,-0.759l-1.547,5.847l3.142,4.537l-5.098,9.246l-4.016,0.947Zm-33.622,-26.808l0.717,-11.213l11.38,-10.366l9.366,-2.424l3.06,7.716l-2.213,7.439l-7.154,8.001l-15.156,0.847Zm40.023,0.539l8.867,0.346l6.786,-11.007l-4.31,-7.864l-4.333,-6.435l-4.902,0.66l-1.402,-3.536l-4.553,-3.061l-4.221,1.875l0.81,7.146l0.783,5.188l2.151,8.865l4.324,7.823Zm19.739,-6.26l8.8,6.261l12.639,1.967l4.006,-6.796l0.695,-7.392l-6.786,-4.09l-7.336,0.243l-7.25,2.038l-4.768,7.769Z" style="fill:#685435;fill-opacity:0.2;"/></g><g><path d="M249.507,192.847l8.188,-3.418l1.523,-12.841l-7.22,-5.319l-6.639,-4.014l-4.168,2.662l-2.76,-2.617l-5.419,-0.861l-3.039,3.478l3.742,6.141l2.894,4.376l5.682,7.137l7.216,5.276Z" style="fill:#dcc79e;stroke:#000;stroke-width:1px;"/><path d="M247.375,134.163l-4.07,-10.474l5.959,-14.193l7.476,-6.141l6.024,5.712l1.124,7.679l-3.122,10.269l-13.391,7.148" style="fill:#dcc79e;stroke:#000;stroke-width:1px;"/><path d="M252.541,155.864l-7.193,-8.514l3.242,-5.42l5.915,-1.007l3.199,3.033l2.642,5.711l-2.033,5.215l-5.772,0.982Z" style="fill:#dcc79e;stroke:#000;stroke-width:1px;"/><path d="M289.157,144.329l-6.621,3.328l-9.829,-4.569l-0.457,-5.184l1.344,-8.202l13.722,-7.204l1.058,5.956l4.76,2.793l-0.734,10.533l-3.243,2.549" style="fill:#dcc79e;stroke:#000;stroke-width:1px;"/><path d="M283.907,117.806l8.188,-3.418l1.523,-12.841l-7.22,-5.32l-6.638,-4.014l-4.169,2.663l-2.76,-2.617l-5.419,-0.861l-3.039,3.477l3.742,6.141l2.894,4.377l5.682,7.137l7.216,5.276Z" style="fill:#dcc79e;stroke:#000;stroke-width:1px;"/><path d="M299.177,103.819l10.618,1.975l12.293,-3.535l0.773,-7.85l-2.481,-6.999l-7.877,-0.854l-6.553,3.309l-5.718,4.9l-1.055,9.054" style="fill:#dcc79e;stroke:#000;stroke-width:1px;"/><path d="M241.652,197.182l8.188,-3.418l1.523,-12.841l-7.22,-5.319l-6.639,-4.014l-4.168,2.662l-2.76,-2.617l-5.419,-0.86l-3.039,3.477l3.742,6.141l2.894,4.377l5.682,7.136l7.216,5.276Zm7.612,-36.914l-7.193,-8.514l3.243,-5.42l5.915,-1.007l3.198,3.033l2.643,5.712l-2.034,5.215l-5.772,0.981Zm36.616,-11.535l-6.621,3.328l-9.829,-4.569l-0.456,-5.184l1.343,-8.202l13.723,-7.203l1.057,5.955l4.76,2.793l-0.733,10.533l-3.244,2.549Zm-41.782,-10.166l-4.07,-10.474l5.96,-14.193l7.476,-6.14l6.024,5.711l1.123,7.68l-3.122,10.269l-13.391,7.147Zm36.532,-16.357l8.189,-3.418l1.523,-12.841l-7.22,-5.32l-6.639,-4.013l-4.169,2.662l-2.76,-2.617l-5.418,-0.861l-3.04,3.477l3.742,6.142l2.895,4.376l5.681,7.137l7.216,5.276Zm15.27,-13.986l10.618,1.974l12.293,-3.535l0.773,-7.85l-2.481,-6.999l-7.877,-0.853l-6.552,3.308l-5.719,4.9l-1.055,9.055Z" style="fill:#685435;fill-opacity:0.2;"/></g><g><path d="M264.672,177.848l2.78,-10.887l13.102,-8.081l9.653,-0.649l1.579,8.15l-3.552,6.901l-8.511,6.538l-15.051,-1.972" style="fill:#dcc79e;stroke:#000;stroke-width:1px;"/><path d="M259.446,179.525l2.779,-10.887l13.102,-8.081l9.653,-0.648l1.579,8.149l-3.552,6.901l-8.511,6.539l-15.05,-1.973Z" style="fill:#685435;fill-opacity:0.2;"/><path d="M321.654,148.512l-6.733,-8.995l1.928,-15.272l5.552,-7.923l7.337,3.883l3.145,7.096l-0.25,10.73l-10.979,10.481" style="fill:#dcc79e;stroke:#000;stroke-width:1px;"/><path d="M319.681,153.635l-6.733,-8.996l1.928,-15.272l5.552,-7.923l7.336,3.884l3.145,7.095l-0.249,10.731l-10.979,10.481Z" style="fill:#685435;fill-opacity:0.2;"/></g><g><g><path d="M13.512,216.55l-9.113,-0.471l-2.808,-7.718l7.038,-6.483l4.566,-7.428l8.758,-6.301l13.923,5.527l-0.269,9.599l-6.267,9.288l-15.828,3.987Z" style="fill:#bdb097;stroke:#000;stroke-width:1px;"/><path d="M46.518,171.458l-12.641,7.695l13.683,16.333l11.041,-5.441l9.377,-1.323l-0.691,-6.664l6.433,-10.456l-6.864,-7.212l-6.711,-1.956l-9.784,4.416l-3.843,4.608Z" style="fill:#bdb097;stroke:#000;stroke-width:1px;"/><path d="M65.911,153.732l-13.021,5.502l-7.483,6.096l-3.389,-0.175l-4.205,-0.218l1.001,-4.754l0.693,-4.771l5.868,-3.094l2.948,-3.535l4.863,-2.276l11.438,-4.214l1.398,1.87l2.58,6.343l-2.691,3.226Z" style="fill:#bdb097;stroke:#000;stroke-width:1px;"/><path d="M88.434,126.731l-11.208,1.795l-4.244,6.819l-2.394,7.257l5.314,2.281l11.087,-1.433l11.301,-0.942l8.496,-0.311l-2.675,-4.286l2.549,-3.055l-0.152,-4.815l-2.785,-1.906l-15.289,-1.404" style="fill:#bdb097;stroke:#000;stroke-width:1px;"/><path d="M91.828,157.223l9.107,-0.496l10.717,2.958l-3.87,10.372l-5.02,4.033l-1.552,6.684l-7.44,1.479l-5.206,-8.391l-5.407,-6.243l3.341,-7.965l5.33,-2.431Z" style="fill:#bdb097;stroke:#000;stroke-width:1px;"/><path d="M134.471,131.489l-11.61,6.424l-5.899,11.895l5.826,5.108l6.666,2.748l13.611,-6.505l9.496,0.492l0.133,-9.606l-2.662,-4.944l-5.256,-2.979l-10.305,-2.633Z" style="fill:#bdb097;stroke:#000;stroke-width:1px;"/><path d="M131.491,172.528l-13.763,6.158l-7.616,11.979l7.859,2.453l6.955,0.36l14.513,-7.996l6.683,-0.52l-0.734,-6.613l9.712,-8.812l0.105,-6.716l-3.746,-1.614l-5.705,1.716l-2.234,2.679l-12.029,6.926" style="fill:#bdb097;stroke:#000;stroke-width:1px;"/><path d="M173.253,133.565c-1.629,0.936 -12.019,12.596 -12.019,12.596l-2.128,11.882l11.457,-0.585l4.267,-7.386l7.263,-6.437c0,0 -7.211,-11.006 -8.84,-10.07Z" style="fill:#bdb097;stroke:#000;stroke-width:1px;"/><path d="M69.845,196.928l11.568,0.104l8.408,7.322l-3.382,7.532l-9.272,8.55l-10.26,0.41l-9.277,-2.527l3.989,-8.511l4.712,-7.766l3.514,-5.114" style="fill:#bdb097;stroke:#000;stroke-width:1px;"/><path d="M105.178,238.79l2.118,11.373l-5.572,9.657l-8.041,-1.873l-10.171,-7.459l-2.371,-9.99l0.699,-9.59l9.119,2.281l8.525,3.134l5.694,2.467" style="fill:#bdb097;stroke:#000;stroke-width:1px;"/><path d="M42.643,205.93l5.63,2.807l8.062,8.93l-6.571,7.879l-9.394,-1.143l-7.581,-3.946l8.535,-7.274l-0.874,-1.999l0.669,-2.818l1.524,-2.436Z" style="fill:#bdb097;stroke:#000;stroke-width:1px;"/><path d="M115.92,200.887l6.199,2.612l2.358,5.397l-6.371,9.653l-8.185,7.798l-5.717,-4.528l-4.075,-9.326l15.791,-11.606Z" style="fill:#bdb097;stroke:#000;stroke-width:1px;"/></g><g><g opacity="0.25"><path d="M11.196,222.176l-9.113,-0.472l-1.654,-7.161l5.884,-7.039l4.566,-7.429l8.758,-6.301l13.923,5.527l-0.269,9.599l-6.267,9.288l-15.828,3.988Z" style="fill:#685435;"/><path d="M44.202,177.083l-12.641,7.695l13.683,16.333l11.041,-5.44l9.377,-1.324l-0.691,-6.664l6.433,-10.455l-6.864,-7.213l-6.711,-1.956l-9.784,4.417l-3.843,4.607Z" style="fill:#685435;"/><path d="M63.596,159.357l-13.022,5.502l-7.483,6.097l-3.389,-0.176l-3.401,-0.194l4.579,-5.49l-3.067,-0.159l5.246,-6.994l2.949,-3.535l4.862,-2.275l11.438,-4.215l1.398,1.871l2.58,6.342l-2.69,3.226Z" style="fill:#685435;"/><path d="M86.118,132.356l-11.208,1.795l-4.244,6.819l-2.394,7.257l5.314,2.281l11.087,-1.432l11.301,-0.943l8.496,-0.311l3.07,-4.638l-2.912,-4.957l-5.323,-0.595l-0.868,-6.453l-12.319,1.177" style="fill:#685435;"/><path d="M89.512,162.848l9.107,-0.495l10.717,2.958l-1.555,4.733l-4.708,4.016l-4.179,12.339l-7.44,1.479l-5.206,-8.391l-5.407,-6.243l3.341,-7.964l5.33,-2.432Z" style="fill:#685435;"/><path d="M132.155,137.114l-11.61,6.424l-5.899,11.896l5.826,5.107l6.666,2.749l13.612,-6.505l9.495,0.491l0.133,-9.606l-2.662,-4.944l-5.256,-2.979l-10.305,-2.633Z" style="fill:#685435;"/><path d="M129.176,178.154l-13.764,6.158l-7.615,11.978l7.859,2.454l6.954,0.36l14.513,-7.997l6.683,-0.519l2.56,-5.613l-0.768,-6.177l7.059,-6.445l0.232,-3.906l-3.746,-1.615l-5.705,1.716l-2.234,2.679l-12.028,6.927" style="fill:#685435;"/><path d="M171.03,140.946c-1.629,0.936 -12.112,10.84 -12.112,10.84l-2.128,11.883l11.457,-0.586l4.268,-7.386l7.262,-6.436c0,0 -7.118,-9.251 -8.747,-8.315Z" style="fill:#685435;"/><path d="M69.735,203.01l11.568,0.104l8.408,7.323l-3.382,7.532l-9.272,8.55l-10.26,0.409l-9.277,-2.527l3.989,-8.511l4.712,-7.765l3.514,-5.115" style="fill:#685435;"/><path d="M100.986,240.886l2.118,11.373l-5.573,9.657l-8.041,-1.873l-10.171,-7.459l-2.371,-9.99l0.699,-9.59l9.119,2.282l8.525,3.133l5.695,2.467" style="fill:#685435;"/><path d="M40.327,211.555l5.63,2.807l8.062,8.931l-4.516,2.436l-8.679,-0.984l-7.782,-3.708l3.183,-3.288l1.646,-1.268l3.153,-3.308l-0.697,-1.618Z" style="fill:#685435;"/><path d="M113.604,206.512l6.199,2.612l2.358,5.397l-6.964,8.969l-6.882,6.189l-6.427,-2.235l-4.075,-9.326l15.791,-11.606Z" style="fill:#685435;"/></g></g></g><g><g><path d="M104.763,136.483l-9.114,-0.472l-2.807,-7.718l7.038,-6.482l4.566,-7.429l8.758,-6.301l13.923,5.527l-0.269,9.599l-6.268,9.288l-15.827,3.988Z" style="fill:#bdb097;stroke:#000;stroke-width:1px;"/><path d="M137.769,91.39l-12.641,7.695l13.683,16.333l11.041,-5.44l9.377,-1.324l-0.692,-6.664l6.433,-10.455l-6.863,-7.213l-6.712,-1.956l-9.783,4.417l-3.843,4.607Z" style="fill:#bdb097;stroke:#000;stroke-width:1px;"/><path d="M157.162,73.664l-13.021,5.502l-7.483,6.097l-3.389,-0.176l-4.206,-0.217l1.002,-4.755l0.693,-4.77l5.868,-3.095l2.948,-3.535l4.863,-2.275l11.437,-4.215l1.398,1.871l2.581,6.342l-2.691,3.226Z" style="fill:#bdb097;stroke:#000;stroke-width:1px;"/><path d="M179.685,46.663l-11.209,1.795l-4.243,6.819l-2.394,7.257l5.314,2.281l11.087,-1.432l11.301,-0.943l8.496,-0.31l-2.675,-4.287l2.548,-3.055l-0.151,-4.814l-2.785,-1.907l-15.289,-1.404" style="fill:#bdb097;stroke:#000;stroke-width:1px;"/><path d="M183.079,77.155l9.106,-0.495l10.718,2.958l-3.87,10.371l-5.021,4.034l-1.551,6.683l-7.44,1.479l-5.206,-8.391l-5.407,-6.243l3.341,-7.964l5.33,-2.432Z" style="fill:#bdb097;stroke:#000;stroke-width:1px;"/><path d="M225.722,51.421l-11.61,6.424l-5.899,11.896l5.826,5.108l6.666,2.748l13.611,-6.505l9.496,0.491l0.132,-9.606l-2.662,-4.944l-5.255,-2.979l-10.305,-2.633Z" style="fill:#bdb097;stroke:#000;stroke-width:1px;"/><path d="M222.742,92.461l-13.763,6.158l-7.616,11.978l7.859,2.454l6.955,0.36l14.512,-7.997l6.684,-0.519l-0.734,-6.614l9.712,-8.812l0.105,-6.715l-3.747,-1.615l-5.704,1.716l-2.235,2.679l-12.028,6.927" style="fill:#bdb097;stroke:#000;stroke-width:1px;"/><path d="M83.411,192.671l0.791,8.548l11.886,3.622l7.522,-5.653l4.238,-4.768l-2.842,-8.819l-3.418,-2.272l-2.895,-0.845l-6.525,-5.455l-8.913,0.798l-4.181,2.752l-0.788,3.65l2.371,1.171l2.754,7.271" style="fill:#bdb097;stroke:#000;stroke-width:1px;"/><path d="M264.504,53.497c-1.629,0.936 -12.019,12.596 -12.019,12.596l-2.128,11.883l11.457,-0.586l4.267,-7.385l7.263,-6.437c0,0 -7.211,-11.007 -8.84,-10.071Z" style="fill:#bdb097;stroke:#000;stroke-width:1px;"/><path d="M173.479,110.582l10.737,4.306l5.167,9.881l-5.891,5.785l-11.748,4.589l-9.705,-3.352l-7.722,-5.73l6.813,-6.476l7.215,-5.518l5.134,-3.485" style="fill:#bdb097;stroke:#000;stroke-width:1px;"/><path d="M133.894,125.862l5.629,2.807l8.063,8.931l-6.572,7.878l-9.394,-1.142l-7.58,-3.947l8.534,-7.273l-0.873,-2l0.669,-2.817l1.524,-2.437Z" style="fill:#bdb097;stroke:#000;stroke-width:1px;"/><path d="M207.171,120.82l6.199,2.611l2.358,5.398l-6.371,9.653l-8.185,7.797l-5.717,-4.527l-4.075,-9.326l15.791,-11.606Z" style="fill:#bdb097;stroke:#000;stroke-width:1px;"/></g><g><g opacity="0.25"><path d="M102.447,142.108l-9.113,-0.472l-1.654,-7.161l5.884,-7.039l4.566,-7.429l8.758,-6.301l13.923,5.527l-0.269,9.599l-6.268,9.289l-15.827,3.987Z" style="fill:#685435;"/><path d="M135.453,97.016l-12.641,7.695l13.683,16.332l11.041,-5.44l9.377,-1.323l-0.692,-6.665l6.433,-10.455l-6.863,-7.212l-6.712,-1.957l-9.783,4.417l-3.843,4.608Z" style="fill:#685435;"/><path d="M154.846,79.29l-13.021,5.501l-7.483,6.097l-3.389,-0.175l-3.401,-0.195l4.579,-5.489l-3.068,-0.159l5.247,-6.995l2.948,-3.535l4.863,-2.275l11.437,-4.214l1.398,1.87l2.581,6.343l-2.691,3.226Z" style="fill:#685435;"/><path d="M177.369,52.289l-11.208,1.795l-4.244,6.818l-2.394,7.257l5.314,2.282l11.087,-1.433l11.301,-0.943l8.496,-0.31l3.07,-4.639l-2.912,-4.957l-5.324,-0.595l-0.867,-6.453l-12.319,1.178" style="fill:#685435;"/><path d="M180.763,82.781l9.106,-0.496l10.718,2.958l-1.555,4.733l-4.709,4.017l-4.178,12.338l-7.44,1.48l-5.206,-8.392l-5.407,-6.242l3.341,-7.965l5.33,-2.431Z" style="fill:#685435;"/><path d="M223.406,57.046l-11.61,6.425l-5.899,11.895l5.826,5.108l6.666,2.748l13.611,-6.505l9.496,0.491l0.132,-9.606l-2.661,-4.944l-5.256,-2.979l-10.305,-2.633Z" style="fill:#685435;"/><path d="M220.426,98.086l-13.763,6.158l-7.616,11.978l7.859,2.454l6.955,0.36l14.513,-7.997l6.683,-0.519l2.56,-5.613l-0.768,-6.176l7.059,-6.446l0.232,-3.906l-3.746,-1.615l-5.705,1.717l-2.235,2.679l-12.028,6.926" style="fill:#685435;"/><path d="M76.492,196.14l0.11,8.731l11.358,3.906l7.806,-5.63l4.521,-4.786l-2.097,-9.044l-0.41,-3.672l-2.295,-1.976l-8.588,1.191l-4.39,-4.123l-5.014,0.264l-4.308,2.731l-1.056,3.709l2.231,1.236l2.132,7.463" style="fill:#685435;"/><path d="M262.281,60.878c-1.629,0.936 -12.112,10.84 -12.112,10.84l-2.128,11.883l11.457,-0.585l4.267,-7.386l7.263,-6.437c0,0 -7.118,-9.251 -8.747,-8.315Z" style="fill:#685435;"/><path d="M171.163,116.207l10.737,4.307l5.167,9.88l-5.891,5.785l-11.748,4.589l-9.705,-3.352l-7.722,-5.73l6.813,-6.476l7.215,-5.518l5.134,-3.485" style="fill:#685435;"/><path d="M131.578,131.488l5.629,2.806l8.063,8.931l-4.516,2.436l-8.679,-0.984l-7.782,-3.708l3.183,-3.287l1.646,-1.269l3.153,-3.308l-0.697,-1.617Z" style="fill:#685435;"/><path d="M204.855,126.445l6.199,2.612l2.358,5.397l-6.964,8.968l-6.882,6.189l-6.427,-2.234l-4.075,-9.326l15.791,-11.606Z" style="fill:#685435;"/></g></g></g></g><g><path d="M239.025,10.519l59.904,29.952l-70.601,54.71l-41.731,53.065l-107.335,93.652l-56.085,-28.042l215.848,-203.337" style="fill:#64b8c7;stroke:#000;stroke-width:1px;"/><g><path d="M276.5,59.048l-0.075,-9.125l-7.588,-3.141l-6.783,6.749l-7.62,4.239l-6.676,8.476l4.916,14.15l9.602,0.149l9.552,-5.858l4.672,-15.639Z" style="fill:#bdb097;stroke:#000;stroke-width:1px;"/><path d="M277.853,64.1l-0.075,-9.126l-7.588,-3.14l-6.782,6.749l-7.62,4.239l-6.677,8.476l4.917,14.15l9.601,0.149l9.553,-5.858l4.671,-15.639Z" style="fill:#685435;fill-opacity:0.6;"/><path d="M270.292,47.688l3.835,10.914l9.646,5.592l6.036,-5.634l5.096,-11.538l-2.927,-9.841l-5.388,-7.964l-6.766,6.525l-5.827,6.968l-3.705,4.978" style="fill:#bdb097;stroke:#000;stroke-width:1px;"/><path d="M271.645,52.74l3.836,10.914l9.646,5.591l6.036,-5.634l5.096,-11.537l-2.096,-7.048l-0.831,-2.794l-5.389,-7.963l-6.766,6.525l-5.827,6.968l-3.705,4.978" style="fill:#685435;fill-opacity:0.6;"/><path d="M283.986,37.241l2.559,5.746l8.572,8.444l8.156,-6.223l-0.733,-9.435l-3.613,-7.745l-7.637,8.21l-1.96,-0.96l-2.844,0.546l-2.5,1.417Z" style="fill:#bdb097;stroke:#000;stroke-width:1px;"/><path d="M285.339,42.293l2.559,5.746l7.168,7.067l3.644,-3.35l-0.467,-8.931l-3.108,-5.034l-2.492,3.499l-1.959,-0.96l-2.844,0.546l-2.501,1.417Z" style="fill:#685435;fill-opacity:0.6;"/><path d="M226.481,106.933l6.062,-12.77l6.417,-7.211l-0.028,-3.393l-0.035,-4.211l-4.793,0.794l-4.796,0.485l-3.347,5.727l-3.66,2.792l-2.485,4.759l-4.708,11.244l1.808,1.478l6.225,2.854l3.34,-2.548Z" style="fill:#bdb097;stroke:#000;stroke-width:1px;"/><path d="M227.834,111.984l6.063,-12.77l6.416,-7.21l-0.028,-3.394l-0.034,-4.211l-4.794,0.794l-4.796,0.485l-3.347,5.728l-3.66,2.792l-2.484,4.759l-4.708,11.243l1.808,1.478l6.224,2.855l3.34,-2.549Z" style="fill:#685435;fill-opacity:0.6;"/><path d="M203.655,101.516l3.88,-9.658l7.289,-1.984l7.344,-0.19l1.13,5.431l-3.513,9.647l-3.091,9.974l-1.945,7.607l-3.544,-3.59l-3.391,1.475l-4.534,-1.449l-1.266,-3.041l1.641,-14.222" style="fill:#bdb097;stroke:#000;stroke-width:1px;"/><path d="M205.009,106.567l3.88,-9.657l7.288,-1.984l7.345,-0.191l1.129,5.432l-3.513,9.647l-3.09,9.973l-1.946,7.607l-3.543,-3.589l-3.391,1.474l-4.534,-1.448l-1.266,-3.041l1.641,-14.223" style="fill:#685435;fill-opacity:0.6;"/><path d="M238.768,71.71l6.961,-6.196l7.866,4.829l9.133,3.453l-5.916,10.795l-1.73,9.31l-6.628,-0.981l-10.725,5.972l-6.907,-7.171l-1.662,-6.789l4.838,-9.582l4.77,-3.64Z" style="fill:#bdb097;stroke:#000;stroke-width:1px;"/><path d="M240.121,76.762l6.961,-6.196l7.867,4.828l9.132,3.454l-5.915,10.794l-1.73,9.311l-6.628,-0.981l-10.725,5.972l-6.907,-7.171l-1.663,-6.79l4.838,-9.582l4.77,-3.639Z" style="fill:#685435;fill-opacity:0.6;"/><path d="M137.406,170.703l-0.386,9.111l3.087,10.681l10.324,-3.994l3.973,-5.069l6.664,-1.632l1.39,-7.458l-8.454,-5.104l-6.307,-5.331l-7.924,3.436l-2.367,5.36Z" style="fill:#bdb097;stroke:#000;stroke-width:1px;"/><path d="M139.038,175.671l-0.386,9.112l3.087,10.681l10.324,-3.994l3.973,-5.069l6.664,-1.633l1.389,-7.457l-8.453,-5.104l-6.307,-5.332l-7.924,3.437l-2.367,5.359Z" style="fill:#685435;fill-opacity:0.6;"/><path d="M147.08,162.969l6.284,-11.686l11.824,-6.042l5.178,5.764l2.828,6.633l-6.341,13.688l0.606,9.489l-9.604,0.248l-4.976,-2.602l-3.042,-5.219l-2.757,-10.273Z" style="fill:#bdb097;stroke:#000;stroke-width:1px;"/><path d="M148.712,167.938l6.284,-11.686l11.824,-6.042l5.177,5.764l2.829,6.632l-6.341,13.689l0.606,9.489l-9.604,0.248l-4.976,-2.602l-3.042,-5.22l-2.757,-10.272Z" style="fill:#685435;fill-opacity:0.6;"/><path d="M83.964,225.251l2.731,7.316l5.969,2.522l11.006,-8.248l8.984,-10.326l-4.891,-6.623l-10.314,-4.359l-13.485,19.718Z" style="fill:#bdb097;stroke:#000;stroke-width:1px;"/><path d="M85.596,230.219l2.731,7.316l5.969,2.523l10.934,-9.753l4.37,-6.875l-6.595,-6.992l-6.427,-4.338l-10.982,18.119Z" style="fill:#685435;fill-opacity:0.6;"/><path d="M70.307,227.535l-0.386,9.112l3.087,10.681l10.324,-3.994l3.973,-5.069l6.664,-1.633l1.389,-7.457l-8.453,-5.104l-6.307,-5.332l-7.924,3.437l-2.367,5.359Z" style="fill:#bdb097;stroke:#000;stroke-width:1px;"/><path d="M71.939,232.504l-0.386,9.112l3.087,10.681l10.324,-3.995l3.973,-5.068l6.664,-1.633l1.389,-7.457l-8.453,-5.105l-6.307,-5.331l-7.924,3.437l-2.367,5.359Z" style="fill:#685435;fill-opacity:0.6;"/><path d="M99.182,208.166l6.284,-11.686l11.823,-6.042l5.178,5.764l2.828,6.632l-6.341,13.689l0.606,9.489l-9.604,0.248l-4.976,-2.602l-3.042,-5.22l-2.756,-10.272Z" style="fill:#bdb097;stroke:#000;stroke-width:1px;"/><path d="M100.813,213.134l6.284,-11.686l11.824,-6.042l5.177,5.765l2.829,6.632l-6.341,13.689l0.606,9.489l-9.604,0.248l-4.976,-2.602l-3.042,-5.22l-2.757,-10.273Z" style="fill:#685435;fill-opacity:0.6;"/><path d="M191.173,128.282l5.992,-13.836l11.886,-7.759l2.548,7.828l0.443,6.95l-7.821,14.608l-0.438,6.689l-6.622,-0.654l-8.695,9.818l-6.714,0.185l-1.659,-3.726l1.647,-5.725l2.652,-2.267l6.781,-12.111" style="fill:#bdb097;stroke:#000;stroke-width:1px;"/><path d="M192.805,133.251l5.992,-13.836l11.886,-7.76l2.548,7.829l0.443,6.95l-7.821,14.608l-0.439,6.689l-6.621,-0.654l-8.695,9.817l-6.714,0.186l-1.659,-3.727l1.647,-5.724l2.652,-2.267l6.781,-12.111" style="fill:#685435;fill-opacity:0.6;"/><path d="M163.613,152.861c0.917,-1.64 12.45,-12.17 12.45,-12.17l11.857,-2.271l-0.448,11.463l-7.334,4.356l-6.349,7.339c0,0 -11.092,-7.077 -10.176,-8.717Z" style="fill:#bdb097;stroke:#000;stroke-width:1px;"/><path d="M165.245,157.83c0.916,-1.641 12.45,-12.17 12.45,-12.17l11.856,-2.272l-0.447,11.464l-7.334,4.356l-6.349,7.339c0,0 -11.092,-7.077 -10.176,-8.717Z" style="fill:#685435;fill-opacity:0.6;"/><path d="M118.391,197.551l2.731,7.316l5.969,2.523l11.005,-8.249l8.984,-10.325l-4.89,-6.623l-10.314,-4.359l-13.485,19.717Z" style="fill:#bdb097;stroke:#000;stroke-width:1px;"/><path d="M120.023,202.52l2.731,7.316l5.969,2.523l10.933,-9.753l4.371,-6.875l-6.595,-6.992l-6.428,-4.338l-10.981,18.119Z" style="fill:#685435;fill-opacity:0.6;"/></g><g><path d="M148.549,75.997l-0.386,9.112l3.087,10.681l10.324,-3.994l3.973,-5.069l6.664,-1.633l1.39,-7.457l-8.454,-5.104l-6.307,-5.332l-7.924,3.437l-2.367,5.359Z" style="fill:#bdb097;stroke:#000;stroke-width:1px;"/><path d="M150.181,80.966l-0.386,9.112l3.087,10.681l10.324,-3.995l3.973,-5.069l6.664,-1.632l1.39,-7.457l-8.454,-5.105l-6.307,-5.331l-7.924,3.437l-2.367,5.359Z" style="fill:#685435;fill-opacity:0.6;"/><path d="M160.91,64.87l6.284,-11.686l11.823,-6.042l5.178,5.764l2.828,6.632l-6.34,13.689l0.606,9.489l-9.604,0.248l-4.976,-2.602l-3.042,-5.219l-2.757,-10.273Z" style="fill:#bdb097;stroke:#000;stroke-width:1px;"/><path d="M162.542,69.839l6.284,-11.686l11.823,-6.042l5.178,5.764l2.828,6.632l-6.34,13.689l0.605,9.489l-9.603,0.248l-4.976,-2.602l-3.042,-5.22l-2.757,-10.272Z" style="fill:#685435;fill-opacity:0.6;"/><path d="M200.621,34.416l5.992,-13.836l11.886,-7.76l2.548,7.829l0.444,6.95l-7.822,14.607l-0.438,6.69l-6.622,-0.655l-8.695,9.818l-6.714,0.185l-1.659,-3.726l1.647,-5.724l2.652,-2.267l6.781,-12.111" style="fill:#bdb097;stroke:#000;stroke-width:1px;"/><path d="M202.253,39.385l5.992,-13.837l11.886,-7.759l2.548,7.829l0.443,6.949l-7.821,14.608l-0.438,6.69l-6.622,-0.655l-8.695,9.818l-6.714,0.185l-1.659,-3.726l1.647,-5.725l2.652,-2.267l6.781,-12.11" style="fill:#685435;fill-opacity:0.6;"/><path d="M175.457,64.904c0.917,-1.64 12.45,-12.17 12.45,-12.17l11.857,-2.271l-0.448,11.463l-7.334,4.356l-6.348,7.339c0,0 -11.093,-7.077 -10.177,-8.717Z" style="fill:#bdb097;stroke:#000;stroke-width:1px;"/><path d="M177.089,69.873c0.917,-1.64 12.45,-12.17 12.45,-12.17l11.857,-2.272l-0.448,11.464l-7.334,4.356l-6.349,7.339c0,0 -11.092,-7.077 -10.176,-8.717Z" style="fill:#685435;fill-opacity:0.6;"/><path d="M219.231,23.452l2.731,7.316l5.969,2.523l11.006,-8.249l8.984,-10.325l-4.891,-6.623l-10.314,-4.359l-13.485,19.717Z" style="fill:#bdb097;stroke:#000;stroke-width:1px;"/><path d="M220.863,28.421l2.731,7.316l5.969,2.523l10.933,-9.753l4.371,-6.875l-6.595,-6.992l-6.427,-4.338l-10.982,18.119Z" style="fill:#685435;fill-opacity:0.6;"/><path d="M121.567,102.798l-0.386,9.112l3.087,10.681l10.324,-3.994l3.973,-5.069l6.664,-1.633l1.39,-7.457l-8.454,-5.104l-6.307,-5.332l-7.924,3.437l-2.367,5.359Z" style="fill:#bdb097;stroke:#000;stroke-width:1px;"/><path d="M123.199,107.767l-0.386,9.112l3.087,10.681l10.324,-3.995l3.973,-5.069l6.664,-1.632l1.39,-7.457l-8.454,-5.105l-6.307,-5.331l-7.924,3.437l-2.367,5.359Z" style="fill:#685435;fill-opacity:0.6;"/><path d="M131.242,95.065l6.284,-11.686l11.823,-6.042l5.178,5.764l2.828,6.632l-6.341,13.689l0.606,9.489l-9.604,0.248l-4.976,-2.602l-3.042,-5.22l-2.756,-10.272Z" style="fill:#bdb097;stroke:#000;stroke-width:1px;"/><path d="M132.874,100.033l6.284,-11.685l11.823,-6.043l5.178,5.765l2.828,6.632l-6.341,13.689l0.606,9.489l-9.604,0.248l-4.976,-2.602l-3.042,-5.22l-2.756,-10.273Z" style="fill:#685435;fill-opacity:0.6;"/><path d="M43.3,189.562l2.731,7.316l5.969,2.523l11.006,-8.249l8.984,-10.325l-4.891,-6.623l-10.314,-4.359l-13.485,19.717Z" style="fill:#bdb097;stroke:#000;stroke-width:1px;"/><path d="M44.932,194.531l2.731,7.316l5.969,2.523l10.933,-9.753l4.371,-6.875l-6.595,-6.992l-6.427,-4.339l-10.982,18.12Z" style="fill:#685435;fill-opacity:0.6;"/><path d="M14.888,204.15l-0.386,9.112l3.087,10.681l10.324,-3.994l3.973,-5.069l6.664,-1.633l1.39,-7.457l-8.454,-5.105l-6.307,-5.331l-7.924,3.437l-2.367,5.359Z" style="fill:#bdb097;stroke:#000;stroke-width:1px;"/><path d="M16.52,209.119l-0.386,9.112l3.087,10.681l10.324,-3.995l3.973,-5.069l6.664,-1.632l1.389,-7.457l-8.453,-5.105l-6.307,-5.331l-7.924,3.437l-2.367,5.359Z" style="fill:#685435;fill-opacity:0.6;"/><path d="M24.562,196.417l6.284,-11.686l11.824,-6.042l5.177,5.764l2.829,6.632l-6.341,13.689l0.606,9.489l-9.604,0.248l-4.976,-2.602l-3.042,-5.22l-2.757,-10.272Z" style="fill:#bdb097;stroke:#000;stroke-width:1px;"/><path d="M26.194,201.385l6.284,-11.686l11.824,-6.042l5.177,5.765l2.829,6.632l-6.341,13.689l0.606,9.489l-9.604,0.248l-4.976,-2.602l-3.042,-5.22l-2.757,-10.273Z" style="fill:#685435;fill-opacity:0.6;"/><path d="M86.338,146.52l5.992,-13.836l11.886,-7.76l2.548,7.829l0.443,6.95l-7.821,14.608l-0.438,6.689l-6.622,-0.654l-8.695,9.818l-6.714,0.185l-1.659,-3.727l1.647,-5.724l2.652,-2.267l6.781,-12.111" style="fill:#bdb097;stroke:#000;stroke-width:1px;"/><path d="M87.97,151.489l5.992,-13.836l11.886,-7.76l2.548,7.829l0.443,6.95l-7.821,14.608l-0.439,6.689l-6.621,-0.654l-8.695,9.817l-6.714,0.186l-1.66,-3.727l1.648,-5.724l2.652,-2.267l6.781,-12.111" style="fill:#685435;fill-opacity:0.6;"/><path d="M58.778,171.099c0.916,-1.64 12.45,-12.17 12.45,-12.17l11.856,-2.272l-0.447,11.464l-7.334,4.356l-6.349,7.339c0,0 -11.092,-7.077 -10.176,-8.717Z" style="fill:#bdb097;stroke:#000;stroke-width:1px;"/><path d="M60.41,176.068c0.916,-1.641 12.45,-12.17 12.45,-12.17l11.856,-2.272l-0.447,11.464l-7.334,4.356l-6.349,7.339c0,0 -11.092,-7.077 -10.176,-8.717Z" style="fill:#685435;fill-opacity:0.6;"/><path d="M102.552,129.647l2.731,7.316l5.969,2.523l11.005,-8.249l8.985,-10.326l-4.891,-6.622l-10.314,-4.359l-13.485,19.717Z" style="fill:#bdb097;stroke:#000;stroke-width:1px;"/><path d="M104.184,134.616l2.731,7.316l5.969,2.523l10.933,-9.753l4.371,-6.875l-6.595,-6.992l-6.427,-4.339l-10.982,18.12Z" style="fill:#685435;fill-opacity:0.6;"/></g></g></g></svg>