<?xml version="1.0" encoding="UTF-8" standalone="no"?><!DOCTYPE svg PUBLIC "-//W3C//DTD SVG 1.1//EN" "http://www.w3.org/Graphics/SVG/1.1/DTD/svg11.dtd"><svg width="100%" height="100%" viewBox="0 0 177 101" version="1.1" xmlns="http://www.w3.org/2000/svg" xmlns:xlink="http://www.w3.org/1999/xlink" xml:space="preserve" xmlns:serif="http://www.serif.com/" style="fill-rule:evenodd;clip-rule:evenodd;stroke-linecap:round;stroke-linejoin:round;stroke-miterlimit:1.5;"><g id="way14"><g><g><path d="M29.422,34.04l-8.162,4.081l0.517,8.196l9.045,3.122l7.158,4.979l10.548,2.268l10.546,-10.64l-4.09,-8.688l-9.462,-6.002l-16.1,2.684Z" style="fill:#918f88;stroke:#000;stroke-width:1px;"/><path d="M30.078,39.197l-8.162,4.081l0.517,8.196l9.045,3.123l7.158,4.979l10.549,2.267l10.545,-10.639l-4.09,-8.688l-9.462,-6.002l-16.1,2.683Z" style="fill:#4f3929;fill-opacity:0.6;"/><path d="M97.555,89.786l-10.38,0.764l-4.988,-5.673l-3.401,-6.512l4.381,-3.404l10.209,-1.088l10.316,-1.612l7.687,-1.598l-1.665,4.761l2.816,2.397l0.694,4.709l-2.174,2.474l-13.495,4.782" style="fill:#918f88;stroke:#000;stroke-width:1px;"/><path d="M98.211,94.944l-10.38,0.763l-4.988,-5.672l-3.401,-6.512l4.381,-3.404l10.209,-1.088l10.316,-1.612l7.687,-1.599l-1.664,4.762l2.815,2.396l0.694,4.709l-2.174,2.475l-13.495,4.782" style="fill:#4f3929;fill-opacity:0.6;"/><path d="M74.08,92.877l-8.626,-3.526l0.876,-9.188l-0.915,-9.721l12.296,0.565l9.122,-2.542l2.034,6.384l10.081,7.005l-3.402,9.357l-5.366,4.48l-10.733,-0.13l-5.367,-2.684Z" style="fill:#918f88;stroke:#000;stroke-width:1px;"/><path d="M74.736,98.035l-8.626,-3.526l0.876,-9.188l-0.915,-9.721l12.296,0.564l9.122,-2.541l2.035,6.383l10.081,7.006l-3.402,9.357l-5.367,4.479l-10.733,-0.13l-5.367,-2.683Z" style="fill:#4f3929;fill-opacity:0.6;"/><path d="M158.546,64.262l8.543,-3.191l8.637,-7.002l-7.699,-7.954l-6.215,-1.686l-4.099,-5.503l-7.409,1.623l-1.411,9.774l-2.455,7.885l6.25,5.961l5.858,0.093Z" style="fill:#918f88;stroke:#000;stroke-width:1px;"/><path d="M159.202,69.42l8.543,-3.192l8.637,-7.001l-7.698,-7.955l-6.216,-1.685l-4.098,-5.504l-7.41,1.624l-1.411,9.774l-2.455,7.885l6.25,5.961l5.858,0.093Z" style="fill:#4f3929;fill-opacity:0.6;"/><path d="M148.98,52.267l-13.211,-1.238l-10.168,-8.538l3.294,-7.014l5.008,-5.187l15.077,0.511l8.504,-4.252l3.968,8.749l-0.46,5.597l-3.623,4.834l-8.389,6.538Z" style="fill:#918f88;stroke:#000;stroke-width:1px;"/><path d="M149.636,57.425l-13.211,-1.238l-10.168,-8.539l3.294,-7.013l5.008,-5.187l15.077,0.511l8.504,-4.252l3.968,8.749l-0.46,5.596l-3.623,4.835l-8.389,6.538Z" style="fill:#4f3929;fill-opacity:0.6;"/><path d="M93.146,23.716l8.114,-8.245l0.779,-11.123l-7.714,-2.942l-12.603,0.498l-7.551,6.958l-4.782,8.342l8.836,3.206l8.821,2.168l6.1,1.138" style="fill:#918f88;stroke:#000;stroke-width:1px;"/><path d="M96.181,30.363l8.114,-8.245l0.779,-11.123l-7.714,-2.942l-12.603,0.498l-7.551,6.958l-4.782,8.342l8.836,3.206l8.821,2.168l6.1,1.138" style="fill:#4f3929;fill-opacity:0.6;"/><path d="M52.88,43.043l4.035,-4.826l3.812,-11.411l-9.176,-4.589l-8.151,4.809l-5.366,6.651l10.733,3.248l0,2.182l1.741,2.314l2.372,1.622Z" style="fill:#918f88;stroke:#000;stroke-width:1px;"/><path d="M53.536,48.201l4.035,-4.826l3.194,-9.546l-4.611,-1.799l-7.816,4.348l-3.153,5.006l4.238,0.699l0,2.182l1.741,2.314l2.372,1.622Z" style="fill:#4f3929;fill-opacity:0.6;"/><path d="M76.254,30.022l5.675,-5.364l0,-6.48l-11.882,-6.925l-13.009,-4.256l-4.196,7.083l0,11.198l23.412,4.744Z" style="fill:#918f88;stroke:#000;stroke-width:1px;"/><path d="M76.91,35.18l5.675,-5.364l0,-6.48l-13.24,-6.274l-8.034,-1.349l-3.873,8.797l-1.493,7.609l20.965,3.061Z" style="fill:#4f3929;fill-opacity:0.6;"/><path d="M13.839,64.038l13.21,-1.239l10.168,-8.538l-3.293,-7.013l-5.008,-5.188l-15.077,0.512l-8.505,-4.253l-3.967,8.75l0.459,5.596l3.624,4.834l8.389,6.539Z" style="fill:#918f88;stroke:#000;stroke-width:1px;"/><path d="M14.556,67.907l13.21,-1.239l10.169,-8.538l-3.294,-7.013l-5.008,-5.188l-15.077,0.512l-8.505,-4.253l-3.967,8.75l0.459,5.596l3.624,4.834l8.389,6.539Z" style="fill:#4f3929;fill-opacity:0.6;"/></g></g></g></svg>